G04 #@! TF.GenerationSoftware,KiCad,Pcbnew,(5.1.5)-3*
G04 #@! TF.CreationDate,2020-01-29T10:29:02+01:00*
G04 #@! TF.ProjectId,ProgrammingBoard,50726f67-7261-46d6-9d69-6e67426f6172,rev?*
G04 #@! TF.SameCoordinates,Original*
G04 #@! TF.FileFunction,Soldermask,Top*
G04 #@! TF.FilePolarity,Negative*
%FSLAX46Y46*%
G04 Gerber Fmt 4.6, Leading zero omitted, Abs format (unit mm)*
G04 Created by KiCad (PCBNEW (5.1.5)-3) date 2020-01-29 10:29:02*
%MOMM*%
%LPD*%
G04 APERTURE LIST*
%ADD10C,0.100000*%
G04 APERTURE END LIST*
D10*
G36*
X213261934Y-129272671D02*
G01*
X213291877Y-129281754D01*
X213319465Y-129296500D01*
X213343651Y-129316349D01*
X213363500Y-129340535D01*
X213378246Y-129368123D01*
X213387329Y-129398066D01*
X213391000Y-129435340D01*
X213391000Y-133204660D01*
X213387329Y-133241934D01*
X213378246Y-133271877D01*
X213363500Y-133299465D01*
X213343651Y-133323651D01*
X213319465Y-133343500D01*
X213291877Y-133358246D01*
X213261934Y-133367329D01*
X213224660Y-133371000D01*
X210955340Y-133371000D01*
X210918066Y-133367329D01*
X210888123Y-133358246D01*
X210860535Y-133343500D01*
X210836349Y-133323651D01*
X210816500Y-133299465D01*
X210801754Y-133271877D01*
X210792671Y-133241934D01*
X210789000Y-133204660D01*
X210789000Y-129435340D01*
X210792671Y-129398066D01*
X210801754Y-129368123D01*
X210816500Y-129340535D01*
X210836349Y-129316349D01*
X210860535Y-129296500D01*
X210888123Y-129281754D01*
X210918066Y-129272671D01*
X210955340Y-129269000D01*
X213224660Y-129269000D01*
X213261934Y-129272671D01*
G37*
G36*
X158863512Y-131183927D02*
G01*
X159012812Y-131213624D01*
X159176784Y-131281544D01*
X159324354Y-131380147D01*
X159449853Y-131505646D01*
X159548456Y-131653216D01*
X159616376Y-131817188D01*
X159651000Y-131991259D01*
X159651000Y-132168741D01*
X159616376Y-132342812D01*
X159548456Y-132506784D01*
X159449853Y-132654354D01*
X159324354Y-132779853D01*
X159176784Y-132878456D01*
X159012812Y-132946376D01*
X158863512Y-132976073D01*
X158838742Y-132981000D01*
X158661258Y-132981000D01*
X158636488Y-132976073D01*
X158487188Y-132946376D01*
X158323216Y-132878456D01*
X158175646Y-132779853D01*
X158050147Y-132654354D01*
X157951544Y-132506784D01*
X157883624Y-132342812D01*
X157849000Y-132168741D01*
X157849000Y-131991259D01*
X157883624Y-131817188D01*
X157951544Y-131653216D01*
X158050147Y-131505646D01*
X158175646Y-131380147D01*
X158323216Y-131281544D01*
X158487188Y-131213624D01*
X158636488Y-131183927D01*
X158661258Y-131179000D01*
X158838742Y-131179000D01*
X158863512Y-131183927D01*
G37*
G36*
X184263512Y-131183927D02*
G01*
X184412812Y-131213624D01*
X184576784Y-131281544D01*
X184724354Y-131380147D01*
X184849853Y-131505646D01*
X184948456Y-131653216D01*
X185016376Y-131817188D01*
X185051000Y-131991259D01*
X185051000Y-132168741D01*
X185016376Y-132342812D01*
X184948456Y-132506784D01*
X184849853Y-132654354D01*
X184724354Y-132779853D01*
X184576784Y-132878456D01*
X184412812Y-132946376D01*
X184263512Y-132976073D01*
X184238742Y-132981000D01*
X184061258Y-132981000D01*
X184036488Y-132976073D01*
X183887188Y-132946376D01*
X183723216Y-132878456D01*
X183575646Y-132779853D01*
X183450147Y-132654354D01*
X183351544Y-132506784D01*
X183283624Y-132342812D01*
X183249000Y-132168741D01*
X183249000Y-131991259D01*
X183283624Y-131817188D01*
X183351544Y-131653216D01*
X183450147Y-131505646D01*
X183575646Y-131380147D01*
X183723216Y-131281544D01*
X183887188Y-131213624D01*
X184036488Y-131183927D01*
X184061258Y-131179000D01*
X184238742Y-131179000D01*
X184263512Y-131183927D01*
G37*
G36*
X186803512Y-131183927D02*
G01*
X186952812Y-131213624D01*
X187116784Y-131281544D01*
X187264354Y-131380147D01*
X187389853Y-131505646D01*
X187488456Y-131653216D01*
X187556376Y-131817188D01*
X187591000Y-131991259D01*
X187591000Y-132168741D01*
X187556376Y-132342812D01*
X187488456Y-132506784D01*
X187389853Y-132654354D01*
X187264354Y-132779853D01*
X187116784Y-132878456D01*
X186952812Y-132946376D01*
X186803512Y-132976073D01*
X186778742Y-132981000D01*
X186601258Y-132981000D01*
X186576488Y-132976073D01*
X186427188Y-132946376D01*
X186263216Y-132878456D01*
X186115646Y-132779853D01*
X185990147Y-132654354D01*
X185891544Y-132506784D01*
X185823624Y-132342812D01*
X185789000Y-132168741D01*
X185789000Y-131991259D01*
X185823624Y-131817188D01*
X185891544Y-131653216D01*
X185990147Y-131505646D01*
X186115646Y-131380147D01*
X186263216Y-131281544D01*
X186427188Y-131213624D01*
X186576488Y-131183927D01*
X186601258Y-131179000D01*
X186778742Y-131179000D01*
X186803512Y-131183927D01*
G37*
G36*
X190131000Y-132981000D02*
G01*
X188329000Y-132981000D01*
X188329000Y-131179000D01*
X190131000Y-131179000D01*
X190131000Y-132981000D01*
G37*
G36*
X196963512Y-131183927D02*
G01*
X197112812Y-131213624D01*
X197276784Y-131281544D01*
X197424354Y-131380147D01*
X197549853Y-131505646D01*
X197648456Y-131653216D01*
X197716376Y-131817188D01*
X197751000Y-131991259D01*
X197751000Y-132168741D01*
X197716376Y-132342812D01*
X197648456Y-132506784D01*
X197549853Y-132654354D01*
X197424354Y-132779853D01*
X197276784Y-132878456D01*
X197112812Y-132946376D01*
X196963512Y-132976073D01*
X196938742Y-132981000D01*
X196761258Y-132981000D01*
X196736488Y-132976073D01*
X196587188Y-132946376D01*
X196423216Y-132878456D01*
X196275646Y-132779853D01*
X196150147Y-132654354D01*
X196051544Y-132506784D01*
X195983624Y-132342812D01*
X195949000Y-132168741D01*
X195949000Y-131991259D01*
X195983624Y-131817188D01*
X196051544Y-131653216D01*
X196150147Y-131505646D01*
X196275646Y-131380147D01*
X196423216Y-131281544D01*
X196587188Y-131213624D01*
X196736488Y-131183927D01*
X196761258Y-131179000D01*
X196938742Y-131179000D01*
X196963512Y-131183927D01*
G37*
G36*
X199503512Y-131183927D02*
G01*
X199652812Y-131213624D01*
X199816784Y-131281544D01*
X199964354Y-131380147D01*
X200089853Y-131505646D01*
X200188456Y-131653216D01*
X200256376Y-131817188D01*
X200291000Y-131991259D01*
X200291000Y-132168741D01*
X200256376Y-132342812D01*
X200188456Y-132506784D01*
X200089853Y-132654354D01*
X199964354Y-132779853D01*
X199816784Y-132878456D01*
X199652812Y-132946376D01*
X199503512Y-132976073D01*
X199478742Y-132981000D01*
X199301258Y-132981000D01*
X199276488Y-132976073D01*
X199127188Y-132946376D01*
X198963216Y-132878456D01*
X198815646Y-132779853D01*
X198690147Y-132654354D01*
X198591544Y-132506784D01*
X198523624Y-132342812D01*
X198489000Y-132168741D01*
X198489000Y-131991259D01*
X198523624Y-131817188D01*
X198591544Y-131653216D01*
X198690147Y-131505646D01*
X198815646Y-131380147D01*
X198963216Y-131281544D01*
X199127188Y-131213624D01*
X199276488Y-131183927D01*
X199301258Y-131179000D01*
X199478742Y-131179000D01*
X199503512Y-131183927D01*
G37*
G36*
X202831000Y-132981000D02*
G01*
X201029000Y-132981000D01*
X201029000Y-131179000D01*
X202831000Y-131179000D01*
X202831000Y-132981000D01*
G37*
G36*
X181723512Y-131183927D02*
G01*
X181872812Y-131213624D01*
X182036784Y-131281544D01*
X182184354Y-131380147D01*
X182309853Y-131505646D01*
X182408456Y-131653216D01*
X182476376Y-131817188D01*
X182511000Y-131991259D01*
X182511000Y-132168741D01*
X182476376Y-132342812D01*
X182408456Y-132506784D01*
X182309853Y-132654354D01*
X182184354Y-132779853D01*
X182036784Y-132878456D01*
X181872812Y-132946376D01*
X181723512Y-132976073D01*
X181698742Y-132981000D01*
X181521258Y-132981000D01*
X181496488Y-132976073D01*
X181347188Y-132946376D01*
X181183216Y-132878456D01*
X181035646Y-132779853D01*
X180910147Y-132654354D01*
X180811544Y-132506784D01*
X180743624Y-132342812D01*
X180709000Y-132168741D01*
X180709000Y-131991259D01*
X180743624Y-131817188D01*
X180811544Y-131653216D01*
X180910147Y-131505646D01*
X181035646Y-131380147D01*
X181183216Y-131281544D01*
X181347188Y-131213624D01*
X181496488Y-131183927D01*
X181521258Y-131179000D01*
X181698742Y-131179000D01*
X181723512Y-131183927D01*
G37*
G36*
X179183512Y-131183927D02*
G01*
X179332812Y-131213624D01*
X179496784Y-131281544D01*
X179644354Y-131380147D01*
X179769853Y-131505646D01*
X179868456Y-131653216D01*
X179936376Y-131817188D01*
X179971000Y-131991259D01*
X179971000Y-132168741D01*
X179936376Y-132342812D01*
X179868456Y-132506784D01*
X179769853Y-132654354D01*
X179644354Y-132779853D01*
X179496784Y-132878456D01*
X179332812Y-132946376D01*
X179183512Y-132976073D01*
X179158742Y-132981000D01*
X178981258Y-132981000D01*
X178956488Y-132976073D01*
X178807188Y-132946376D01*
X178643216Y-132878456D01*
X178495646Y-132779853D01*
X178370147Y-132654354D01*
X178271544Y-132506784D01*
X178203624Y-132342812D01*
X178169000Y-132168741D01*
X178169000Y-131991259D01*
X178203624Y-131817188D01*
X178271544Y-131653216D01*
X178370147Y-131505646D01*
X178495646Y-131380147D01*
X178643216Y-131281544D01*
X178807188Y-131213624D01*
X178956488Y-131183927D01*
X178981258Y-131179000D01*
X179158742Y-131179000D01*
X179183512Y-131183927D01*
G37*
G36*
X176643512Y-131183927D02*
G01*
X176792812Y-131213624D01*
X176956784Y-131281544D01*
X177104354Y-131380147D01*
X177229853Y-131505646D01*
X177328456Y-131653216D01*
X177396376Y-131817188D01*
X177431000Y-131991259D01*
X177431000Y-132168741D01*
X177396376Y-132342812D01*
X177328456Y-132506784D01*
X177229853Y-132654354D01*
X177104354Y-132779853D01*
X176956784Y-132878456D01*
X176792812Y-132946376D01*
X176643512Y-132976073D01*
X176618742Y-132981000D01*
X176441258Y-132981000D01*
X176416488Y-132976073D01*
X176267188Y-132946376D01*
X176103216Y-132878456D01*
X175955646Y-132779853D01*
X175830147Y-132654354D01*
X175731544Y-132506784D01*
X175663624Y-132342812D01*
X175629000Y-132168741D01*
X175629000Y-131991259D01*
X175663624Y-131817188D01*
X175731544Y-131653216D01*
X175830147Y-131505646D01*
X175955646Y-131380147D01*
X176103216Y-131281544D01*
X176267188Y-131213624D01*
X176416488Y-131183927D01*
X176441258Y-131179000D01*
X176618742Y-131179000D01*
X176643512Y-131183927D01*
G37*
G36*
X174103512Y-131183927D02*
G01*
X174252812Y-131213624D01*
X174416784Y-131281544D01*
X174564354Y-131380147D01*
X174689853Y-131505646D01*
X174788456Y-131653216D01*
X174856376Y-131817188D01*
X174891000Y-131991259D01*
X174891000Y-132168741D01*
X174856376Y-132342812D01*
X174788456Y-132506784D01*
X174689853Y-132654354D01*
X174564354Y-132779853D01*
X174416784Y-132878456D01*
X174252812Y-132946376D01*
X174103512Y-132976073D01*
X174078742Y-132981000D01*
X173901258Y-132981000D01*
X173876488Y-132976073D01*
X173727188Y-132946376D01*
X173563216Y-132878456D01*
X173415646Y-132779853D01*
X173290147Y-132654354D01*
X173191544Y-132506784D01*
X173123624Y-132342812D01*
X173089000Y-132168741D01*
X173089000Y-131991259D01*
X173123624Y-131817188D01*
X173191544Y-131653216D01*
X173290147Y-131505646D01*
X173415646Y-131380147D01*
X173563216Y-131281544D01*
X173727188Y-131213624D01*
X173876488Y-131183927D01*
X173901258Y-131179000D01*
X174078742Y-131179000D01*
X174103512Y-131183927D01*
G37*
G36*
X171563512Y-131183927D02*
G01*
X171712812Y-131213624D01*
X171876784Y-131281544D01*
X172024354Y-131380147D01*
X172149853Y-131505646D01*
X172248456Y-131653216D01*
X172316376Y-131817188D01*
X172351000Y-131991259D01*
X172351000Y-132168741D01*
X172316376Y-132342812D01*
X172248456Y-132506784D01*
X172149853Y-132654354D01*
X172024354Y-132779853D01*
X171876784Y-132878456D01*
X171712812Y-132946376D01*
X171563512Y-132976073D01*
X171538742Y-132981000D01*
X171361258Y-132981000D01*
X171336488Y-132976073D01*
X171187188Y-132946376D01*
X171023216Y-132878456D01*
X170875646Y-132779853D01*
X170750147Y-132654354D01*
X170651544Y-132506784D01*
X170583624Y-132342812D01*
X170549000Y-132168741D01*
X170549000Y-131991259D01*
X170583624Y-131817188D01*
X170651544Y-131653216D01*
X170750147Y-131505646D01*
X170875646Y-131380147D01*
X171023216Y-131281544D01*
X171187188Y-131213624D01*
X171336488Y-131183927D01*
X171361258Y-131179000D01*
X171538742Y-131179000D01*
X171563512Y-131183927D01*
G37*
G36*
X169023512Y-131183927D02*
G01*
X169172812Y-131213624D01*
X169336784Y-131281544D01*
X169484354Y-131380147D01*
X169609853Y-131505646D01*
X169708456Y-131653216D01*
X169776376Y-131817188D01*
X169811000Y-131991259D01*
X169811000Y-132168741D01*
X169776376Y-132342812D01*
X169708456Y-132506784D01*
X169609853Y-132654354D01*
X169484354Y-132779853D01*
X169336784Y-132878456D01*
X169172812Y-132946376D01*
X169023512Y-132976073D01*
X168998742Y-132981000D01*
X168821258Y-132981000D01*
X168796488Y-132976073D01*
X168647188Y-132946376D01*
X168483216Y-132878456D01*
X168335646Y-132779853D01*
X168210147Y-132654354D01*
X168111544Y-132506784D01*
X168043624Y-132342812D01*
X168009000Y-132168741D01*
X168009000Y-131991259D01*
X168043624Y-131817188D01*
X168111544Y-131653216D01*
X168210147Y-131505646D01*
X168335646Y-131380147D01*
X168483216Y-131281544D01*
X168647188Y-131213624D01*
X168796488Y-131183927D01*
X168821258Y-131179000D01*
X168998742Y-131179000D01*
X169023512Y-131183927D01*
G37*
G36*
X164731000Y-132981000D02*
G01*
X162929000Y-132981000D01*
X162929000Y-131179000D01*
X164731000Y-131179000D01*
X164731000Y-132981000D01*
G37*
G36*
X158863512Y-128643927D02*
G01*
X159012812Y-128673624D01*
X159176784Y-128741544D01*
X159324354Y-128840147D01*
X159449853Y-128965646D01*
X159548456Y-129113216D01*
X159616376Y-129277188D01*
X159651000Y-129451259D01*
X159651000Y-129628741D01*
X159616376Y-129802812D01*
X159548456Y-129966784D01*
X159449853Y-130114354D01*
X159324354Y-130239853D01*
X159176784Y-130338456D01*
X159012812Y-130406376D01*
X158863512Y-130436073D01*
X158838742Y-130441000D01*
X158661258Y-130441000D01*
X158636488Y-130436073D01*
X158487188Y-130406376D01*
X158323216Y-130338456D01*
X158175646Y-130239853D01*
X158050147Y-130114354D01*
X157951544Y-129966784D01*
X157883624Y-129802812D01*
X157849000Y-129628741D01*
X157849000Y-129451259D01*
X157883624Y-129277188D01*
X157951544Y-129113216D01*
X158050147Y-128965646D01*
X158175646Y-128840147D01*
X158323216Y-128741544D01*
X158487188Y-128673624D01*
X158636488Y-128643927D01*
X158661258Y-128639000D01*
X158838742Y-128639000D01*
X158863512Y-128643927D01*
G37*
G36*
X163943512Y-128643927D02*
G01*
X164092812Y-128673624D01*
X164256784Y-128741544D01*
X164404354Y-128840147D01*
X164529853Y-128965646D01*
X164628456Y-129113216D01*
X164696376Y-129277188D01*
X164731000Y-129451259D01*
X164731000Y-129628741D01*
X164696376Y-129802812D01*
X164628456Y-129966784D01*
X164529853Y-130114354D01*
X164404354Y-130239853D01*
X164256784Y-130338456D01*
X164092812Y-130406376D01*
X163943512Y-130436073D01*
X163918742Y-130441000D01*
X163741258Y-130441000D01*
X163716488Y-130436073D01*
X163567188Y-130406376D01*
X163403216Y-130338456D01*
X163255646Y-130239853D01*
X163130147Y-130114354D01*
X163031544Y-129966784D01*
X162963624Y-129802812D01*
X162929000Y-129628741D01*
X162929000Y-129451259D01*
X162963624Y-129277188D01*
X163031544Y-129113216D01*
X163130147Y-128965646D01*
X163255646Y-128840147D01*
X163403216Y-128741544D01*
X163567188Y-128673624D01*
X163716488Y-128643927D01*
X163741258Y-128639000D01*
X163918742Y-128639000D01*
X163943512Y-128643927D01*
G37*
G36*
X190879591Y-127303085D02*
G01*
X190913569Y-127313393D01*
X190944890Y-127330134D01*
X190972339Y-127352661D01*
X190994866Y-127380110D01*
X191011607Y-127411431D01*
X191021915Y-127445409D01*
X191026000Y-127486890D01*
X191026000Y-128088110D01*
X191021915Y-128129591D01*
X191011607Y-128163569D01*
X190994866Y-128194890D01*
X190972339Y-128222339D01*
X190944890Y-128244866D01*
X190913569Y-128261607D01*
X190879591Y-128271915D01*
X190838110Y-128276000D01*
X190161890Y-128276000D01*
X190120409Y-128271915D01*
X190086431Y-128261607D01*
X190055110Y-128244866D01*
X190027661Y-128222339D01*
X190005134Y-128194890D01*
X189988393Y-128163569D01*
X189978085Y-128129591D01*
X189974000Y-128088110D01*
X189974000Y-127486890D01*
X189978085Y-127445409D01*
X189988393Y-127411431D01*
X190005134Y-127380110D01*
X190027661Y-127352661D01*
X190055110Y-127330134D01*
X190086431Y-127313393D01*
X190120409Y-127303085D01*
X190161890Y-127299000D01*
X190838110Y-127299000D01*
X190879591Y-127303085D01*
G37*
G36*
X159651000Y-127901000D02*
G01*
X157849000Y-127901000D01*
X157849000Y-126099000D01*
X159651000Y-126099000D01*
X159651000Y-127901000D01*
G37*
G36*
X213261934Y-123172671D02*
G01*
X213291877Y-123181754D01*
X213319465Y-123196500D01*
X213343651Y-123216349D01*
X213363500Y-123240535D01*
X213378246Y-123268123D01*
X213387329Y-123298066D01*
X213391000Y-123335340D01*
X213391000Y-127104660D01*
X213387329Y-127141934D01*
X213378246Y-127171877D01*
X213363500Y-127199465D01*
X213343651Y-127223651D01*
X213319465Y-127243500D01*
X213291877Y-127258246D01*
X213261934Y-127267329D01*
X213224660Y-127271000D01*
X210955340Y-127271000D01*
X210918066Y-127267329D01*
X210888123Y-127258246D01*
X210860535Y-127243500D01*
X210836349Y-127223651D01*
X210816500Y-127199465D01*
X210801754Y-127171877D01*
X210792671Y-127141934D01*
X210789000Y-127104660D01*
X210789000Y-123335340D01*
X210792671Y-123298066D01*
X210801754Y-123268123D01*
X210816500Y-123240535D01*
X210836349Y-123216349D01*
X210860535Y-123196500D01*
X210888123Y-123181754D01*
X210918066Y-123172671D01*
X210955340Y-123169000D01*
X213224660Y-123169000D01*
X213261934Y-123172671D01*
G37*
G36*
X190879591Y-125728085D02*
G01*
X190913569Y-125738393D01*
X190944890Y-125755134D01*
X190972339Y-125777661D01*
X190994866Y-125805110D01*
X191011607Y-125836431D01*
X191021915Y-125870409D01*
X191026000Y-125911890D01*
X191026000Y-126513110D01*
X191021915Y-126554591D01*
X191011607Y-126588569D01*
X190994866Y-126619890D01*
X190972339Y-126647339D01*
X190944890Y-126669866D01*
X190913569Y-126686607D01*
X190879591Y-126696915D01*
X190838110Y-126701000D01*
X190161890Y-126701000D01*
X190120409Y-126696915D01*
X190086431Y-126686607D01*
X190055110Y-126669866D01*
X190027661Y-126647339D01*
X190005134Y-126619890D01*
X189988393Y-126588569D01*
X189978085Y-126554591D01*
X189974000Y-126513110D01*
X189974000Y-125911890D01*
X189978085Y-125870409D01*
X189988393Y-125836431D01*
X190005134Y-125805110D01*
X190027661Y-125777661D01*
X190055110Y-125755134D01*
X190086431Y-125738393D01*
X190120409Y-125728085D01*
X190161890Y-125724000D01*
X190838110Y-125724000D01*
X190879591Y-125728085D01*
G37*
G36*
X194423512Y-123563927D02*
G01*
X194572812Y-123593624D01*
X194736784Y-123661544D01*
X194884354Y-123760147D01*
X195009853Y-123885646D01*
X195108456Y-124033216D01*
X195176376Y-124197188D01*
X195211000Y-124371259D01*
X195211000Y-124548741D01*
X195176376Y-124722812D01*
X195108456Y-124886784D01*
X195009853Y-125034354D01*
X194884354Y-125159853D01*
X194736784Y-125258456D01*
X194572812Y-125326376D01*
X194423512Y-125356073D01*
X194398742Y-125361000D01*
X194221258Y-125361000D01*
X194196488Y-125356073D01*
X194047188Y-125326376D01*
X193883216Y-125258456D01*
X193735646Y-125159853D01*
X193610147Y-125034354D01*
X193511544Y-124886784D01*
X193443624Y-124722812D01*
X193409000Y-124548741D01*
X193409000Y-124371259D01*
X193443624Y-124197188D01*
X193511544Y-124033216D01*
X193610147Y-123885646D01*
X193735646Y-123760147D01*
X193883216Y-123661544D01*
X194047188Y-123593624D01*
X194196488Y-123563927D01*
X194221258Y-123559000D01*
X194398742Y-123559000D01*
X194423512Y-123563927D01*
G37*
G36*
X199503512Y-123563927D02*
G01*
X199652812Y-123593624D01*
X199816784Y-123661544D01*
X199964354Y-123760147D01*
X200089853Y-123885646D01*
X200188456Y-124033216D01*
X200256376Y-124197188D01*
X200291000Y-124371259D01*
X200291000Y-124548741D01*
X200256376Y-124722812D01*
X200188456Y-124886784D01*
X200089853Y-125034354D01*
X199964354Y-125159853D01*
X199816784Y-125258456D01*
X199652812Y-125326376D01*
X199503512Y-125356073D01*
X199478742Y-125361000D01*
X199301258Y-125361000D01*
X199276488Y-125356073D01*
X199127188Y-125326376D01*
X198963216Y-125258456D01*
X198815646Y-125159853D01*
X198690147Y-125034354D01*
X198591544Y-124886784D01*
X198523624Y-124722812D01*
X198489000Y-124548741D01*
X198489000Y-124371259D01*
X198523624Y-124197188D01*
X198591544Y-124033216D01*
X198690147Y-123885646D01*
X198815646Y-123760147D01*
X198963216Y-123661544D01*
X199127188Y-123593624D01*
X199276488Y-123563927D01*
X199301258Y-123559000D01*
X199478742Y-123559000D01*
X199503512Y-123563927D01*
G37*
G36*
X202831000Y-125361000D02*
G01*
X201029000Y-125361000D01*
X201029000Y-123559000D01*
X202831000Y-123559000D01*
X202831000Y-125361000D01*
G37*
G36*
X164731000Y-125361000D02*
G01*
X162929000Y-125361000D01*
X162929000Y-123559000D01*
X164731000Y-123559000D01*
X164731000Y-125361000D01*
G37*
G36*
X180599928Y-121616764D02*
G01*
X180621009Y-121623160D01*
X180640445Y-121633548D01*
X180657476Y-121647524D01*
X180671452Y-121664555D01*
X180681840Y-121683991D01*
X180688236Y-121705072D01*
X180691000Y-121733140D01*
X180691000Y-123071860D01*
X180688236Y-123099928D01*
X180681840Y-123121009D01*
X180671452Y-123140445D01*
X180657476Y-123157476D01*
X180640445Y-123171452D01*
X180621009Y-123181840D01*
X180599928Y-123188236D01*
X180571860Y-123191000D01*
X180108140Y-123191000D01*
X180080072Y-123188236D01*
X180058991Y-123181840D01*
X180039555Y-123171452D01*
X180022524Y-123157476D01*
X180008548Y-123140445D01*
X179998160Y-123121009D01*
X179991764Y-123099928D01*
X179989000Y-123071860D01*
X179989000Y-121733140D01*
X179991764Y-121705072D01*
X179998160Y-121683991D01*
X180008548Y-121664555D01*
X180022524Y-121647524D01*
X180039555Y-121633548D01*
X180058991Y-121623160D01*
X180080072Y-121616764D01*
X180108140Y-121614000D01*
X180571860Y-121614000D01*
X180599928Y-121616764D01*
G37*
G36*
X179329928Y-121616764D02*
G01*
X179351009Y-121623160D01*
X179370445Y-121633548D01*
X179387476Y-121647524D01*
X179401452Y-121664555D01*
X179411840Y-121683991D01*
X179418236Y-121705072D01*
X179421000Y-121733140D01*
X179421000Y-123071860D01*
X179418236Y-123099928D01*
X179411840Y-123121009D01*
X179401452Y-123140445D01*
X179387476Y-123157476D01*
X179370445Y-123171452D01*
X179351009Y-123181840D01*
X179329928Y-123188236D01*
X179301860Y-123191000D01*
X178838140Y-123191000D01*
X178810072Y-123188236D01*
X178788991Y-123181840D01*
X178769555Y-123171452D01*
X178752524Y-123157476D01*
X178738548Y-123140445D01*
X178728160Y-123121009D01*
X178721764Y-123099928D01*
X178719000Y-123071860D01*
X178719000Y-121733140D01*
X178721764Y-121705072D01*
X178728160Y-121683991D01*
X178738548Y-121664555D01*
X178752524Y-121647524D01*
X178769555Y-121633548D01*
X178788991Y-121623160D01*
X178810072Y-121616764D01*
X178838140Y-121614000D01*
X179301860Y-121614000D01*
X179329928Y-121616764D01*
G37*
G36*
X178059928Y-121616764D02*
G01*
X178081009Y-121623160D01*
X178100445Y-121633548D01*
X178117476Y-121647524D01*
X178131452Y-121664555D01*
X178141840Y-121683991D01*
X178148236Y-121705072D01*
X178151000Y-121733140D01*
X178151000Y-123071860D01*
X178148236Y-123099928D01*
X178141840Y-123121009D01*
X178131452Y-123140445D01*
X178117476Y-123157476D01*
X178100445Y-123171452D01*
X178081009Y-123181840D01*
X178059928Y-123188236D01*
X178031860Y-123191000D01*
X177568140Y-123191000D01*
X177540072Y-123188236D01*
X177518991Y-123181840D01*
X177499555Y-123171452D01*
X177482524Y-123157476D01*
X177468548Y-123140445D01*
X177458160Y-123121009D01*
X177451764Y-123099928D01*
X177449000Y-123071860D01*
X177449000Y-121733140D01*
X177451764Y-121705072D01*
X177458160Y-121683991D01*
X177468548Y-121664555D01*
X177482524Y-121647524D01*
X177499555Y-121633548D01*
X177518991Y-121623160D01*
X177540072Y-121616764D01*
X177568140Y-121614000D01*
X178031860Y-121614000D01*
X178059928Y-121616764D01*
G37*
G36*
X176789928Y-121616764D02*
G01*
X176811009Y-121623160D01*
X176830445Y-121633548D01*
X176847476Y-121647524D01*
X176861452Y-121664555D01*
X176871840Y-121683991D01*
X176878236Y-121705072D01*
X176881000Y-121733140D01*
X176881000Y-123071860D01*
X176878236Y-123099928D01*
X176871840Y-123121009D01*
X176861452Y-123140445D01*
X176847476Y-123157476D01*
X176830445Y-123171452D01*
X176811009Y-123181840D01*
X176789928Y-123188236D01*
X176761860Y-123191000D01*
X176298140Y-123191000D01*
X176270072Y-123188236D01*
X176248991Y-123181840D01*
X176229555Y-123171452D01*
X176212524Y-123157476D01*
X176198548Y-123140445D01*
X176188160Y-123121009D01*
X176181764Y-123099928D01*
X176179000Y-123071860D01*
X176179000Y-121733140D01*
X176181764Y-121705072D01*
X176188160Y-121683991D01*
X176198548Y-121664555D01*
X176212524Y-121647524D01*
X176229555Y-121633548D01*
X176248991Y-121623160D01*
X176270072Y-121616764D01*
X176298140Y-121614000D01*
X176761860Y-121614000D01*
X176789928Y-121616764D01*
G37*
G36*
X181869928Y-121616764D02*
G01*
X181891009Y-121623160D01*
X181910445Y-121633548D01*
X181927476Y-121647524D01*
X181941452Y-121664555D01*
X181951840Y-121683991D01*
X181958236Y-121705072D01*
X181961000Y-121733140D01*
X181961000Y-123071860D01*
X181958236Y-123099928D01*
X181951840Y-123121009D01*
X181941452Y-123140445D01*
X181927476Y-123157476D01*
X181910445Y-123171452D01*
X181891009Y-123181840D01*
X181869928Y-123188236D01*
X181841860Y-123191000D01*
X181378140Y-123191000D01*
X181350072Y-123188236D01*
X181328991Y-123181840D01*
X181309555Y-123171452D01*
X181292524Y-123157476D01*
X181278548Y-123140445D01*
X181268160Y-123121009D01*
X181261764Y-123099928D01*
X181259000Y-123071860D01*
X181259000Y-121733140D01*
X181261764Y-121705072D01*
X181268160Y-121683991D01*
X181278548Y-121664555D01*
X181292524Y-121647524D01*
X181309555Y-121633548D01*
X181328991Y-121623160D01*
X181350072Y-121616764D01*
X181378140Y-121614000D01*
X181841860Y-121614000D01*
X181869928Y-121616764D01*
G37*
G36*
X183139928Y-121616764D02*
G01*
X183161009Y-121623160D01*
X183180445Y-121633548D01*
X183197476Y-121647524D01*
X183211452Y-121664555D01*
X183221840Y-121683991D01*
X183228236Y-121705072D01*
X183231000Y-121733140D01*
X183231000Y-123071860D01*
X183228236Y-123099928D01*
X183221840Y-123121009D01*
X183211452Y-123140445D01*
X183197476Y-123157476D01*
X183180445Y-123171452D01*
X183161009Y-123181840D01*
X183139928Y-123188236D01*
X183111860Y-123191000D01*
X182648140Y-123191000D01*
X182620072Y-123188236D01*
X182598991Y-123181840D01*
X182579555Y-123171452D01*
X182562524Y-123157476D01*
X182548548Y-123140445D01*
X182538160Y-123121009D01*
X182531764Y-123099928D01*
X182529000Y-123071860D01*
X182529000Y-121733140D01*
X182531764Y-121705072D01*
X182538160Y-121683991D01*
X182548548Y-121664555D01*
X182562524Y-121647524D01*
X182579555Y-121633548D01*
X182598991Y-121623160D01*
X182620072Y-121616764D01*
X182648140Y-121614000D01*
X183111860Y-121614000D01*
X183139928Y-121616764D01*
G37*
G36*
X175519928Y-121616764D02*
G01*
X175541009Y-121623160D01*
X175560445Y-121633548D01*
X175577476Y-121647524D01*
X175591452Y-121664555D01*
X175601840Y-121683991D01*
X175608236Y-121705072D01*
X175611000Y-121733140D01*
X175611000Y-123071860D01*
X175608236Y-123099928D01*
X175601840Y-123121009D01*
X175591452Y-123140445D01*
X175577476Y-123157476D01*
X175560445Y-123171452D01*
X175541009Y-123181840D01*
X175519928Y-123188236D01*
X175491860Y-123191000D01*
X175028140Y-123191000D01*
X175000072Y-123188236D01*
X174978991Y-123181840D01*
X174959555Y-123171452D01*
X174942524Y-123157476D01*
X174928548Y-123140445D01*
X174918160Y-123121009D01*
X174911764Y-123099928D01*
X174909000Y-123071860D01*
X174909000Y-121733140D01*
X174911764Y-121705072D01*
X174918160Y-121683991D01*
X174928548Y-121664555D01*
X174942524Y-121647524D01*
X174959555Y-121633548D01*
X174978991Y-121623160D01*
X175000072Y-121616764D01*
X175028140Y-121614000D01*
X175491860Y-121614000D01*
X175519928Y-121616764D01*
G37*
G36*
X174249928Y-121616764D02*
G01*
X174271009Y-121623160D01*
X174290445Y-121633548D01*
X174307476Y-121647524D01*
X174321452Y-121664555D01*
X174331840Y-121683991D01*
X174338236Y-121705072D01*
X174341000Y-121733140D01*
X174341000Y-123071860D01*
X174338236Y-123099928D01*
X174331840Y-123121009D01*
X174321452Y-123140445D01*
X174307476Y-123157476D01*
X174290445Y-123171452D01*
X174271009Y-123181840D01*
X174249928Y-123188236D01*
X174221860Y-123191000D01*
X173758140Y-123191000D01*
X173730072Y-123188236D01*
X173708991Y-123181840D01*
X173689555Y-123171452D01*
X173672524Y-123157476D01*
X173658548Y-123140445D01*
X173648160Y-123121009D01*
X173641764Y-123099928D01*
X173639000Y-123071860D01*
X173639000Y-121733140D01*
X173641764Y-121705072D01*
X173648160Y-121683991D01*
X173658548Y-121664555D01*
X173672524Y-121647524D01*
X173689555Y-121633548D01*
X173708991Y-121623160D01*
X173730072Y-121616764D01*
X173758140Y-121614000D01*
X174221860Y-121614000D01*
X174249928Y-121616764D01*
G37*
G36*
X184409928Y-121616764D02*
G01*
X184431009Y-121623160D01*
X184450445Y-121633548D01*
X184467476Y-121647524D01*
X184481452Y-121664555D01*
X184491840Y-121683991D01*
X184498236Y-121705072D01*
X184501000Y-121733140D01*
X184501000Y-123071860D01*
X184498236Y-123099928D01*
X184491840Y-123121009D01*
X184481452Y-123140445D01*
X184467476Y-123157476D01*
X184450445Y-123171452D01*
X184431009Y-123181840D01*
X184409928Y-123188236D01*
X184381860Y-123191000D01*
X183918140Y-123191000D01*
X183890072Y-123188236D01*
X183868991Y-123181840D01*
X183849555Y-123171452D01*
X183832524Y-123157476D01*
X183818548Y-123140445D01*
X183808160Y-123121009D01*
X183801764Y-123099928D01*
X183799000Y-123071860D01*
X183799000Y-121733140D01*
X183801764Y-121705072D01*
X183808160Y-121683991D01*
X183818548Y-121664555D01*
X183832524Y-121647524D01*
X183849555Y-121633548D01*
X183868991Y-121623160D01*
X183890072Y-121616764D01*
X183918140Y-121614000D01*
X184381860Y-121614000D01*
X184409928Y-121616764D01*
G37*
G36*
X194423512Y-121023927D02*
G01*
X194572812Y-121053624D01*
X194736784Y-121121544D01*
X194884354Y-121220147D01*
X195009853Y-121345646D01*
X195108456Y-121493216D01*
X195176376Y-121657188D01*
X195211000Y-121831259D01*
X195211000Y-122008741D01*
X195176376Y-122182812D01*
X195108456Y-122346784D01*
X195009853Y-122494354D01*
X194884354Y-122619853D01*
X194736784Y-122718456D01*
X194572812Y-122786376D01*
X194423512Y-122816073D01*
X194398742Y-122821000D01*
X194221258Y-122821000D01*
X194196488Y-122816073D01*
X194047188Y-122786376D01*
X193883216Y-122718456D01*
X193735646Y-122619853D01*
X193610147Y-122494354D01*
X193511544Y-122346784D01*
X193443624Y-122182812D01*
X193409000Y-122008741D01*
X193409000Y-121831259D01*
X193443624Y-121657188D01*
X193511544Y-121493216D01*
X193610147Y-121345646D01*
X193735646Y-121220147D01*
X193883216Y-121121544D01*
X194047188Y-121053624D01*
X194196488Y-121023927D01*
X194221258Y-121019000D01*
X194398742Y-121019000D01*
X194423512Y-121023927D01*
G37*
G36*
X199503512Y-121023927D02*
G01*
X199652812Y-121053624D01*
X199816784Y-121121544D01*
X199964354Y-121220147D01*
X200089853Y-121345646D01*
X200188456Y-121493216D01*
X200256376Y-121657188D01*
X200291000Y-121831259D01*
X200291000Y-122008741D01*
X200256376Y-122182812D01*
X200188456Y-122346784D01*
X200089853Y-122494354D01*
X199964354Y-122619853D01*
X199816784Y-122718456D01*
X199652812Y-122786376D01*
X199503512Y-122816073D01*
X199478742Y-122821000D01*
X199301258Y-122821000D01*
X199276488Y-122816073D01*
X199127188Y-122786376D01*
X198963216Y-122718456D01*
X198815646Y-122619853D01*
X198690147Y-122494354D01*
X198591544Y-122346784D01*
X198523624Y-122182812D01*
X198489000Y-122008741D01*
X198489000Y-121831259D01*
X198523624Y-121657188D01*
X198591544Y-121493216D01*
X198690147Y-121345646D01*
X198815646Y-121220147D01*
X198963216Y-121121544D01*
X199127188Y-121053624D01*
X199276488Y-121023927D01*
X199301258Y-121019000D01*
X199478742Y-121019000D01*
X199503512Y-121023927D01*
G37*
G36*
X202043512Y-121023927D02*
G01*
X202192812Y-121053624D01*
X202356784Y-121121544D01*
X202504354Y-121220147D01*
X202629853Y-121345646D01*
X202728456Y-121493216D01*
X202796376Y-121657188D01*
X202831000Y-121831259D01*
X202831000Y-122008741D01*
X202796376Y-122182812D01*
X202728456Y-122346784D01*
X202629853Y-122494354D01*
X202504354Y-122619853D01*
X202356784Y-122718456D01*
X202192812Y-122786376D01*
X202043512Y-122816073D01*
X202018742Y-122821000D01*
X201841258Y-122821000D01*
X201816488Y-122816073D01*
X201667188Y-122786376D01*
X201503216Y-122718456D01*
X201355646Y-122619853D01*
X201230147Y-122494354D01*
X201131544Y-122346784D01*
X201063624Y-122182812D01*
X201029000Y-122008741D01*
X201029000Y-121831259D01*
X201063624Y-121657188D01*
X201131544Y-121493216D01*
X201230147Y-121345646D01*
X201355646Y-121220147D01*
X201503216Y-121121544D01*
X201667188Y-121053624D01*
X201816488Y-121023927D01*
X201841258Y-121019000D01*
X202018742Y-121019000D01*
X202043512Y-121023927D01*
G37*
G36*
X163943512Y-121023927D02*
G01*
X164092812Y-121053624D01*
X164256784Y-121121544D01*
X164404354Y-121220147D01*
X164529853Y-121345646D01*
X164628456Y-121493216D01*
X164696376Y-121657188D01*
X164731000Y-121831259D01*
X164731000Y-122008741D01*
X164696376Y-122182812D01*
X164628456Y-122346784D01*
X164529853Y-122494354D01*
X164404354Y-122619853D01*
X164256784Y-122718456D01*
X164092812Y-122786376D01*
X163943512Y-122816073D01*
X163918742Y-122821000D01*
X163741258Y-122821000D01*
X163716488Y-122816073D01*
X163567188Y-122786376D01*
X163403216Y-122718456D01*
X163255646Y-122619853D01*
X163130147Y-122494354D01*
X163031544Y-122346784D01*
X162963624Y-122182812D01*
X162929000Y-122008741D01*
X162929000Y-121831259D01*
X162963624Y-121657188D01*
X163031544Y-121493216D01*
X163130147Y-121345646D01*
X163255646Y-121220147D01*
X163403216Y-121121544D01*
X163567188Y-121053624D01*
X163716488Y-121023927D01*
X163741258Y-121019000D01*
X163918742Y-121019000D01*
X163943512Y-121023927D01*
G37*
G36*
X172929928Y-120301764D02*
G01*
X172951009Y-120308160D01*
X172970445Y-120318548D01*
X172987476Y-120332524D01*
X173001452Y-120349555D01*
X173011840Y-120368991D01*
X173018236Y-120390072D01*
X173021000Y-120418140D01*
X173021000Y-120881860D01*
X173018236Y-120909928D01*
X173011840Y-120931009D01*
X173001452Y-120950445D01*
X172987476Y-120967476D01*
X172970445Y-120981452D01*
X172951009Y-120991840D01*
X172929928Y-120998236D01*
X172901860Y-121001000D01*
X171563140Y-121001000D01*
X171535072Y-120998236D01*
X171513991Y-120991840D01*
X171494555Y-120981452D01*
X171477524Y-120967476D01*
X171463548Y-120950445D01*
X171453160Y-120931009D01*
X171446764Y-120909928D01*
X171444000Y-120881860D01*
X171444000Y-120418140D01*
X171446764Y-120390072D01*
X171453160Y-120368991D01*
X171463548Y-120349555D01*
X171477524Y-120332524D01*
X171494555Y-120318548D01*
X171513991Y-120308160D01*
X171535072Y-120301764D01*
X171563140Y-120299000D01*
X172901860Y-120299000D01*
X172929928Y-120301764D01*
G37*
G36*
X186604928Y-120301764D02*
G01*
X186626009Y-120308160D01*
X186645445Y-120318548D01*
X186662476Y-120332524D01*
X186676452Y-120349555D01*
X186686840Y-120368991D01*
X186693236Y-120390072D01*
X186696000Y-120418140D01*
X186696000Y-120881860D01*
X186693236Y-120909928D01*
X186686840Y-120931009D01*
X186676452Y-120950445D01*
X186662476Y-120967476D01*
X186645445Y-120981452D01*
X186626009Y-120991840D01*
X186604928Y-120998236D01*
X186576860Y-121001000D01*
X185238140Y-121001000D01*
X185210072Y-120998236D01*
X185188991Y-120991840D01*
X185169555Y-120981452D01*
X185152524Y-120967476D01*
X185138548Y-120950445D01*
X185128160Y-120931009D01*
X185121764Y-120909928D01*
X185119000Y-120881860D01*
X185119000Y-120418140D01*
X185121764Y-120390072D01*
X185128160Y-120368991D01*
X185138548Y-120349555D01*
X185152524Y-120332524D01*
X185169555Y-120318548D01*
X185188991Y-120308160D01*
X185210072Y-120301764D01*
X185238140Y-120299000D01*
X186576860Y-120299000D01*
X186604928Y-120301764D01*
G37*
G36*
X215841000Y-120661000D02*
G01*
X214239000Y-120661000D01*
X214239000Y-115559000D01*
X215841000Y-115559000D01*
X215841000Y-120661000D01*
G37*
G36*
X209941000Y-120661000D02*
G01*
X208339000Y-120661000D01*
X208339000Y-115559000D01*
X209941000Y-115559000D01*
X209941000Y-120661000D01*
G37*
G36*
X199503512Y-118483927D02*
G01*
X199652812Y-118513624D01*
X199816784Y-118581544D01*
X199964354Y-118680147D01*
X200089853Y-118805646D01*
X200188456Y-118953216D01*
X200256376Y-119117188D01*
X200291000Y-119291259D01*
X200291000Y-119468741D01*
X200256376Y-119642812D01*
X200188456Y-119806784D01*
X200089853Y-119954354D01*
X199964354Y-120079853D01*
X199816784Y-120178456D01*
X199652812Y-120246376D01*
X199503512Y-120276073D01*
X199478742Y-120281000D01*
X199301258Y-120281000D01*
X199276488Y-120276073D01*
X199127188Y-120246376D01*
X198963216Y-120178456D01*
X198815646Y-120079853D01*
X198690147Y-119954354D01*
X198591544Y-119806784D01*
X198523624Y-119642812D01*
X198489000Y-119468741D01*
X198489000Y-119291259D01*
X198523624Y-119117188D01*
X198591544Y-118953216D01*
X198690147Y-118805646D01*
X198815646Y-118680147D01*
X198963216Y-118581544D01*
X199127188Y-118513624D01*
X199276488Y-118483927D01*
X199301258Y-118479000D01*
X199478742Y-118479000D01*
X199503512Y-118483927D01*
G37*
G36*
X194423512Y-118483927D02*
G01*
X194572812Y-118513624D01*
X194736784Y-118581544D01*
X194884354Y-118680147D01*
X195009853Y-118805646D01*
X195108456Y-118953216D01*
X195176376Y-119117188D01*
X195211000Y-119291259D01*
X195211000Y-119468741D01*
X195176376Y-119642812D01*
X195108456Y-119806784D01*
X195009853Y-119954354D01*
X194884354Y-120079853D01*
X194736784Y-120178456D01*
X194572812Y-120246376D01*
X194423512Y-120276073D01*
X194398742Y-120281000D01*
X194221258Y-120281000D01*
X194196488Y-120276073D01*
X194047188Y-120246376D01*
X193883216Y-120178456D01*
X193735646Y-120079853D01*
X193610147Y-119954354D01*
X193511544Y-119806784D01*
X193443624Y-119642812D01*
X193409000Y-119468741D01*
X193409000Y-119291259D01*
X193443624Y-119117188D01*
X193511544Y-118953216D01*
X193610147Y-118805646D01*
X193735646Y-118680147D01*
X193883216Y-118581544D01*
X194047188Y-118513624D01*
X194196488Y-118483927D01*
X194221258Y-118479000D01*
X194398742Y-118479000D01*
X194423512Y-118483927D01*
G37*
G36*
X163943512Y-118483927D02*
G01*
X164092812Y-118513624D01*
X164256784Y-118581544D01*
X164404354Y-118680147D01*
X164529853Y-118805646D01*
X164628456Y-118953216D01*
X164696376Y-119117188D01*
X164731000Y-119291259D01*
X164731000Y-119468741D01*
X164696376Y-119642812D01*
X164628456Y-119806784D01*
X164529853Y-119954354D01*
X164404354Y-120079853D01*
X164256784Y-120178456D01*
X164092812Y-120246376D01*
X163943512Y-120276073D01*
X163918742Y-120281000D01*
X163741258Y-120281000D01*
X163716488Y-120276073D01*
X163567188Y-120246376D01*
X163403216Y-120178456D01*
X163255646Y-120079853D01*
X163130147Y-119954354D01*
X163031544Y-119806784D01*
X162963624Y-119642812D01*
X162929000Y-119468741D01*
X162929000Y-119291259D01*
X162963624Y-119117188D01*
X163031544Y-118953216D01*
X163130147Y-118805646D01*
X163255646Y-118680147D01*
X163403216Y-118581544D01*
X163567188Y-118513624D01*
X163716488Y-118483927D01*
X163741258Y-118479000D01*
X163918742Y-118479000D01*
X163943512Y-118483927D01*
G37*
G36*
X202043512Y-118483927D02*
G01*
X202192812Y-118513624D01*
X202356784Y-118581544D01*
X202504354Y-118680147D01*
X202629853Y-118805646D01*
X202728456Y-118953216D01*
X202796376Y-119117188D01*
X202831000Y-119291259D01*
X202831000Y-119468741D01*
X202796376Y-119642812D01*
X202728456Y-119806784D01*
X202629853Y-119954354D01*
X202504354Y-120079853D01*
X202356784Y-120178456D01*
X202192812Y-120246376D01*
X202043512Y-120276073D01*
X202018742Y-120281000D01*
X201841258Y-120281000D01*
X201816488Y-120276073D01*
X201667188Y-120246376D01*
X201503216Y-120178456D01*
X201355646Y-120079853D01*
X201230147Y-119954354D01*
X201131544Y-119806784D01*
X201063624Y-119642812D01*
X201029000Y-119468741D01*
X201029000Y-119291259D01*
X201063624Y-119117188D01*
X201131544Y-118953216D01*
X201230147Y-118805646D01*
X201355646Y-118680147D01*
X201503216Y-118581544D01*
X201667188Y-118513624D01*
X201816488Y-118483927D01*
X201841258Y-118479000D01*
X202018742Y-118479000D01*
X202043512Y-118483927D01*
G37*
G36*
X158863512Y-118483927D02*
G01*
X159012812Y-118513624D01*
X159176784Y-118581544D01*
X159324354Y-118680147D01*
X159449853Y-118805646D01*
X159548456Y-118953216D01*
X159616376Y-119117188D01*
X159651000Y-119291259D01*
X159651000Y-119468741D01*
X159616376Y-119642812D01*
X159548456Y-119806784D01*
X159449853Y-119954354D01*
X159324354Y-120079853D01*
X159176784Y-120178456D01*
X159012812Y-120246376D01*
X158863512Y-120276073D01*
X158838742Y-120281000D01*
X158661258Y-120281000D01*
X158636488Y-120276073D01*
X158487188Y-120246376D01*
X158323216Y-120178456D01*
X158175646Y-120079853D01*
X158050147Y-119954354D01*
X157951544Y-119806784D01*
X157883624Y-119642812D01*
X157849000Y-119468741D01*
X157849000Y-119291259D01*
X157883624Y-119117188D01*
X157951544Y-118953216D01*
X158050147Y-118805646D01*
X158175646Y-118680147D01*
X158323216Y-118581544D01*
X158487188Y-118513624D01*
X158636488Y-118483927D01*
X158661258Y-118479000D01*
X158838742Y-118479000D01*
X158863512Y-118483927D01*
G37*
G36*
X186604928Y-119031764D02*
G01*
X186626009Y-119038160D01*
X186645445Y-119048548D01*
X186662476Y-119062524D01*
X186676452Y-119079555D01*
X186686840Y-119098991D01*
X186693236Y-119120072D01*
X186696000Y-119148140D01*
X186696000Y-119611860D01*
X186693236Y-119639928D01*
X186686840Y-119661009D01*
X186676452Y-119680445D01*
X186662476Y-119697476D01*
X186645445Y-119711452D01*
X186626009Y-119721840D01*
X186604928Y-119728236D01*
X186576860Y-119731000D01*
X185238140Y-119731000D01*
X185210072Y-119728236D01*
X185188991Y-119721840D01*
X185169555Y-119711452D01*
X185152524Y-119697476D01*
X185138548Y-119680445D01*
X185128160Y-119661009D01*
X185121764Y-119639928D01*
X185119000Y-119611860D01*
X185119000Y-119148140D01*
X185121764Y-119120072D01*
X185128160Y-119098991D01*
X185138548Y-119079555D01*
X185152524Y-119062524D01*
X185169555Y-119048548D01*
X185188991Y-119038160D01*
X185210072Y-119031764D01*
X185238140Y-119029000D01*
X186576860Y-119029000D01*
X186604928Y-119031764D01*
G37*
G36*
X172929928Y-119031764D02*
G01*
X172951009Y-119038160D01*
X172970445Y-119048548D01*
X172987476Y-119062524D01*
X173001452Y-119079555D01*
X173011840Y-119098991D01*
X173018236Y-119120072D01*
X173021000Y-119148140D01*
X173021000Y-119611860D01*
X173018236Y-119639928D01*
X173011840Y-119661009D01*
X173001452Y-119680445D01*
X172987476Y-119697476D01*
X172970445Y-119711452D01*
X172951009Y-119721840D01*
X172929928Y-119728236D01*
X172901860Y-119731000D01*
X171563140Y-119731000D01*
X171535072Y-119728236D01*
X171513991Y-119721840D01*
X171494555Y-119711452D01*
X171477524Y-119697476D01*
X171463548Y-119680445D01*
X171453160Y-119661009D01*
X171446764Y-119639928D01*
X171444000Y-119611860D01*
X171444000Y-119148140D01*
X171446764Y-119120072D01*
X171453160Y-119098991D01*
X171463548Y-119079555D01*
X171477524Y-119062524D01*
X171494555Y-119048548D01*
X171513991Y-119038160D01*
X171535072Y-119031764D01*
X171563140Y-119029000D01*
X172901860Y-119029000D01*
X172929928Y-119031764D01*
G37*
G36*
X186604928Y-117761764D02*
G01*
X186626009Y-117768160D01*
X186645445Y-117778548D01*
X186662476Y-117792524D01*
X186676452Y-117809555D01*
X186686840Y-117828991D01*
X186693236Y-117850072D01*
X186696000Y-117878140D01*
X186696000Y-118341860D01*
X186693236Y-118369928D01*
X186686840Y-118391009D01*
X186676452Y-118410445D01*
X186662476Y-118427476D01*
X186645445Y-118441452D01*
X186626009Y-118451840D01*
X186604928Y-118458236D01*
X186576860Y-118461000D01*
X185238140Y-118461000D01*
X185210072Y-118458236D01*
X185188991Y-118451840D01*
X185169555Y-118441452D01*
X185152524Y-118427476D01*
X185138548Y-118410445D01*
X185128160Y-118391009D01*
X185121764Y-118369928D01*
X185119000Y-118341860D01*
X185119000Y-117878140D01*
X185121764Y-117850072D01*
X185128160Y-117828991D01*
X185138548Y-117809555D01*
X185152524Y-117792524D01*
X185169555Y-117778548D01*
X185188991Y-117768160D01*
X185210072Y-117761764D01*
X185238140Y-117759000D01*
X186576860Y-117759000D01*
X186604928Y-117761764D01*
G37*
G36*
X172929928Y-117761764D02*
G01*
X172951009Y-117768160D01*
X172970445Y-117778548D01*
X172987476Y-117792524D01*
X173001452Y-117809555D01*
X173011840Y-117828991D01*
X173018236Y-117850072D01*
X173021000Y-117878140D01*
X173021000Y-118341860D01*
X173018236Y-118369928D01*
X173011840Y-118391009D01*
X173001452Y-118410445D01*
X172987476Y-118427476D01*
X172970445Y-118441452D01*
X172951009Y-118451840D01*
X172929928Y-118458236D01*
X172901860Y-118461000D01*
X171563140Y-118461000D01*
X171535072Y-118458236D01*
X171513991Y-118451840D01*
X171494555Y-118441452D01*
X171477524Y-118427476D01*
X171463548Y-118410445D01*
X171453160Y-118391009D01*
X171446764Y-118369928D01*
X171444000Y-118341860D01*
X171444000Y-117878140D01*
X171446764Y-117850072D01*
X171453160Y-117828991D01*
X171463548Y-117809555D01*
X171477524Y-117792524D01*
X171494555Y-117778548D01*
X171513991Y-117768160D01*
X171535072Y-117761764D01*
X171563140Y-117759000D01*
X172901860Y-117759000D01*
X172929928Y-117761764D01*
G37*
G36*
X217549591Y-117143085D02*
G01*
X217583569Y-117153393D01*
X217614890Y-117170134D01*
X217642339Y-117192661D01*
X217664866Y-117220110D01*
X217681607Y-117251431D01*
X217691915Y-117285409D01*
X217696000Y-117326890D01*
X217696000Y-117928110D01*
X217691915Y-117969591D01*
X217681607Y-118003569D01*
X217664866Y-118034890D01*
X217642339Y-118062339D01*
X217614890Y-118084866D01*
X217583569Y-118101607D01*
X217549591Y-118111915D01*
X217508110Y-118116000D01*
X216831890Y-118116000D01*
X216790409Y-118111915D01*
X216756431Y-118101607D01*
X216725110Y-118084866D01*
X216697661Y-118062339D01*
X216675134Y-118034890D01*
X216658393Y-118003569D01*
X216648085Y-117969591D01*
X216644000Y-117928110D01*
X216644000Y-117326890D01*
X216648085Y-117285409D01*
X216658393Y-117251431D01*
X216675134Y-117220110D01*
X216697661Y-117192661D01*
X216725110Y-117170134D01*
X216756431Y-117153393D01*
X216790409Y-117143085D01*
X216831890Y-117139000D01*
X217508110Y-117139000D01*
X217549591Y-117143085D01*
G37*
G36*
X194423512Y-115943927D02*
G01*
X194572812Y-115973624D01*
X194736784Y-116041544D01*
X194884354Y-116140147D01*
X195009853Y-116265646D01*
X195108456Y-116413216D01*
X195176376Y-116577188D01*
X195211000Y-116751259D01*
X195211000Y-116928741D01*
X195176376Y-117102812D01*
X195108456Y-117266784D01*
X195009853Y-117414354D01*
X194884354Y-117539853D01*
X194736784Y-117638456D01*
X194572812Y-117706376D01*
X194423512Y-117736073D01*
X194398742Y-117741000D01*
X194221258Y-117741000D01*
X194196488Y-117736073D01*
X194047188Y-117706376D01*
X193883216Y-117638456D01*
X193735646Y-117539853D01*
X193610147Y-117414354D01*
X193511544Y-117266784D01*
X193443624Y-117102812D01*
X193409000Y-116928741D01*
X193409000Y-116751259D01*
X193443624Y-116577188D01*
X193511544Y-116413216D01*
X193610147Y-116265646D01*
X193735646Y-116140147D01*
X193883216Y-116041544D01*
X194047188Y-115973624D01*
X194196488Y-115943927D01*
X194221258Y-115939000D01*
X194398742Y-115939000D01*
X194423512Y-115943927D01*
G37*
G36*
X163943512Y-115943927D02*
G01*
X164092812Y-115973624D01*
X164256784Y-116041544D01*
X164404354Y-116140147D01*
X164529853Y-116265646D01*
X164628456Y-116413216D01*
X164696376Y-116577188D01*
X164731000Y-116751259D01*
X164731000Y-116928741D01*
X164696376Y-117102812D01*
X164628456Y-117266784D01*
X164529853Y-117414354D01*
X164404354Y-117539853D01*
X164256784Y-117638456D01*
X164092812Y-117706376D01*
X163943512Y-117736073D01*
X163918742Y-117741000D01*
X163741258Y-117741000D01*
X163716488Y-117736073D01*
X163567188Y-117706376D01*
X163403216Y-117638456D01*
X163255646Y-117539853D01*
X163130147Y-117414354D01*
X163031544Y-117266784D01*
X162963624Y-117102812D01*
X162929000Y-116928741D01*
X162929000Y-116751259D01*
X162963624Y-116577188D01*
X163031544Y-116413216D01*
X163130147Y-116265646D01*
X163255646Y-116140147D01*
X163403216Y-116041544D01*
X163567188Y-115973624D01*
X163716488Y-115943927D01*
X163741258Y-115939000D01*
X163918742Y-115939000D01*
X163943512Y-115943927D01*
G37*
G36*
X158863512Y-115943927D02*
G01*
X159012812Y-115973624D01*
X159176784Y-116041544D01*
X159324354Y-116140147D01*
X159449853Y-116265646D01*
X159548456Y-116413216D01*
X159616376Y-116577188D01*
X159651000Y-116751259D01*
X159651000Y-116928741D01*
X159616376Y-117102812D01*
X159548456Y-117266784D01*
X159449853Y-117414354D01*
X159324354Y-117539853D01*
X159176784Y-117638456D01*
X159012812Y-117706376D01*
X158863512Y-117736073D01*
X158838742Y-117741000D01*
X158661258Y-117741000D01*
X158636488Y-117736073D01*
X158487188Y-117706376D01*
X158323216Y-117638456D01*
X158175646Y-117539853D01*
X158050147Y-117414354D01*
X157951544Y-117266784D01*
X157883624Y-117102812D01*
X157849000Y-116928741D01*
X157849000Y-116751259D01*
X157883624Y-116577188D01*
X157951544Y-116413216D01*
X158050147Y-116265646D01*
X158175646Y-116140147D01*
X158323216Y-116041544D01*
X158487188Y-115973624D01*
X158636488Y-115943927D01*
X158661258Y-115939000D01*
X158838742Y-115939000D01*
X158863512Y-115943927D01*
G37*
G36*
X199503512Y-115943927D02*
G01*
X199652812Y-115973624D01*
X199816784Y-116041544D01*
X199964354Y-116140147D01*
X200089853Y-116265646D01*
X200188456Y-116413216D01*
X200256376Y-116577188D01*
X200291000Y-116751259D01*
X200291000Y-116928741D01*
X200256376Y-117102812D01*
X200188456Y-117266784D01*
X200089853Y-117414354D01*
X199964354Y-117539853D01*
X199816784Y-117638456D01*
X199652812Y-117706376D01*
X199503512Y-117736073D01*
X199478742Y-117741000D01*
X199301258Y-117741000D01*
X199276488Y-117736073D01*
X199127188Y-117706376D01*
X198963216Y-117638456D01*
X198815646Y-117539853D01*
X198690147Y-117414354D01*
X198591544Y-117266784D01*
X198523624Y-117102812D01*
X198489000Y-116928741D01*
X198489000Y-116751259D01*
X198523624Y-116577188D01*
X198591544Y-116413216D01*
X198690147Y-116265646D01*
X198815646Y-116140147D01*
X198963216Y-116041544D01*
X199127188Y-115973624D01*
X199276488Y-115943927D01*
X199301258Y-115939000D01*
X199478742Y-115939000D01*
X199503512Y-115943927D01*
G37*
G36*
X202043512Y-115943927D02*
G01*
X202192812Y-115973624D01*
X202356784Y-116041544D01*
X202504354Y-116140147D01*
X202629853Y-116265646D01*
X202728456Y-116413216D01*
X202796376Y-116577188D01*
X202831000Y-116751259D01*
X202831000Y-116928741D01*
X202796376Y-117102812D01*
X202728456Y-117266784D01*
X202629853Y-117414354D01*
X202504354Y-117539853D01*
X202356784Y-117638456D01*
X202192812Y-117706376D01*
X202043512Y-117736073D01*
X202018742Y-117741000D01*
X201841258Y-117741000D01*
X201816488Y-117736073D01*
X201667188Y-117706376D01*
X201503216Y-117638456D01*
X201355646Y-117539853D01*
X201230147Y-117414354D01*
X201131544Y-117266784D01*
X201063624Y-117102812D01*
X201029000Y-116928741D01*
X201029000Y-116751259D01*
X201063624Y-116577188D01*
X201131544Y-116413216D01*
X201230147Y-116265646D01*
X201355646Y-116140147D01*
X201503216Y-116041544D01*
X201667188Y-115973624D01*
X201816488Y-115943927D01*
X201841258Y-115939000D01*
X202018742Y-115939000D01*
X202043512Y-115943927D01*
G37*
G36*
X186604928Y-116491764D02*
G01*
X186626009Y-116498160D01*
X186645445Y-116508548D01*
X186662476Y-116522524D01*
X186676452Y-116539555D01*
X186686840Y-116558991D01*
X186693236Y-116580072D01*
X186696000Y-116608140D01*
X186696000Y-117071860D01*
X186693236Y-117099928D01*
X186686840Y-117121009D01*
X186676452Y-117140445D01*
X186662476Y-117157476D01*
X186645445Y-117171452D01*
X186626009Y-117181840D01*
X186604928Y-117188236D01*
X186576860Y-117191000D01*
X185238140Y-117191000D01*
X185210072Y-117188236D01*
X185188991Y-117181840D01*
X185169555Y-117171452D01*
X185152524Y-117157476D01*
X185138548Y-117140445D01*
X185128160Y-117121009D01*
X185121764Y-117099928D01*
X185119000Y-117071860D01*
X185119000Y-116608140D01*
X185121764Y-116580072D01*
X185128160Y-116558991D01*
X185138548Y-116539555D01*
X185152524Y-116522524D01*
X185169555Y-116508548D01*
X185188991Y-116498160D01*
X185210072Y-116491764D01*
X185238140Y-116489000D01*
X186576860Y-116489000D01*
X186604928Y-116491764D01*
G37*
G36*
X172929928Y-116491764D02*
G01*
X172951009Y-116498160D01*
X172970445Y-116508548D01*
X172987476Y-116522524D01*
X173001452Y-116539555D01*
X173011840Y-116558991D01*
X173018236Y-116580072D01*
X173021000Y-116608140D01*
X173021000Y-117071860D01*
X173018236Y-117099928D01*
X173011840Y-117121009D01*
X173001452Y-117140445D01*
X172987476Y-117157476D01*
X172970445Y-117171452D01*
X172951009Y-117181840D01*
X172929928Y-117188236D01*
X172901860Y-117191000D01*
X171563140Y-117191000D01*
X171535072Y-117188236D01*
X171513991Y-117181840D01*
X171494555Y-117171452D01*
X171477524Y-117157476D01*
X171463548Y-117140445D01*
X171453160Y-117121009D01*
X171446764Y-117099928D01*
X171444000Y-117071860D01*
X171444000Y-116608140D01*
X171446764Y-116580072D01*
X171453160Y-116558991D01*
X171463548Y-116539555D01*
X171477524Y-116522524D01*
X171494555Y-116508548D01*
X171513991Y-116498160D01*
X171535072Y-116491764D01*
X171563140Y-116489000D01*
X172901860Y-116489000D01*
X172929928Y-116491764D01*
G37*
G36*
X217549591Y-115568085D02*
G01*
X217583569Y-115578393D01*
X217614890Y-115595134D01*
X217642339Y-115617661D01*
X217664866Y-115645110D01*
X217681607Y-115676431D01*
X217691915Y-115710409D01*
X217696000Y-115751890D01*
X217696000Y-116353110D01*
X217691915Y-116394591D01*
X217681607Y-116428569D01*
X217664866Y-116459890D01*
X217642339Y-116487339D01*
X217614890Y-116509866D01*
X217583569Y-116526607D01*
X217549591Y-116536915D01*
X217508110Y-116541000D01*
X216831890Y-116541000D01*
X216790409Y-116536915D01*
X216756431Y-116526607D01*
X216725110Y-116509866D01*
X216697661Y-116487339D01*
X216675134Y-116459890D01*
X216658393Y-116428569D01*
X216648085Y-116394591D01*
X216644000Y-116353110D01*
X216644000Y-115751890D01*
X216648085Y-115710409D01*
X216658393Y-115676431D01*
X216675134Y-115645110D01*
X216697661Y-115617661D01*
X216725110Y-115595134D01*
X216756431Y-115578393D01*
X216790409Y-115568085D01*
X216831890Y-115564000D01*
X217508110Y-115564000D01*
X217549591Y-115568085D01*
G37*
G36*
X172929928Y-115221764D02*
G01*
X172951009Y-115228160D01*
X172970445Y-115238548D01*
X172987476Y-115252524D01*
X173001452Y-115269555D01*
X173011840Y-115288991D01*
X173018236Y-115310072D01*
X173021000Y-115338140D01*
X173021000Y-115801860D01*
X173018236Y-115829928D01*
X173011840Y-115851009D01*
X173001452Y-115870445D01*
X172987476Y-115887476D01*
X172970445Y-115901452D01*
X172951009Y-115911840D01*
X172929928Y-115918236D01*
X172901860Y-115921000D01*
X171563140Y-115921000D01*
X171535072Y-115918236D01*
X171513991Y-115911840D01*
X171494555Y-115901452D01*
X171477524Y-115887476D01*
X171463548Y-115870445D01*
X171453160Y-115851009D01*
X171446764Y-115829928D01*
X171444000Y-115801860D01*
X171444000Y-115338140D01*
X171446764Y-115310072D01*
X171453160Y-115288991D01*
X171463548Y-115269555D01*
X171477524Y-115252524D01*
X171494555Y-115238548D01*
X171513991Y-115228160D01*
X171535072Y-115221764D01*
X171563140Y-115219000D01*
X172901860Y-115219000D01*
X172929928Y-115221764D01*
G37*
G36*
X186604928Y-115221764D02*
G01*
X186626009Y-115228160D01*
X186645445Y-115238548D01*
X186662476Y-115252524D01*
X186676452Y-115269555D01*
X186686840Y-115288991D01*
X186693236Y-115310072D01*
X186696000Y-115338140D01*
X186696000Y-115801860D01*
X186693236Y-115829928D01*
X186686840Y-115851009D01*
X186676452Y-115870445D01*
X186662476Y-115887476D01*
X186645445Y-115901452D01*
X186626009Y-115911840D01*
X186604928Y-115918236D01*
X186576860Y-115921000D01*
X185238140Y-115921000D01*
X185210072Y-115918236D01*
X185188991Y-115911840D01*
X185169555Y-115901452D01*
X185152524Y-115887476D01*
X185138548Y-115870445D01*
X185128160Y-115851009D01*
X185121764Y-115829928D01*
X185119000Y-115801860D01*
X185119000Y-115338140D01*
X185121764Y-115310072D01*
X185128160Y-115288991D01*
X185138548Y-115269555D01*
X185152524Y-115252524D01*
X185169555Y-115238548D01*
X185188991Y-115228160D01*
X185210072Y-115221764D01*
X185238140Y-115219000D01*
X186576860Y-115219000D01*
X186604928Y-115221764D01*
G37*
G36*
X202043512Y-113403927D02*
G01*
X202192812Y-113433624D01*
X202356784Y-113501544D01*
X202504354Y-113600147D01*
X202629853Y-113725646D01*
X202728456Y-113873216D01*
X202796376Y-114037188D01*
X202831000Y-114211259D01*
X202831000Y-114388741D01*
X202796376Y-114562812D01*
X202728456Y-114726784D01*
X202629853Y-114874354D01*
X202504354Y-114999853D01*
X202356784Y-115098456D01*
X202192812Y-115166376D01*
X202043512Y-115196073D01*
X202018742Y-115201000D01*
X201841258Y-115201000D01*
X201816488Y-115196073D01*
X201667188Y-115166376D01*
X201503216Y-115098456D01*
X201355646Y-114999853D01*
X201230147Y-114874354D01*
X201131544Y-114726784D01*
X201063624Y-114562812D01*
X201029000Y-114388741D01*
X201029000Y-114211259D01*
X201063624Y-114037188D01*
X201131544Y-113873216D01*
X201230147Y-113725646D01*
X201355646Y-113600147D01*
X201503216Y-113501544D01*
X201667188Y-113433624D01*
X201816488Y-113403927D01*
X201841258Y-113399000D01*
X202018742Y-113399000D01*
X202043512Y-113403927D01*
G37*
G36*
X163943512Y-113403927D02*
G01*
X164092812Y-113433624D01*
X164256784Y-113501544D01*
X164404354Y-113600147D01*
X164529853Y-113725646D01*
X164628456Y-113873216D01*
X164696376Y-114037188D01*
X164731000Y-114211259D01*
X164731000Y-114388741D01*
X164696376Y-114562812D01*
X164628456Y-114726784D01*
X164529853Y-114874354D01*
X164404354Y-114999853D01*
X164256784Y-115098456D01*
X164092812Y-115166376D01*
X163943512Y-115196073D01*
X163918742Y-115201000D01*
X163741258Y-115201000D01*
X163716488Y-115196073D01*
X163567188Y-115166376D01*
X163403216Y-115098456D01*
X163255646Y-114999853D01*
X163130147Y-114874354D01*
X163031544Y-114726784D01*
X162963624Y-114562812D01*
X162929000Y-114388741D01*
X162929000Y-114211259D01*
X162963624Y-114037188D01*
X163031544Y-113873216D01*
X163130147Y-113725646D01*
X163255646Y-113600147D01*
X163403216Y-113501544D01*
X163567188Y-113433624D01*
X163716488Y-113403927D01*
X163741258Y-113399000D01*
X163918742Y-113399000D01*
X163943512Y-113403927D01*
G37*
G36*
X194423512Y-113403927D02*
G01*
X194572812Y-113433624D01*
X194736784Y-113501544D01*
X194884354Y-113600147D01*
X195009853Y-113725646D01*
X195108456Y-113873216D01*
X195176376Y-114037188D01*
X195211000Y-114211259D01*
X195211000Y-114388741D01*
X195176376Y-114562812D01*
X195108456Y-114726784D01*
X195009853Y-114874354D01*
X194884354Y-114999853D01*
X194736784Y-115098456D01*
X194572812Y-115166376D01*
X194423512Y-115196073D01*
X194398742Y-115201000D01*
X194221258Y-115201000D01*
X194196488Y-115196073D01*
X194047188Y-115166376D01*
X193883216Y-115098456D01*
X193735646Y-114999853D01*
X193610147Y-114874354D01*
X193511544Y-114726784D01*
X193443624Y-114562812D01*
X193409000Y-114388741D01*
X193409000Y-114211259D01*
X193443624Y-114037188D01*
X193511544Y-113873216D01*
X193610147Y-113725646D01*
X193735646Y-113600147D01*
X193883216Y-113501544D01*
X194047188Y-113433624D01*
X194196488Y-113403927D01*
X194221258Y-113399000D01*
X194398742Y-113399000D01*
X194423512Y-113403927D01*
G37*
G36*
X158863512Y-113403927D02*
G01*
X159012812Y-113433624D01*
X159176784Y-113501544D01*
X159324354Y-113600147D01*
X159449853Y-113725646D01*
X159548456Y-113873216D01*
X159616376Y-114037188D01*
X159651000Y-114211259D01*
X159651000Y-114388741D01*
X159616376Y-114562812D01*
X159548456Y-114726784D01*
X159449853Y-114874354D01*
X159324354Y-114999853D01*
X159176784Y-115098456D01*
X159012812Y-115166376D01*
X158863512Y-115196073D01*
X158838742Y-115201000D01*
X158661258Y-115201000D01*
X158636488Y-115196073D01*
X158487188Y-115166376D01*
X158323216Y-115098456D01*
X158175646Y-114999853D01*
X158050147Y-114874354D01*
X157951544Y-114726784D01*
X157883624Y-114562812D01*
X157849000Y-114388741D01*
X157849000Y-114211259D01*
X157883624Y-114037188D01*
X157951544Y-113873216D01*
X158050147Y-113725646D01*
X158175646Y-113600147D01*
X158323216Y-113501544D01*
X158487188Y-113433624D01*
X158636488Y-113403927D01*
X158661258Y-113399000D01*
X158838742Y-113399000D01*
X158863512Y-113403927D01*
G37*
G36*
X199503512Y-113403927D02*
G01*
X199652812Y-113433624D01*
X199816784Y-113501544D01*
X199964354Y-113600147D01*
X200089853Y-113725646D01*
X200188456Y-113873216D01*
X200256376Y-114037188D01*
X200291000Y-114211259D01*
X200291000Y-114388741D01*
X200256376Y-114562812D01*
X200188456Y-114726784D01*
X200089853Y-114874354D01*
X199964354Y-114999853D01*
X199816784Y-115098456D01*
X199652812Y-115166376D01*
X199503512Y-115196073D01*
X199478742Y-115201000D01*
X199301258Y-115201000D01*
X199276488Y-115196073D01*
X199127188Y-115166376D01*
X198963216Y-115098456D01*
X198815646Y-114999853D01*
X198690147Y-114874354D01*
X198591544Y-114726784D01*
X198523624Y-114562812D01*
X198489000Y-114388741D01*
X198489000Y-114211259D01*
X198523624Y-114037188D01*
X198591544Y-113873216D01*
X198690147Y-113725646D01*
X198815646Y-113600147D01*
X198963216Y-113501544D01*
X199127188Y-113433624D01*
X199276488Y-113403927D01*
X199301258Y-113399000D01*
X199478742Y-113399000D01*
X199503512Y-113403927D01*
G37*
G36*
X186604928Y-113951764D02*
G01*
X186626009Y-113958160D01*
X186645445Y-113968548D01*
X186662476Y-113982524D01*
X186676452Y-113999555D01*
X186686840Y-114018991D01*
X186693236Y-114040072D01*
X186696000Y-114068140D01*
X186696000Y-114531860D01*
X186693236Y-114559928D01*
X186686840Y-114581009D01*
X186676452Y-114600445D01*
X186662476Y-114617476D01*
X186645445Y-114631452D01*
X186626009Y-114641840D01*
X186604928Y-114648236D01*
X186576860Y-114651000D01*
X185238140Y-114651000D01*
X185210072Y-114648236D01*
X185188991Y-114641840D01*
X185169555Y-114631452D01*
X185152524Y-114617476D01*
X185138548Y-114600445D01*
X185128160Y-114581009D01*
X185121764Y-114559928D01*
X185119000Y-114531860D01*
X185119000Y-114068140D01*
X185121764Y-114040072D01*
X185128160Y-114018991D01*
X185138548Y-113999555D01*
X185152524Y-113982524D01*
X185169555Y-113968548D01*
X185188991Y-113958160D01*
X185210072Y-113951764D01*
X185238140Y-113949000D01*
X186576860Y-113949000D01*
X186604928Y-113951764D01*
G37*
G36*
X172929928Y-113951764D02*
G01*
X172951009Y-113958160D01*
X172970445Y-113968548D01*
X172987476Y-113982524D01*
X173001452Y-113999555D01*
X173011840Y-114018991D01*
X173018236Y-114040072D01*
X173021000Y-114068140D01*
X173021000Y-114531860D01*
X173018236Y-114559928D01*
X173011840Y-114581009D01*
X173001452Y-114600445D01*
X172987476Y-114617476D01*
X172970445Y-114631452D01*
X172951009Y-114641840D01*
X172929928Y-114648236D01*
X172901860Y-114651000D01*
X171563140Y-114651000D01*
X171535072Y-114648236D01*
X171513991Y-114641840D01*
X171494555Y-114631452D01*
X171477524Y-114617476D01*
X171463548Y-114600445D01*
X171453160Y-114581009D01*
X171446764Y-114559928D01*
X171444000Y-114531860D01*
X171444000Y-114068140D01*
X171446764Y-114040072D01*
X171453160Y-114018991D01*
X171463548Y-113999555D01*
X171477524Y-113982524D01*
X171494555Y-113968548D01*
X171513991Y-113958160D01*
X171535072Y-113951764D01*
X171563140Y-113949000D01*
X172901860Y-113949000D01*
X172929928Y-113951764D01*
G37*
G36*
X186604928Y-112681764D02*
G01*
X186626009Y-112688160D01*
X186645445Y-112698548D01*
X186662476Y-112712524D01*
X186676452Y-112729555D01*
X186686840Y-112748991D01*
X186693236Y-112770072D01*
X186696000Y-112798140D01*
X186696000Y-113261860D01*
X186693236Y-113289928D01*
X186686840Y-113311009D01*
X186676452Y-113330445D01*
X186662476Y-113347476D01*
X186645445Y-113361452D01*
X186626009Y-113371840D01*
X186604928Y-113378236D01*
X186576860Y-113381000D01*
X185238140Y-113381000D01*
X185210072Y-113378236D01*
X185188991Y-113371840D01*
X185169555Y-113361452D01*
X185152524Y-113347476D01*
X185138548Y-113330445D01*
X185128160Y-113311009D01*
X185121764Y-113289928D01*
X185119000Y-113261860D01*
X185119000Y-112798140D01*
X185121764Y-112770072D01*
X185128160Y-112748991D01*
X185138548Y-112729555D01*
X185152524Y-112712524D01*
X185169555Y-112698548D01*
X185188991Y-112688160D01*
X185210072Y-112681764D01*
X185238140Y-112679000D01*
X186576860Y-112679000D01*
X186604928Y-112681764D01*
G37*
G36*
X172929928Y-112681764D02*
G01*
X172951009Y-112688160D01*
X172970445Y-112698548D01*
X172987476Y-112712524D01*
X173001452Y-112729555D01*
X173011840Y-112748991D01*
X173018236Y-112770072D01*
X173021000Y-112798140D01*
X173021000Y-113261860D01*
X173018236Y-113289928D01*
X173011840Y-113311009D01*
X173001452Y-113330445D01*
X172987476Y-113347476D01*
X172970445Y-113361452D01*
X172951009Y-113371840D01*
X172929928Y-113378236D01*
X172901860Y-113381000D01*
X171563140Y-113381000D01*
X171535072Y-113378236D01*
X171513991Y-113371840D01*
X171494555Y-113361452D01*
X171477524Y-113347476D01*
X171463548Y-113330445D01*
X171453160Y-113311009D01*
X171446764Y-113289928D01*
X171444000Y-113261860D01*
X171444000Y-112798140D01*
X171446764Y-112770072D01*
X171453160Y-112748991D01*
X171463548Y-112729555D01*
X171477524Y-112712524D01*
X171494555Y-112698548D01*
X171513991Y-112688160D01*
X171535072Y-112681764D01*
X171563140Y-112679000D01*
X172901860Y-112679000D01*
X172929928Y-112681764D01*
G37*
G36*
X215841000Y-113041000D02*
G01*
X214239000Y-113041000D01*
X214239000Y-107939000D01*
X215841000Y-107939000D01*
X215841000Y-113041000D01*
G37*
G36*
X209941000Y-113041000D02*
G01*
X208339000Y-113041000D01*
X208339000Y-107939000D01*
X209941000Y-107939000D01*
X209941000Y-113041000D01*
G37*
G36*
X202043512Y-110863927D02*
G01*
X202192812Y-110893624D01*
X202356784Y-110961544D01*
X202504354Y-111060147D01*
X202629853Y-111185646D01*
X202728456Y-111333216D01*
X202796376Y-111497188D01*
X202831000Y-111671259D01*
X202831000Y-111848741D01*
X202796376Y-112022812D01*
X202728456Y-112186784D01*
X202629853Y-112334354D01*
X202504354Y-112459853D01*
X202356784Y-112558456D01*
X202192812Y-112626376D01*
X202043512Y-112656073D01*
X202018742Y-112661000D01*
X201841258Y-112661000D01*
X201816488Y-112656073D01*
X201667188Y-112626376D01*
X201503216Y-112558456D01*
X201355646Y-112459853D01*
X201230147Y-112334354D01*
X201131544Y-112186784D01*
X201063624Y-112022812D01*
X201029000Y-111848741D01*
X201029000Y-111671259D01*
X201063624Y-111497188D01*
X201131544Y-111333216D01*
X201230147Y-111185646D01*
X201355646Y-111060147D01*
X201503216Y-110961544D01*
X201667188Y-110893624D01*
X201816488Y-110863927D01*
X201841258Y-110859000D01*
X202018742Y-110859000D01*
X202043512Y-110863927D01*
G37*
G36*
X158863512Y-110863927D02*
G01*
X159012812Y-110893624D01*
X159176784Y-110961544D01*
X159324354Y-111060147D01*
X159449853Y-111185646D01*
X159548456Y-111333216D01*
X159616376Y-111497188D01*
X159651000Y-111671259D01*
X159651000Y-111848741D01*
X159616376Y-112022812D01*
X159548456Y-112186784D01*
X159449853Y-112334354D01*
X159324354Y-112459853D01*
X159176784Y-112558456D01*
X159012812Y-112626376D01*
X158863512Y-112656073D01*
X158838742Y-112661000D01*
X158661258Y-112661000D01*
X158636488Y-112656073D01*
X158487188Y-112626376D01*
X158323216Y-112558456D01*
X158175646Y-112459853D01*
X158050147Y-112334354D01*
X157951544Y-112186784D01*
X157883624Y-112022812D01*
X157849000Y-111848741D01*
X157849000Y-111671259D01*
X157883624Y-111497188D01*
X157951544Y-111333216D01*
X158050147Y-111185646D01*
X158175646Y-111060147D01*
X158323216Y-110961544D01*
X158487188Y-110893624D01*
X158636488Y-110863927D01*
X158661258Y-110859000D01*
X158838742Y-110859000D01*
X158863512Y-110863927D01*
G37*
G36*
X163943512Y-110863927D02*
G01*
X164092812Y-110893624D01*
X164256784Y-110961544D01*
X164404354Y-111060147D01*
X164529853Y-111185646D01*
X164628456Y-111333216D01*
X164696376Y-111497188D01*
X164731000Y-111671259D01*
X164731000Y-111848741D01*
X164696376Y-112022812D01*
X164628456Y-112186784D01*
X164529853Y-112334354D01*
X164404354Y-112459853D01*
X164256784Y-112558456D01*
X164092812Y-112626376D01*
X163943512Y-112656073D01*
X163918742Y-112661000D01*
X163741258Y-112661000D01*
X163716488Y-112656073D01*
X163567188Y-112626376D01*
X163403216Y-112558456D01*
X163255646Y-112459853D01*
X163130147Y-112334354D01*
X163031544Y-112186784D01*
X162963624Y-112022812D01*
X162929000Y-111848741D01*
X162929000Y-111671259D01*
X162963624Y-111497188D01*
X163031544Y-111333216D01*
X163130147Y-111185646D01*
X163255646Y-111060147D01*
X163403216Y-110961544D01*
X163567188Y-110893624D01*
X163716488Y-110863927D01*
X163741258Y-110859000D01*
X163918742Y-110859000D01*
X163943512Y-110863927D01*
G37*
G36*
X199503512Y-110863927D02*
G01*
X199652812Y-110893624D01*
X199816784Y-110961544D01*
X199964354Y-111060147D01*
X200089853Y-111185646D01*
X200188456Y-111333216D01*
X200256376Y-111497188D01*
X200291000Y-111671259D01*
X200291000Y-111848741D01*
X200256376Y-112022812D01*
X200188456Y-112186784D01*
X200089853Y-112334354D01*
X199964354Y-112459853D01*
X199816784Y-112558456D01*
X199652812Y-112626376D01*
X199503512Y-112656073D01*
X199478742Y-112661000D01*
X199301258Y-112661000D01*
X199276488Y-112656073D01*
X199127188Y-112626376D01*
X198963216Y-112558456D01*
X198815646Y-112459853D01*
X198690147Y-112334354D01*
X198591544Y-112186784D01*
X198523624Y-112022812D01*
X198489000Y-111848741D01*
X198489000Y-111671259D01*
X198523624Y-111497188D01*
X198591544Y-111333216D01*
X198690147Y-111185646D01*
X198815646Y-111060147D01*
X198963216Y-110961544D01*
X199127188Y-110893624D01*
X199276488Y-110863927D01*
X199301258Y-110859000D01*
X199478742Y-110859000D01*
X199503512Y-110863927D01*
G37*
G36*
X194423512Y-110863927D02*
G01*
X194572812Y-110893624D01*
X194736784Y-110961544D01*
X194884354Y-111060147D01*
X195009853Y-111185646D01*
X195108456Y-111333216D01*
X195176376Y-111497188D01*
X195211000Y-111671259D01*
X195211000Y-111848741D01*
X195176376Y-112022812D01*
X195108456Y-112186784D01*
X195009853Y-112334354D01*
X194884354Y-112459853D01*
X194736784Y-112558456D01*
X194572812Y-112626376D01*
X194423512Y-112656073D01*
X194398742Y-112661000D01*
X194221258Y-112661000D01*
X194196488Y-112656073D01*
X194047188Y-112626376D01*
X193883216Y-112558456D01*
X193735646Y-112459853D01*
X193610147Y-112334354D01*
X193511544Y-112186784D01*
X193443624Y-112022812D01*
X193409000Y-111848741D01*
X193409000Y-111671259D01*
X193443624Y-111497188D01*
X193511544Y-111333216D01*
X193610147Y-111185646D01*
X193735646Y-111060147D01*
X193883216Y-110961544D01*
X194047188Y-110893624D01*
X194196488Y-110863927D01*
X194221258Y-110859000D01*
X194398742Y-110859000D01*
X194423512Y-110863927D01*
G37*
G36*
X179329928Y-110491764D02*
G01*
X179351009Y-110498160D01*
X179370445Y-110508548D01*
X179387476Y-110522524D01*
X179401452Y-110539555D01*
X179411840Y-110558991D01*
X179418236Y-110580072D01*
X179421000Y-110608140D01*
X179421000Y-111946860D01*
X179418236Y-111974928D01*
X179411840Y-111996009D01*
X179401452Y-112015445D01*
X179387476Y-112032476D01*
X179370445Y-112046452D01*
X179351009Y-112056840D01*
X179329928Y-112063236D01*
X179301860Y-112066000D01*
X178838140Y-112066000D01*
X178810072Y-112063236D01*
X178788991Y-112056840D01*
X178769555Y-112046452D01*
X178752524Y-112032476D01*
X178738548Y-112015445D01*
X178728160Y-111996009D01*
X178721764Y-111974928D01*
X178719000Y-111946860D01*
X178719000Y-110608140D01*
X178721764Y-110580072D01*
X178728160Y-110558991D01*
X178738548Y-110539555D01*
X178752524Y-110522524D01*
X178769555Y-110508548D01*
X178788991Y-110498160D01*
X178810072Y-110491764D01*
X178838140Y-110489000D01*
X179301860Y-110489000D01*
X179329928Y-110491764D01*
G37*
G36*
X176789928Y-110491764D02*
G01*
X176811009Y-110498160D01*
X176830445Y-110508548D01*
X176847476Y-110522524D01*
X176861452Y-110539555D01*
X176871840Y-110558991D01*
X176878236Y-110580072D01*
X176881000Y-110608140D01*
X176881000Y-111946860D01*
X176878236Y-111974928D01*
X176871840Y-111996009D01*
X176861452Y-112015445D01*
X176847476Y-112032476D01*
X176830445Y-112046452D01*
X176811009Y-112056840D01*
X176789928Y-112063236D01*
X176761860Y-112066000D01*
X176298140Y-112066000D01*
X176270072Y-112063236D01*
X176248991Y-112056840D01*
X176229555Y-112046452D01*
X176212524Y-112032476D01*
X176198548Y-112015445D01*
X176188160Y-111996009D01*
X176181764Y-111974928D01*
X176179000Y-111946860D01*
X176179000Y-110608140D01*
X176181764Y-110580072D01*
X176188160Y-110558991D01*
X176198548Y-110539555D01*
X176212524Y-110522524D01*
X176229555Y-110508548D01*
X176248991Y-110498160D01*
X176270072Y-110491764D01*
X176298140Y-110489000D01*
X176761860Y-110489000D01*
X176789928Y-110491764D01*
G37*
G36*
X178059928Y-110491764D02*
G01*
X178081009Y-110498160D01*
X178100445Y-110508548D01*
X178117476Y-110522524D01*
X178131452Y-110539555D01*
X178141840Y-110558991D01*
X178148236Y-110580072D01*
X178151000Y-110608140D01*
X178151000Y-111946860D01*
X178148236Y-111974928D01*
X178141840Y-111996009D01*
X178131452Y-112015445D01*
X178117476Y-112032476D01*
X178100445Y-112046452D01*
X178081009Y-112056840D01*
X178059928Y-112063236D01*
X178031860Y-112066000D01*
X177568140Y-112066000D01*
X177540072Y-112063236D01*
X177518991Y-112056840D01*
X177499555Y-112046452D01*
X177482524Y-112032476D01*
X177468548Y-112015445D01*
X177458160Y-111996009D01*
X177451764Y-111974928D01*
X177449000Y-111946860D01*
X177449000Y-110608140D01*
X177451764Y-110580072D01*
X177458160Y-110558991D01*
X177468548Y-110539555D01*
X177482524Y-110522524D01*
X177499555Y-110508548D01*
X177518991Y-110498160D01*
X177540072Y-110491764D01*
X177568140Y-110489000D01*
X178031860Y-110489000D01*
X178059928Y-110491764D01*
G37*
G36*
X180599928Y-110491764D02*
G01*
X180621009Y-110498160D01*
X180640445Y-110508548D01*
X180657476Y-110522524D01*
X180671452Y-110539555D01*
X180681840Y-110558991D01*
X180688236Y-110580072D01*
X180691000Y-110608140D01*
X180691000Y-111946860D01*
X180688236Y-111974928D01*
X180681840Y-111996009D01*
X180671452Y-112015445D01*
X180657476Y-112032476D01*
X180640445Y-112046452D01*
X180621009Y-112056840D01*
X180599928Y-112063236D01*
X180571860Y-112066000D01*
X180108140Y-112066000D01*
X180080072Y-112063236D01*
X180058991Y-112056840D01*
X180039555Y-112046452D01*
X180022524Y-112032476D01*
X180008548Y-112015445D01*
X179998160Y-111996009D01*
X179991764Y-111974928D01*
X179989000Y-111946860D01*
X179989000Y-110608140D01*
X179991764Y-110580072D01*
X179998160Y-110558991D01*
X180008548Y-110539555D01*
X180022524Y-110522524D01*
X180039555Y-110508548D01*
X180058991Y-110498160D01*
X180080072Y-110491764D01*
X180108140Y-110489000D01*
X180571860Y-110489000D01*
X180599928Y-110491764D01*
G37*
G36*
X181869928Y-110491764D02*
G01*
X181891009Y-110498160D01*
X181910445Y-110508548D01*
X181927476Y-110522524D01*
X181941452Y-110539555D01*
X181951840Y-110558991D01*
X181958236Y-110580072D01*
X181961000Y-110608140D01*
X181961000Y-111946860D01*
X181958236Y-111974928D01*
X181951840Y-111996009D01*
X181941452Y-112015445D01*
X181927476Y-112032476D01*
X181910445Y-112046452D01*
X181891009Y-112056840D01*
X181869928Y-112063236D01*
X181841860Y-112066000D01*
X181378140Y-112066000D01*
X181350072Y-112063236D01*
X181328991Y-112056840D01*
X181309555Y-112046452D01*
X181292524Y-112032476D01*
X181278548Y-112015445D01*
X181268160Y-111996009D01*
X181261764Y-111974928D01*
X181259000Y-111946860D01*
X181259000Y-110608140D01*
X181261764Y-110580072D01*
X181268160Y-110558991D01*
X181278548Y-110539555D01*
X181292524Y-110522524D01*
X181309555Y-110508548D01*
X181328991Y-110498160D01*
X181350072Y-110491764D01*
X181378140Y-110489000D01*
X181841860Y-110489000D01*
X181869928Y-110491764D01*
G37*
G36*
X183139928Y-110491764D02*
G01*
X183161009Y-110498160D01*
X183180445Y-110508548D01*
X183197476Y-110522524D01*
X183211452Y-110539555D01*
X183221840Y-110558991D01*
X183228236Y-110580072D01*
X183231000Y-110608140D01*
X183231000Y-111946860D01*
X183228236Y-111974928D01*
X183221840Y-111996009D01*
X183211452Y-112015445D01*
X183197476Y-112032476D01*
X183180445Y-112046452D01*
X183161009Y-112056840D01*
X183139928Y-112063236D01*
X183111860Y-112066000D01*
X182648140Y-112066000D01*
X182620072Y-112063236D01*
X182598991Y-112056840D01*
X182579555Y-112046452D01*
X182562524Y-112032476D01*
X182548548Y-112015445D01*
X182538160Y-111996009D01*
X182531764Y-111974928D01*
X182529000Y-111946860D01*
X182529000Y-110608140D01*
X182531764Y-110580072D01*
X182538160Y-110558991D01*
X182548548Y-110539555D01*
X182562524Y-110522524D01*
X182579555Y-110508548D01*
X182598991Y-110498160D01*
X182620072Y-110491764D01*
X182648140Y-110489000D01*
X183111860Y-110489000D01*
X183139928Y-110491764D01*
G37*
G36*
X184409928Y-110491764D02*
G01*
X184431009Y-110498160D01*
X184450445Y-110508548D01*
X184467476Y-110522524D01*
X184481452Y-110539555D01*
X184491840Y-110558991D01*
X184498236Y-110580072D01*
X184501000Y-110608140D01*
X184501000Y-111946860D01*
X184498236Y-111974928D01*
X184491840Y-111996009D01*
X184481452Y-112015445D01*
X184467476Y-112032476D01*
X184450445Y-112046452D01*
X184431009Y-112056840D01*
X184409928Y-112063236D01*
X184381860Y-112066000D01*
X183918140Y-112066000D01*
X183890072Y-112063236D01*
X183868991Y-112056840D01*
X183849555Y-112046452D01*
X183832524Y-112032476D01*
X183818548Y-112015445D01*
X183808160Y-111996009D01*
X183801764Y-111974928D01*
X183799000Y-111946860D01*
X183799000Y-110608140D01*
X183801764Y-110580072D01*
X183808160Y-110558991D01*
X183818548Y-110539555D01*
X183832524Y-110522524D01*
X183849555Y-110508548D01*
X183868991Y-110498160D01*
X183890072Y-110491764D01*
X183918140Y-110489000D01*
X184381860Y-110489000D01*
X184409928Y-110491764D01*
G37*
G36*
X174249928Y-110491764D02*
G01*
X174271009Y-110498160D01*
X174290445Y-110508548D01*
X174307476Y-110522524D01*
X174321452Y-110539555D01*
X174331840Y-110558991D01*
X174338236Y-110580072D01*
X174341000Y-110608140D01*
X174341000Y-111946860D01*
X174338236Y-111974928D01*
X174331840Y-111996009D01*
X174321452Y-112015445D01*
X174307476Y-112032476D01*
X174290445Y-112046452D01*
X174271009Y-112056840D01*
X174249928Y-112063236D01*
X174221860Y-112066000D01*
X173758140Y-112066000D01*
X173730072Y-112063236D01*
X173708991Y-112056840D01*
X173689555Y-112046452D01*
X173672524Y-112032476D01*
X173658548Y-112015445D01*
X173648160Y-111996009D01*
X173641764Y-111974928D01*
X173639000Y-111946860D01*
X173639000Y-110608140D01*
X173641764Y-110580072D01*
X173648160Y-110558991D01*
X173658548Y-110539555D01*
X173672524Y-110522524D01*
X173689555Y-110508548D01*
X173708991Y-110498160D01*
X173730072Y-110491764D01*
X173758140Y-110489000D01*
X174221860Y-110489000D01*
X174249928Y-110491764D01*
G37*
G36*
X175519928Y-110491764D02*
G01*
X175541009Y-110498160D01*
X175560445Y-110508548D01*
X175577476Y-110522524D01*
X175591452Y-110539555D01*
X175601840Y-110558991D01*
X175608236Y-110580072D01*
X175611000Y-110608140D01*
X175611000Y-111946860D01*
X175608236Y-111974928D01*
X175601840Y-111996009D01*
X175591452Y-112015445D01*
X175577476Y-112032476D01*
X175560445Y-112046452D01*
X175541009Y-112056840D01*
X175519928Y-112063236D01*
X175491860Y-112066000D01*
X175028140Y-112066000D01*
X175000072Y-112063236D01*
X174978991Y-112056840D01*
X174959555Y-112046452D01*
X174942524Y-112032476D01*
X174928548Y-112015445D01*
X174918160Y-111996009D01*
X174911764Y-111974928D01*
X174909000Y-111946860D01*
X174909000Y-110608140D01*
X174911764Y-110580072D01*
X174918160Y-110558991D01*
X174928548Y-110539555D01*
X174942524Y-110522524D01*
X174959555Y-110508548D01*
X174978991Y-110498160D01*
X175000072Y-110491764D01*
X175028140Y-110489000D01*
X175491860Y-110489000D01*
X175519928Y-110491764D01*
G37*
G36*
X217549591Y-109523085D02*
G01*
X217583569Y-109533393D01*
X217614890Y-109550134D01*
X217642339Y-109572661D01*
X217664866Y-109600110D01*
X217681607Y-109631431D01*
X217691915Y-109665409D01*
X217696000Y-109706890D01*
X217696000Y-110308110D01*
X217691915Y-110349591D01*
X217681607Y-110383569D01*
X217664866Y-110414890D01*
X217642339Y-110442339D01*
X217614890Y-110464866D01*
X217583569Y-110481607D01*
X217549591Y-110491915D01*
X217508110Y-110496000D01*
X216831890Y-110496000D01*
X216790409Y-110491915D01*
X216756431Y-110481607D01*
X216725110Y-110464866D01*
X216697661Y-110442339D01*
X216675134Y-110414890D01*
X216658393Y-110383569D01*
X216648085Y-110349591D01*
X216644000Y-110308110D01*
X216644000Y-109706890D01*
X216648085Y-109665409D01*
X216658393Y-109631431D01*
X216675134Y-109600110D01*
X216697661Y-109572661D01*
X216725110Y-109550134D01*
X216756431Y-109533393D01*
X216790409Y-109523085D01*
X216831890Y-109519000D01*
X217508110Y-109519000D01*
X217549591Y-109523085D01*
G37*
G36*
X195211000Y-110121000D02*
G01*
X193409000Y-110121000D01*
X193409000Y-108319000D01*
X195211000Y-108319000D01*
X195211000Y-110121000D01*
G37*
G36*
X199503512Y-108323927D02*
G01*
X199652812Y-108353624D01*
X199816784Y-108421544D01*
X199964354Y-108520147D01*
X200089853Y-108645646D01*
X200188456Y-108793216D01*
X200256376Y-108957188D01*
X200291000Y-109131259D01*
X200291000Y-109308741D01*
X200256376Y-109482812D01*
X200188456Y-109646784D01*
X200089853Y-109794354D01*
X199964354Y-109919853D01*
X199816784Y-110018456D01*
X199652812Y-110086376D01*
X199503512Y-110116073D01*
X199478742Y-110121000D01*
X199301258Y-110121000D01*
X199276488Y-110116073D01*
X199127188Y-110086376D01*
X198963216Y-110018456D01*
X198815646Y-109919853D01*
X198690147Y-109794354D01*
X198591544Y-109646784D01*
X198523624Y-109482812D01*
X198489000Y-109308741D01*
X198489000Y-109131259D01*
X198523624Y-108957188D01*
X198591544Y-108793216D01*
X198690147Y-108645646D01*
X198815646Y-108520147D01*
X198963216Y-108421544D01*
X199127188Y-108353624D01*
X199276488Y-108323927D01*
X199301258Y-108319000D01*
X199478742Y-108319000D01*
X199503512Y-108323927D01*
G37*
G36*
X202043512Y-108323927D02*
G01*
X202192812Y-108353624D01*
X202356784Y-108421544D01*
X202504354Y-108520147D01*
X202629853Y-108645646D01*
X202728456Y-108793216D01*
X202796376Y-108957188D01*
X202831000Y-109131259D01*
X202831000Y-109308741D01*
X202796376Y-109482812D01*
X202728456Y-109646784D01*
X202629853Y-109794354D01*
X202504354Y-109919853D01*
X202356784Y-110018456D01*
X202192812Y-110086376D01*
X202043512Y-110116073D01*
X202018742Y-110121000D01*
X201841258Y-110121000D01*
X201816488Y-110116073D01*
X201667188Y-110086376D01*
X201503216Y-110018456D01*
X201355646Y-109919853D01*
X201230147Y-109794354D01*
X201131544Y-109646784D01*
X201063624Y-109482812D01*
X201029000Y-109308741D01*
X201029000Y-109131259D01*
X201063624Y-108957188D01*
X201131544Y-108793216D01*
X201230147Y-108645646D01*
X201355646Y-108520147D01*
X201503216Y-108421544D01*
X201667188Y-108353624D01*
X201816488Y-108323927D01*
X201841258Y-108319000D01*
X202018742Y-108319000D01*
X202043512Y-108323927D01*
G37*
G36*
X158863512Y-108323927D02*
G01*
X159012812Y-108353624D01*
X159176784Y-108421544D01*
X159324354Y-108520147D01*
X159449853Y-108645646D01*
X159548456Y-108793216D01*
X159616376Y-108957188D01*
X159651000Y-109131259D01*
X159651000Y-109308741D01*
X159616376Y-109482812D01*
X159548456Y-109646784D01*
X159449853Y-109794354D01*
X159324354Y-109919853D01*
X159176784Y-110018456D01*
X159012812Y-110086376D01*
X158863512Y-110116073D01*
X158838742Y-110121000D01*
X158661258Y-110121000D01*
X158636488Y-110116073D01*
X158487188Y-110086376D01*
X158323216Y-110018456D01*
X158175646Y-109919853D01*
X158050147Y-109794354D01*
X157951544Y-109646784D01*
X157883624Y-109482812D01*
X157849000Y-109308741D01*
X157849000Y-109131259D01*
X157883624Y-108957188D01*
X157951544Y-108793216D01*
X158050147Y-108645646D01*
X158175646Y-108520147D01*
X158323216Y-108421544D01*
X158487188Y-108353624D01*
X158636488Y-108323927D01*
X158661258Y-108319000D01*
X158838742Y-108319000D01*
X158863512Y-108323927D01*
G37*
G36*
X163943512Y-108323927D02*
G01*
X164092812Y-108353624D01*
X164256784Y-108421544D01*
X164404354Y-108520147D01*
X164529853Y-108645646D01*
X164628456Y-108793216D01*
X164696376Y-108957188D01*
X164731000Y-109131259D01*
X164731000Y-109308741D01*
X164696376Y-109482812D01*
X164628456Y-109646784D01*
X164529853Y-109794354D01*
X164404354Y-109919853D01*
X164256784Y-110018456D01*
X164092812Y-110086376D01*
X163943512Y-110116073D01*
X163918742Y-110121000D01*
X163741258Y-110121000D01*
X163716488Y-110116073D01*
X163567188Y-110086376D01*
X163403216Y-110018456D01*
X163255646Y-109919853D01*
X163130147Y-109794354D01*
X163031544Y-109646784D01*
X162963624Y-109482812D01*
X162929000Y-109308741D01*
X162929000Y-109131259D01*
X162963624Y-108957188D01*
X163031544Y-108793216D01*
X163130147Y-108645646D01*
X163255646Y-108520147D01*
X163403216Y-108421544D01*
X163567188Y-108353624D01*
X163716488Y-108323927D01*
X163741258Y-108319000D01*
X163918742Y-108319000D01*
X163943512Y-108323927D01*
G37*
G36*
X217549591Y-107948085D02*
G01*
X217583569Y-107958393D01*
X217614890Y-107975134D01*
X217642339Y-107997661D01*
X217664866Y-108025110D01*
X217681607Y-108056431D01*
X217691915Y-108090409D01*
X217696000Y-108131890D01*
X217696000Y-108733110D01*
X217691915Y-108774591D01*
X217681607Y-108808569D01*
X217664866Y-108839890D01*
X217642339Y-108867339D01*
X217614890Y-108889866D01*
X217583569Y-108906607D01*
X217549591Y-108916915D01*
X217508110Y-108921000D01*
X216831890Y-108921000D01*
X216790409Y-108916915D01*
X216756431Y-108906607D01*
X216725110Y-108889866D01*
X216697661Y-108867339D01*
X216675134Y-108839890D01*
X216658393Y-108808569D01*
X216648085Y-108774591D01*
X216644000Y-108733110D01*
X216644000Y-108131890D01*
X216648085Y-108090409D01*
X216658393Y-108056431D01*
X216675134Y-108025110D01*
X216697661Y-107997661D01*
X216725110Y-107975134D01*
X216756431Y-107958393D01*
X216790409Y-107948085D01*
X216831890Y-107944000D01*
X217508110Y-107944000D01*
X217549591Y-107948085D01*
G37*
G36*
X158863512Y-105783927D02*
G01*
X159012812Y-105813624D01*
X159176784Y-105881544D01*
X159324354Y-105980147D01*
X159449853Y-106105646D01*
X159548456Y-106253216D01*
X159616376Y-106417188D01*
X159651000Y-106591259D01*
X159651000Y-106768741D01*
X159616376Y-106942812D01*
X159548456Y-107106784D01*
X159449853Y-107254354D01*
X159324354Y-107379853D01*
X159176784Y-107478456D01*
X159012812Y-107546376D01*
X158863512Y-107576073D01*
X158838742Y-107581000D01*
X158661258Y-107581000D01*
X158636488Y-107576073D01*
X158487188Y-107546376D01*
X158323216Y-107478456D01*
X158175646Y-107379853D01*
X158050147Y-107254354D01*
X157951544Y-107106784D01*
X157883624Y-106942812D01*
X157849000Y-106768741D01*
X157849000Y-106591259D01*
X157883624Y-106417188D01*
X157951544Y-106253216D01*
X158050147Y-106105646D01*
X158175646Y-105980147D01*
X158323216Y-105881544D01*
X158487188Y-105813624D01*
X158636488Y-105783927D01*
X158661258Y-105779000D01*
X158838742Y-105779000D01*
X158863512Y-105783927D01*
G37*
G36*
X199503512Y-105783927D02*
G01*
X199652812Y-105813624D01*
X199816784Y-105881544D01*
X199964354Y-105980147D01*
X200089853Y-106105646D01*
X200188456Y-106253216D01*
X200256376Y-106417188D01*
X200291000Y-106591259D01*
X200291000Y-106768741D01*
X200256376Y-106942812D01*
X200188456Y-107106784D01*
X200089853Y-107254354D01*
X199964354Y-107379853D01*
X199816784Y-107478456D01*
X199652812Y-107546376D01*
X199503512Y-107576073D01*
X199478742Y-107581000D01*
X199301258Y-107581000D01*
X199276488Y-107576073D01*
X199127188Y-107546376D01*
X198963216Y-107478456D01*
X198815646Y-107379853D01*
X198690147Y-107254354D01*
X198591544Y-107106784D01*
X198523624Y-106942812D01*
X198489000Y-106768741D01*
X198489000Y-106591259D01*
X198523624Y-106417188D01*
X198591544Y-106253216D01*
X198690147Y-106105646D01*
X198815646Y-105980147D01*
X198963216Y-105881544D01*
X199127188Y-105813624D01*
X199276488Y-105783927D01*
X199301258Y-105779000D01*
X199478742Y-105779000D01*
X199503512Y-105783927D01*
G37*
G36*
X202043512Y-105783927D02*
G01*
X202192812Y-105813624D01*
X202356784Y-105881544D01*
X202504354Y-105980147D01*
X202629853Y-106105646D01*
X202728456Y-106253216D01*
X202796376Y-106417188D01*
X202831000Y-106591259D01*
X202831000Y-106768741D01*
X202796376Y-106942812D01*
X202728456Y-107106784D01*
X202629853Y-107254354D01*
X202504354Y-107379853D01*
X202356784Y-107478456D01*
X202192812Y-107546376D01*
X202043512Y-107576073D01*
X202018742Y-107581000D01*
X201841258Y-107581000D01*
X201816488Y-107576073D01*
X201667188Y-107546376D01*
X201503216Y-107478456D01*
X201355646Y-107379853D01*
X201230147Y-107254354D01*
X201131544Y-107106784D01*
X201063624Y-106942812D01*
X201029000Y-106768741D01*
X201029000Y-106591259D01*
X201063624Y-106417188D01*
X201131544Y-106253216D01*
X201230147Y-106105646D01*
X201355646Y-105980147D01*
X201503216Y-105881544D01*
X201667188Y-105813624D01*
X201816488Y-105783927D01*
X201841258Y-105779000D01*
X202018742Y-105779000D01*
X202043512Y-105783927D01*
G37*
G36*
X209941000Y-105421000D02*
G01*
X208339000Y-105421000D01*
X208339000Y-100319000D01*
X209941000Y-100319000D01*
X209941000Y-105421000D01*
G37*
G36*
X215841000Y-105421000D02*
G01*
X214239000Y-105421000D01*
X214239000Y-100319000D01*
X215841000Y-100319000D01*
X215841000Y-105421000D01*
G37*
G36*
X199503512Y-103243927D02*
G01*
X199652812Y-103273624D01*
X199816784Y-103341544D01*
X199964354Y-103440147D01*
X200089853Y-103565646D01*
X200188456Y-103713216D01*
X200256376Y-103877188D01*
X200291000Y-104051259D01*
X200291000Y-104228741D01*
X200256376Y-104402812D01*
X200188456Y-104566784D01*
X200089853Y-104714354D01*
X199964354Y-104839853D01*
X199816784Y-104938456D01*
X199652812Y-105006376D01*
X199503512Y-105036073D01*
X199478742Y-105041000D01*
X199301258Y-105041000D01*
X199276488Y-105036073D01*
X199127188Y-105006376D01*
X198963216Y-104938456D01*
X198815646Y-104839853D01*
X198690147Y-104714354D01*
X198591544Y-104566784D01*
X198523624Y-104402812D01*
X198489000Y-104228741D01*
X198489000Y-104051259D01*
X198523624Y-103877188D01*
X198591544Y-103713216D01*
X198690147Y-103565646D01*
X198815646Y-103440147D01*
X198963216Y-103341544D01*
X199127188Y-103273624D01*
X199276488Y-103243927D01*
X199301258Y-103239000D01*
X199478742Y-103239000D01*
X199503512Y-103243927D01*
G37*
G36*
X202043512Y-103243927D02*
G01*
X202192812Y-103273624D01*
X202356784Y-103341544D01*
X202504354Y-103440147D01*
X202629853Y-103565646D01*
X202728456Y-103713216D01*
X202796376Y-103877188D01*
X202831000Y-104051259D01*
X202831000Y-104228741D01*
X202796376Y-104402812D01*
X202728456Y-104566784D01*
X202629853Y-104714354D01*
X202504354Y-104839853D01*
X202356784Y-104938456D01*
X202192812Y-105006376D01*
X202043512Y-105036073D01*
X202018742Y-105041000D01*
X201841258Y-105041000D01*
X201816488Y-105036073D01*
X201667188Y-105006376D01*
X201503216Y-104938456D01*
X201355646Y-104839853D01*
X201230147Y-104714354D01*
X201131544Y-104566784D01*
X201063624Y-104402812D01*
X201029000Y-104228741D01*
X201029000Y-104051259D01*
X201063624Y-103877188D01*
X201131544Y-103713216D01*
X201230147Y-103565646D01*
X201355646Y-103440147D01*
X201503216Y-103341544D01*
X201667188Y-103273624D01*
X201816488Y-103243927D01*
X201841258Y-103239000D01*
X202018742Y-103239000D01*
X202043512Y-103243927D01*
G37*
G36*
X158863512Y-103243927D02*
G01*
X159012812Y-103273624D01*
X159176784Y-103341544D01*
X159324354Y-103440147D01*
X159449853Y-103565646D01*
X159548456Y-103713216D01*
X159616376Y-103877188D01*
X159651000Y-104051259D01*
X159651000Y-104228741D01*
X159616376Y-104402812D01*
X159548456Y-104566784D01*
X159449853Y-104714354D01*
X159324354Y-104839853D01*
X159176784Y-104938456D01*
X159012812Y-105006376D01*
X158863512Y-105036073D01*
X158838742Y-105041000D01*
X158661258Y-105041000D01*
X158636488Y-105036073D01*
X158487188Y-105006376D01*
X158323216Y-104938456D01*
X158175646Y-104839853D01*
X158050147Y-104714354D01*
X157951544Y-104566784D01*
X157883624Y-104402812D01*
X157849000Y-104228741D01*
X157849000Y-104051259D01*
X157883624Y-103877188D01*
X157951544Y-103713216D01*
X158050147Y-103565646D01*
X158175646Y-103440147D01*
X158323216Y-103341544D01*
X158487188Y-103273624D01*
X158636488Y-103243927D01*
X158661258Y-103239000D01*
X158838742Y-103239000D01*
X158863512Y-103243927D01*
G37*
G36*
X163943512Y-103243927D02*
G01*
X164092812Y-103273624D01*
X164256784Y-103341544D01*
X164404354Y-103440147D01*
X164529853Y-103565646D01*
X164628456Y-103713216D01*
X164696376Y-103877188D01*
X164731000Y-104051259D01*
X164731000Y-104228741D01*
X164696376Y-104402812D01*
X164628456Y-104566784D01*
X164529853Y-104714354D01*
X164404354Y-104839853D01*
X164256784Y-104938456D01*
X164092812Y-105006376D01*
X163943512Y-105036073D01*
X163918742Y-105041000D01*
X163741258Y-105041000D01*
X163716488Y-105036073D01*
X163567188Y-105006376D01*
X163403216Y-104938456D01*
X163255646Y-104839853D01*
X163130147Y-104714354D01*
X163031544Y-104566784D01*
X162963624Y-104402812D01*
X162929000Y-104228741D01*
X162929000Y-104051259D01*
X162963624Y-103877188D01*
X163031544Y-103713216D01*
X163130147Y-103565646D01*
X163255646Y-103440147D01*
X163403216Y-103341544D01*
X163567188Y-103273624D01*
X163716488Y-103243927D01*
X163741258Y-103239000D01*
X163918742Y-103239000D01*
X163943512Y-103243927D01*
G37*
G36*
X217549591Y-101903085D02*
G01*
X217583569Y-101913393D01*
X217614890Y-101930134D01*
X217642339Y-101952661D01*
X217664866Y-101980110D01*
X217681607Y-102011431D01*
X217691915Y-102045409D01*
X217696000Y-102086890D01*
X217696000Y-102688110D01*
X217691915Y-102729591D01*
X217681607Y-102763569D01*
X217664866Y-102794890D01*
X217642339Y-102822339D01*
X217614890Y-102844866D01*
X217583569Y-102861607D01*
X217549591Y-102871915D01*
X217508110Y-102876000D01*
X216831890Y-102876000D01*
X216790409Y-102871915D01*
X216756431Y-102861607D01*
X216725110Y-102844866D01*
X216697661Y-102822339D01*
X216675134Y-102794890D01*
X216658393Y-102763569D01*
X216648085Y-102729591D01*
X216644000Y-102688110D01*
X216644000Y-102086890D01*
X216648085Y-102045409D01*
X216658393Y-102011431D01*
X216675134Y-101980110D01*
X216697661Y-101952661D01*
X216725110Y-101930134D01*
X216756431Y-101913393D01*
X216790409Y-101903085D01*
X216831890Y-101899000D01*
X217508110Y-101899000D01*
X217549591Y-101903085D01*
G37*
G36*
X171563512Y-100703927D02*
G01*
X171712812Y-100733624D01*
X171876784Y-100801544D01*
X172024354Y-100900147D01*
X172149853Y-101025646D01*
X172248456Y-101173216D01*
X172316376Y-101337188D01*
X172351000Y-101511259D01*
X172351000Y-101688741D01*
X172316376Y-101862812D01*
X172248456Y-102026784D01*
X172149853Y-102174354D01*
X172024354Y-102299853D01*
X171876784Y-102398456D01*
X171712812Y-102466376D01*
X171563512Y-102496073D01*
X171538742Y-102501000D01*
X171361258Y-102501000D01*
X171336488Y-102496073D01*
X171187188Y-102466376D01*
X171023216Y-102398456D01*
X170875646Y-102299853D01*
X170750147Y-102174354D01*
X170651544Y-102026784D01*
X170583624Y-101862812D01*
X170549000Y-101688741D01*
X170549000Y-101511259D01*
X170583624Y-101337188D01*
X170651544Y-101173216D01*
X170750147Y-101025646D01*
X170875646Y-100900147D01*
X171023216Y-100801544D01*
X171187188Y-100733624D01*
X171336488Y-100703927D01*
X171361258Y-100699000D01*
X171538742Y-100699000D01*
X171563512Y-100703927D01*
G37*
G36*
X169811000Y-102501000D02*
G01*
X168009000Y-102501000D01*
X168009000Y-100699000D01*
X169811000Y-100699000D01*
X169811000Y-102501000D01*
G37*
G36*
X199503512Y-100703927D02*
G01*
X199652812Y-100733624D01*
X199816784Y-100801544D01*
X199964354Y-100900147D01*
X200089853Y-101025646D01*
X200188456Y-101173216D01*
X200256376Y-101337188D01*
X200291000Y-101511259D01*
X200291000Y-101688741D01*
X200256376Y-101862812D01*
X200188456Y-102026784D01*
X200089853Y-102174354D01*
X199964354Y-102299853D01*
X199816784Y-102398456D01*
X199652812Y-102466376D01*
X199503512Y-102496073D01*
X199478742Y-102501000D01*
X199301258Y-102501000D01*
X199276488Y-102496073D01*
X199127188Y-102466376D01*
X198963216Y-102398456D01*
X198815646Y-102299853D01*
X198690147Y-102174354D01*
X198591544Y-102026784D01*
X198523624Y-101862812D01*
X198489000Y-101688741D01*
X198489000Y-101511259D01*
X198523624Y-101337188D01*
X198591544Y-101173216D01*
X198690147Y-101025646D01*
X198815646Y-100900147D01*
X198963216Y-100801544D01*
X199127188Y-100733624D01*
X199276488Y-100703927D01*
X199301258Y-100699000D01*
X199478742Y-100699000D01*
X199503512Y-100703927D01*
G37*
G36*
X202043512Y-100703927D02*
G01*
X202192812Y-100733624D01*
X202356784Y-100801544D01*
X202504354Y-100900147D01*
X202629853Y-101025646D01*
X202728456Y-101173216D01*
X202796376Y-101337188D01*
X202831000Y-101511259D01*
X202831000Y-101688741D01*
X202796376Y-101862812D01*
X202728456Y-102026784D01*
X202629853Y-102174354D01*
X202504354Y-102299853D01*
X202356784Y-102398456D01*
X202192812Y-102466376D01*
X202043512Y-102496073D01*
X202018742Y-102501000D01*
X201841258Y-102501000D01*
X201816488Y-102496073D01*
X201667188Y-102466376D01*
X201503216Y-102398456D01*
X201355646Y-102299853D01*
X201230147Y-102174354D01*
X201131544Y-102026784D01*
X201063624Y-101862812D01*
X201029000Y-101688741D01*
X201029000Y-101511259D01*
X201063624Y-101337188D01*
X201131544Y-101173216D01*
X201230147Y-101025646D01*
X201355646Y-100900147D01*
X201503216Y-100801544D01*
X201667188Y-100733624D01*
X201816488Y-100703927D01*
X201841258Y-100699000D01*
X202018742Y-100699000D01*
X202043512Y-100703927D01*
G37*
G36*
X186803512Y-100703927D02*
G01*
X186952812Y-100733624D01*
X187116784Y-100801544D01*
X187264354Y-100900147D01*
X187389853Y-101025646D01*
X187488456Y-101173216D01*
X187556376Y-101337188D01*
X187591000Y-101511259D01*
X187591000Y-101688741D01*
X187556376Y-101862812D01*
X187488456Y-102026784D01*
X187389853Y-102174354D01*
X187264354Y-102299853D01*
X187116784Y-102398456D01*
X186952812Y-102466376D01*
X186803512Y-102496073D01*
X186778742Y-102501000D01*
X186601258Y-102501000D01*
X186576488Y-102496073D01*
X186427188Y-102466376D01*
X186263216Y-102398456D01*
X186115646Y-102299853D01*
X185990147Y-102174354D01*
X185891544Y-102026784D01*
X185823624Y-101862812D01*
X185789000Y-101688741D01*
X185789000Y-101511259D01*
X185823624Y-101337188D01*
X185891544Y-101173216D01*
X185990147Y-101025646D01*
X186115646Y-100900147D01*
X186263216Y-100801544D01*
X186427188Y-100733624D01*
X186576488Y-100703927D01*
X186601258Y-100699000D01*
X186778742Y-100699000D01*
X186803512Y-100703927D01*
G37*
G36*
X184263512Y-100703927D02*
G01*
X184412812Y-100733624D01*
X184576784Y-100801544D01*
X184724354Y-100900147D01*
X184849853Y-101025646D01*
X184948456Y-101173216D01*
X185016376Y-101337188D01*
X185051000Y-101511259D01*
X185051000Y-101688741D01*
X185016376Y-101862812D01*
X184948456Y-102026784D01*
X184849853Y-102174354D01*
X184724354Y-102299853D01*
X184576784Y-102398456D01*
X184412812Y-102466376D01*
X184263512Y-102496073D01*
X184238742Y-102501000D01*
X184061258Y-102501000D01*
X184036488Y-102496073D01*
X183887188Y-102466376D01*
X183723216Y-102398456D01*
X183575646Y-102299853D01*
X183450147Y-102174354D01*
X183351544Y-102026784D01*
X183283624Y-101862812D01*
X183249000Y-101688741D01*
X183249000Y-101511259D01*
X183283624Y-101337188D01*
X183351544Y-101173216D01*
X183450147Y-101025646D01*
X183575646Y-100900147D01*
X183723216Y-100801544D01*
X183887188Y-100733624D01*
X184036488Y-100703927D01*
X184061258Y-100699000D01*
X184238742Y-100699000D01*
X184263512Y-100703927D01*
G37*
G36*
X181723512Y-100703927D02*
G01*
X181872812Y-100733624D01*
X182036784Y-100801544D01*
X182184354Y-100900147D01*
X182309853Y-101025646D01*
X182408456Y-101173216D01*
X182476376Y-101337188D01*
X182511000Y-101511259D01*
X182511000Y-101688741D01*
X182476376Y-101862812D01*
X182408456Y-102026784D01*
X182309853Y-102174354D01*
X182184354Y-102299853D01*
X182036784Y-102398456D01*
X181872812Y-102466376D01*
X181723512Y-102496073D01*
X181698742Y-102501000D01*
X181521258Y-102501000D01*
X181496488Y-102496073D01*
X181347188Y-102466376D01*
X181183216Y-102398456D01*
X181035646Y-102299853D01*
X180910147Y-102174354D01*
X180811544Y-102026784D01*
X180743624Y-101862812D01*
X180709000Y-101688741D01*
X180709000Y-101511259D01*
X180743624Y-101337188D01*
X180811544Y-101173216D01*
X180910147Y-101025646D01*
X181035646Y-100900147D01*
X181183216Y-100801544D01*
X181347188Y-100733624D01*
X181496488Y-100703927D01*
X181521258Y-100699000D01*
X181698742Y-100699000D01*
X181723512Y-100703927D01*
G37*
G36*
X179183512Y-100703927D02*
G01*
X179332812Y-100733624D01*
X179496784Y-100801544D01*
X179644354Y-100900147D01*
X179769853Y-101025646D01*
X179868456Y-101173216D01*
X179936376Y-101337188D01*
X179971000Y-101511259D01*
X179971000Y-101688741D01*
X179936376Y-101862812D01*
X179868456Y-102026784D01*
X179769853Y-102174354D01*
X179644354Y-102299853D01*
X179496784Y-102398456D01*
X179332812Y-102466376D01*
X179183512Y-102496073D01*
X179158742Y-102501000D01*
X178981258Y-102501000D01*
X178956488Y-102496073D01*
X178807188Y-102466376D01*
X178643216Y-102398456D01*
X178495646Y-102299853D01*
X178370147Y-102174354D01*
X178271544Y-102026784D01*
X178203624Y-101862812D01*
X178169000Y-101688741D01*
X178169000Y-101511259D01*
X178203624Y-101337188D01*
X178271544Y-101173216D01*
X178370147Y-101025646D01*
X178495646Y-100900147D01*
X178643216Y-100801544D01*
X178807188Y-100733624D01*
X178956488Y-100703927D01*
X178981258Y-100699000D01*
X179158742Y-100699000D01*
X179183512Y-100703927D01*
G37*
G36*
X176643512Y-100703927D02*
G01*
X176792812Y-100733624D01*
X176956784Y-100801544D01*
X177104354Y-100900147D01*
X177229853Y-101025646D01*
X177328456Y-101173216D01*
X177396376Y-101337188D01*
X177431000Y-101511259D01*
X177431000Y-101688741D01*
X177396376Y-101862812D01*
X177328456Y-102026784D01*
X177229853Y-102174354D01*
X177104354Y-102299853D01*
X176956784Y-102398456D01*
X176792812Y-102466376D01*
X176643512Y-102496073D01*
X176618742Y-102501000D01*
X176441258Y-102501000D01*
X176416488Y-102496073D01*
X176267188Y-102466376D01*
X176103216Y-102398456D01*
X175955646Y-102299853D01*
X175830147Y-102174354D01*
X175731544Y-102026784D01*
X175663624Y-101862812D01*
X175629000Y-101688741D01*
X175629000Y-101511259D01*
X175663624Y-101337188D01*
X175731544Y-101173216D01*
X175830147Y-101025646D01*
X175955646Y-100900147D01*
X176103216Y-100801544D01*
X176267188Y-100733624D01*
X176416488Y-100703927D01*
X176441258Y-100699000D01*
X176618742Y-100699000D01*
X176643512Y-100703927D01*
G37*
G36*
X159651000Y-102501000D02*
G01*
X157849000Y-102501000D01*
X157849000Y-100699000D01*
X159651000Y-100699000D01*
X159651000Y-102501000D01*
G37*
G36*
X164731000Y-102501000D02*
G01*
X162929000Y-102501000D01*
X162929000Y-100699000D01*
X164731000Y-100699000D01*
X164731000Y-102501000D01*
G37*
G36*
X189343512Y-100703927D02*
G01*
X189492812Y-100733624D01*
X189656784Y-100801544D01*
X189804354Y-100900147D01*
X189929853Y-101025646D01*
X190028456Y-101173216D01*
X190096376Y-101337188D01*
X190131000Y-101511259D01*
X190131000Y-101688741D01*
X190096376Y-101862812D01*
X190028456Y-102026784D01*
X189929853Y-102174354D01*
X189804354Y-102299853D01*
X189656784Y-102398456D01*
X189492812Y-102466376D01*
X189343512Y-102496073D01*
X189318742Y-102501000D01*
X189141258Y-102501000D01*
X189116488Y-102496073D01*
X188967188Y-102466376D01*
X188803216Y-102398456D01*
X188655646Y-102299853D01*
X188530147Y-102174354D01*
X188431544Y-102026784D01*
X188363624Y-101862812D01*
X188329000Y-101688741D01*
X188329000Y-101511259D01*
X188363624Y-101337188D01*
X188431544Y-101173216D01*
X188530147Y-101025646D01*
X188655646Y-100900147D01*
X188803216Y-100801544D01*
X188967188Y-100733624D01*
X189116488Y-100703927D01*
X189141258Y-100699000D01*
X189318742Y-100699000D01*
X189343512Y-100703927D01*
G37*
G36*
X174103512Y-100703927D02*
G01*
X174252812Y-100733624D01*
X174416784Y-100801544D01*
X174564354Y-100900147D01*
X174689853Y-101025646D01*
X174788456Y-101173216D01*
X174856376Y-101337188D01*
X174891000Y-101511259D01*
X174891000Y-101688741D01*
X174856376Y-101862812D01*
X174788456Y-102026784D01*
X174689853Y-102174354D01*
X174564354Y-102299853D01*
X174416784Y-102398456D01*
X174252812Y-102466376D01*
X174103512Y-102496073D01*
X174078742Y-102501000D01*
X173901258Y-102501000D01*
X173876488Y-102496073D01*
X173727188Y-102466376D01*
X173563216Y-102398456D01*
X173415646Y-102299853D01*
X173290147Y-102174354D01*
X173191544Y-102026784D01*
X173123624Y-101862812D01*
X173089000Y-101688741D01*
X173089000Y-101511259D01*
X173123624Y-101337188D01*
X173191544Y-101173216D01*
X173290147Y-101025646D01*
X173415646Y-100900147D01*
X173563216Y-100801544D01*
X173727188Y-100733624D01*
X173876488Y-100703927D01*
X173901258Y-100699000D01*
X174078742Y-100699000D01*
X174103512Y-100703927D01*
G37*
G36*
X217549591Y-100328085D02*
G01*
X217583569Y-100338393D01*
X217614890Y-100355134D01*
X217642339Y-100377661D01*
X217664866Y-100405110D01*
X217681607Y-100436431D01*
X217691915Y-100470409D01*
X217696000Y-100511890D01*
X217696000Y-101113110D01*
X217691915Y-101154591D01*
X217681607Y-101188569D01*
X217664866Y-101219890D01*
X217642339Y-101247339D01*
X217614890Y-101269866D01*
X217583569Y-101286607D01*
X217549591Y-101296915D01*
X217508110Y-101301000D01*
X216831890Y-101301000D01*
X216790409Y-101296915D01*
X216756431Y-101286607D01*
X216725110Y-101269866D01*
X216697661Y-101247339D01*
X216675134Y-101219890D01*
X216658393Y-101188569D01*
X216648085Y-101154591D01*
X216644000Y-101113110D01*
X216644000Y-100511890D01*
X216648085Y-100470409D01*
X216658393Y-100436431D01*
X216675134Y-100405110D01*
X216697661Y-100377661D01*
X216725110Y-100355134D01*
X216756431Y-100338393D01*
X216790409Y-100328085D01*
X216831890Y-100324000D01*
X217508110Y-100324000D01*
X217549591Y-100328085D01*
G37*
M02*
