M48
; DRILL file {KiCad (5.1.5)-3} date 01/29/20 10:29:05
; FORMAT={-:-/ absolute / inch / decimal}
; #@! TF.CreationDate,2020-01-29T10:29:05+01:00
; #@! TF.GenerationSoftware,Kicad,Pcbnew,(5.1.5)-3
; #@! TF.FileFunction,Plated,1,2,PTH
FMAT,2
INCH
T1C0.0157
T2C0.0394
%
G90
G05
T1
X6.3Y-4.85
X6.55Y-5.1
X6.55Y-5.15
X6.7Y-4.85
X6.9Y-4.55
X6.95Y-4.15
X6.95Y-5.0
X7.05Y-4.2
X7.05Y-4.6
X7.1Y-4.25
X7.1Y-4.6
X7.15Y-4.3
X7.15Y-4.55
X7.2Y-4.45
X7.25Y-4.5
X7.35Y-4.9
X7.35Y-4.95
X7.4091Y-4.9026
X7.45Y-4.5
X7.5Y-5.1
X7.55Y-4.55
X7.65Y-5.2
X7.7071Y-4.5
X7.75Y-4.55
X7.75Y-4.7
X7.75Y-4.75
X7.75Y-5.0
X7.7951Y-4.6568
X7.85Y-5.0
X7.9363Y-5.0441
X8.05Y-4.8
X8.15Y-4.7
X8.15Y-5.0
X8.25Y-4.5
X8.25Y-5.05
X8.3Y-4.05
X8.3Y-4.35
X8.3Y-4.65
X8.3104Y-4.28
X8.35Y-3.95
X8.35Y-4.1
X8.35Y-4.4
X8.35Y-4.6
X8.35Y-4.7
X8.35Y-4.8
X8.3952Y-4.2037
X8.4Y-4.45
X8.4Y-4.5
X8.4Y-4.75
X8.4069Y-4.0156
X8.4258Y-4.1788
T2
X6.65Y-5.2
X6.75Y-5.2
X6.85Y-5.2
X6.95Y-5.2
X7.05Y-5.2
X7.15Y-5.2
X7.25Y-5.2
X7.35Y-5.2
X7.45Y-5.2
X6.25Y-4.0
X6.25Y-4.1
X6.25Y-4.2
X6.25Y-4.3
X6.25Y-4.4
X6.25Y-4.5
X6.25Y-4.6
X6.25Y-4.7
X6.45Y-5.1
X6.45Y-5.2
X6.45Y-4.3
X6.45Y-4.4
X6.45Y-4.5
X6.45Y-4.6
X6.45Y-4.7
X6.45Y-4.8
X6.45Y-4.9
X6.65Y-4.0
X6.75Y-4.0
X6.85Y-4.0
X6.95Y-4.0
X7.05Y-4.0
X7.15Y-4.0
X7.25Y-4.0
X7.35Y-4.0
X7.45Y-4.0
X7.75Y-5.2
X7.85Y-5.2
X7.95Y-5.2
X7.85Y-4.0
X7.85Y-4.1
X7.85Y-4.2
X7.85Y-4.3
X7.85Y-4.4
X7.85Y-4.5
X7.85Y-4.6
X7.85Y-4.7
X7.85Y-4.8
X7.85Y-4.9
X7.95Y-4.0
X7.95Y-4.1
X7.95Y-4.2
X7.95Y-4.3
X7.95Y-4.4
X7.95Y-4.5
X7.95Y-4.6
X7.95Y-4.7
X7.95Y-4.8
X7.95Y-4.9
X6.25Y-5.0
X6.25Y-5.1
X6.25Y-5.2
X6.45Y-4.0
X6.45Y-4.1
X7.65Y-4.3
X7.65Y-4.4
X7.65Y-4.5
X7.65Y-4.6
X7.65Y-4.7
X7.65Y-4.8
X7.65Y-4.9
T0
M30
