G04 #@! TF.GenerationSoftware,KiCad,Pcbnew,(5.1.5)-3*
G04 #@! TF.CreationDate,2020-03-19T17:15:20+01:00*
G04 #@! TF.ProjectId,ProgrammingBoard,50726f67-7261-46d6-9d69-6e67426f6172,v0.1*
G04 #@! TF.SameCoordinates,Original*
G04 #@! TF.FileFunction,Copper,L1,Top*
G04 #@! TF.FilePolarity,Positive*
%FSLAX46Y46*%
G04 Gerber Fmt 4.6, Leading zero omitted, Abs format (unit mm)*
G04 Created by KiCad (PCBNEW (5.1.5)-3) date 2020-03-19 17:15:20*
%MOMM*%
%LPD*%
G04 APERTURE LIST*
%ADD10O,1.700000X1.700000*%
%ADD11R,1.700000X1.700000*%
%ADD12C,0.100000*%
%ADD13R,1.500000X0.450000*%
%ADD14C,0.800000*%
%ADD15C,0.300000*%
%ADD16C,0.250000*%
G04 APERTURE END LIST*
D10*
X168910000Y-132080000D03*
X171450000Y-132080000D03*
X173990000Y-132080000D03*
X176530000Y-132080000D03*
X179070000Y-132080000D03*
X181610000Y-132080000D03*
X184150000Y-132080000D03*
X186690000Y-132080000D03*
D11*
X189230000Y-132080000D03*
D10*
X196850000Y-132080000D03*
X199390000Y-132080000D03*
D11*
X201930000Y-132080000D03*
G04 #@! TA.AperFunction,SMDPad,CuDef*
D12*
G36*
X213114504Y-123221204D02*
G01*
X213138773Y-123224804D01*
X213162571Y-123230765D01*
X213185671Y-123239030D01*
X213207849Y-123249520D01*
X213228893Y-123262133D01*
X213248598Y-123276747D01*
X213266777Y-123293223D01*
X213283253Y-123311402D01*
X213297867Y-123331107D01*
X213310480Y-123352151D01*
X213320970Y-123374329D01*
X213329235Y-123397429D01*
X213335196Y-123421227D01*
X213338796Y-123445496D01*
X213340000Y-123470000D01*
X213340000Y-126970000D01*
X213338796Y-126994504D01*
X213335196Y-127018773D01*
X213329235Y-127042571D01*
X213320970Y-127065671D01*
X213310480Y-127087849D01*
X213297867Y-127108893D01*
X213283253Y-127128598D01*
X213266777Y-127146777D01*
X213248598Y-127163253D01*
X213228893Y-127177867D01*
X213207849Y-127190480D01*
X213185671Y-127200970D01*
X213162571Y-127209235D01*
X213138773Y-127215196D01*
X213114504Y-127218796D01*
X213090000Y-127220000D01*
X211090000Y-127220000D01*
X211065496Y-127218796D01*
X211041227Y-127215196D01*
X211017429Y-127209235D01*
X210994329Y-127200970D01*
X210972151Y-127190480D01*
X210951107Y-127177867D01*
X210931402Y-127163253D01*
X210913223Y-127146777D01*
X210896747Y-127128598D01*
X210882133Y-127108893D01*
X210869520Y-127087849D01*
X210859030Y-127065671D01*
X210850765Y-127042571D01*
X210844804Y-127018773D01*
X210841204Y-126994504D01*
X210840000Y-126970000D01*
X210840000Y-123470000D01*
X210841204Y-123445496D01*
X210844804Y-123421227D01*
X210850765Y-123397429D01*
X210859030Y-123374329D01*
X210869520Y-123352151D01*
X210882133Y-123331107D01*
X210896747Y-123311402D01*
X210913223Y-123293223D01*
X210931402Y-123276747D01*
X210951107Y-123262133D01*
X210972151Y-123249520D01*
X210994329Y-123239030D01*
X211017429Y-123230765D01*
X211041227Y-123224804D01*
X211065496Y-123221204D01*
X211090000Y-123220000D01*
X213090000Y-123220000D01*
X213114504Y-123221204D01*
G37*
G04 #@! TD.AperFunction*
G04 #@! TA.AperFunction,SMDPad,CuDef*
G36*
X213114504Y-129321204D02*
G01*
X213138773Y-129324804D01*
X213162571Y-129330765D01*
X213185671Y-129339030D01*
X213207849Y-129349520D01*
X213228893Y-129362133D01*
X213248598Y-129376747D01*
X213266777Y-129393223D01*
X213283253Y-129411402D01*
X213297867Y-129431107D01*
X213310480Y-129452151D01*
X213320970Y-129474329D01*
X213329235Y-129497429D01*
X213335196Y-129521227D01*
X213338796Y-129545496D01*
X213340000Y-129570000D01*
X213340000Y-133070000D01*
X213338796Y-133094504D01*
X213335196Y-133118773D01*
X213329235Y-133142571D01*
X213320970Y-133165671D01*
X213310480Y-133187849D01*
X213297867Y-133208893D01*
X213283253Y-133228598D01*
X213266777Y-133246777D01*
X213248598Y-133263253D01*
X213228893Y-133277867D01*
X213207849Y-133290480D01*
X213185671Y-133300970D01*
X213162571Y-133309235D01*
X213138773Y-133315196D01*
X213114504Y-133318796D01*
X213090000Y-133320000D01*
X211090000Y-133320000D01*
X211065496Y-133318796D01*
X211041227Y-133315196D01*
X211017429Y-133309235D01*
X210994329Y-133300970D01*
X210972151Y-133290480D01*
X210951107Y-133277867D01*
X210931402Y-133263253D01*
X210913223Y-133246777D01*
X210896747Y-133228598D01*
X210882133Y-133208893D01*
X210869520Y-133187849D01*
X210859030Y-133165671D01*
X210850765Y-133142571D01*
X210844804Y-133118773D01*
X210841204Y-133094504D01*
X210840000Y-133070000D01*
X210840000Y-129570000D01*
X210841204Y-129545496D01*
X210844804Y-129521227D01*
X210850765Y-129497429D01*
X210859030Y-129474329D01*
X210869520Y-129452151D01*
X210882133Y-129431107D01*
X210896747Y-129411402D01*
X210913223Y-129393223D01*
X210931402Y-129376747D01*
X210951107Y-129362133D01*
X210972151Y-129349520D01*
X210994329Y-129339030D01*
X211017429Y-129330765D01*
X211041227Y-129324804D01*
X211065496Y-129321204D01*
X211090000Y-129320000D01*
X213090000Y-129320000D01*
X213114504Y-129321204D01*
G37*
G04 #@! TD.AperFunction*
D11*
X158750000Y-127000000D03*
D10*
X158750000Y-129540000D03*
X158750000Y-132080000D03*
D11*
X163830000Y-132080000D03*
D10*
X163830000Y-129540000D03*
G04 #@! TA.AperFunction,SMDPad,CuDef*
D12*
G36*
X217447691Y-101951053D02*
G01*
X217468926Y-101954203D01*
X217489750Y-101959419D01*
X217509962Y-101966651D01*
X217529368Y-101975830D01*
X217547781Y-101986866D01*
X217565024Y-101999654D01*
X217580930Y-102014070D01*
X217595346Y-102029976D01*
X217608134Y-102047219D01*
X217619170Y-102065632D01*
X217628349Y-102085038D01*
X217635581Y-102105250D01*
X217640797Y-102126074D01*
X217643947Y-102147309D01*
X217645000Y-102168750D01*
X217645000Y-102606250D01*
X217643947Y-102627691D01*
X217640797Y-102648926D01*
X217635581Y-102669750D01*
X217628349Y-102689962D01*
X217619170Y-102709368D01*
X217608134Y-102727781D01*
X217595346Y-102745024D01*
X217580930Y-102760930D01*
X217565024Y-102775346D01*
X217547781Y-102788134D01*
X217529368Y-102799170D01*
X217509962Y-102808349D01*
X217489750Y-102815581D01*
X217468926Y-102820797D01*
X217447691Y-102823947D01*
X217426250Y-102825000D01*
X216913750Y-102825000D01*
X216892309Y-102823947D01*
X216871074Y-102820797D01*
X216850250Y-102815581D01*
X216830038Y-102808349D01*
X216810632Y-102799170D01*
X216792219Y-102788134D01*
X216774976Y-102775346D01*
X216759070Y-102760930D01*
X216744654Y-102745024D01*
X216731866Y-102727781D01*
X216720830Y-102709368D01*
X216711651Y-102689962D01*
X216704419Y-102669750D01*
X216699203Y-102648926D01*
X216696053Y-102627691D01*
X216695000Y-102606250D01*
X216695000Y-102168750D01*
X216696053Y-102147309D01*
X216699203Y-102126074D01*
X216704419Y-102105250D01*
X216711651Y-102085038D01*
X216720830Y-102065632D01*
X216731866Y-102047219D01*
X216744654Y-102029976D01*
X216759070Y-102014070D01*
X216774976Y-101999654D01*
X216792219Y-101986866D01*
X216810632Y-101975830D01*
X216830038Y-101966651D01*
X216850250Y-101959419D01*
X216871074Y-101954203D01*
X216892309Y-101951053D01*
X216913750Y-101950000D01*
X217426250Y-101950000D01*
X217447691Y-101951053D01*
G37*
G04 #@! TD.AperFunction*
G04 #@! TA.AperFunction,SMDPad,CuDef*
G36*
X217447691Y-100376053D02*
G01*
X217468926Y-100379203D01*
X217489750Y-100384419D01*
X217509962Y-100391651D01*
X217529368Y-100400830D01*
X217547781Y-100411866D01*
X217565024Y-100424654D01*
X217580930Y-100439070D01*
X217595346Y-100454976D01*
X217608134Y-100472219D01*
X217619170Y-100490632D01*
X217628349Y-100510038D01*
X217635581Y-100530250D01*
X217640797Y-100551074D01*
X217643947Y-100572309D01*
X217645000Y-100593750D01*
X217645000Y-101031250D01*
X217643947Y-101052691D01*
X217640797Y-101073926D01*
X217635581Y-101094750D01*
X217628349Y-101114962D01*
X217619170Y-101134368D01*
X217608134Y-101152781D01*
X217595346Y-101170024D01*
X217580930Y-101185930D01*
X217565024Y-101200346D01*
X217547781Y-101213134D01*
X217529368Y-101224170D01*
X217509962Y-101233349D01*
X217489750Y-101240581D01*
X217468926Y-101245797D01*
X217447691Y-101248947D01*
X217426250Y-101250000D01*
X216913750Y-101250000D01*
X216892309Y-101248947D01*
X216871074Y-101245797D01*
X216850250Y-101240581D01*
X216830038Y-101233349D01*
X216810632Y-101224170D01*
X216792219Y-101213134D01*
X216774976Y-101200346D01*
X216759070Y-101185930D01*
X216744654Y-101170024D01*
X216731866Y-101152781D01*
X216720830Y-101134368D01*
X216711651Y-101114962D01*
X216704419Y-101094750D01*
X216699203Y-101073926D01*
X216696053Y-101052691D01*
X216695000Y-101031250D01*
X216695000Y-100593750D01*
X216696053Y-100572309D01*
X216699203Y-100551074D01*
X216704419Y-100530250D01*
X216711651Y-100510038D01*
X216720830Y-100490632D01*
X216731866Y-100472219D01*
X216744654Y-100454976D01*
X216759070Y-100439070D01*
X216774976Y-100424654D01*
X216792219Y-100411866D01*
X216810632Y-100400830D01*
X216830038Y-100391651D01*
X216850250Y-100384419D01*
X216871074Y-100379203D01*
X216892309Y-100376053D01*
X216913750Y-100375000D01*
X217426250Y-100375000D01*
X217447691Y-100376053D01*
G37*
G04 #@! TD.AperFunction*
G04 #@! TA.AperFunction,SMDPad,CuDef*
G36*
X217447691Y-109571053D02*
G01*
X217468926Y-109574203D01*
X217489750Y-109579419D01*
X217509962Y-109586651D01*
X217529368Y-109595830D01*
X217547781Y-109606866D01*
X217565024Y-109619654D01*
X217580930Y-109634070D01*
X217595346Y-109649976D01*
X217608134Y-109667219D01*
X217619170Y-109685632D01*
X217628349Y-109705038D01*
X217635581Y-109725250D01*
X217640797Y-109746074D01*
X217643947Y-109767309D01*
X217645000Y-109788750D01*
X217645000Y-110226250D01*
X217643947Y-110247691D01*
X217640797Y-110268926D01*
X217635581Y-110289750D01*
X217628349Y-110309962D01*
X217619170Y-110329368D01*
X217608134Y-110347781D01*
X217595346Y-110365024D01*
X217580930Y-110380930D01*
X217565024Y-110395346D01*
X217547781Y-110408134D01*
X217529368Y-110419170D01*
X217509962Y-110428349D01*
X217489750Y-110435581D01*
X217468926Y-110440797D01*
X217447691Y-110443947D01*
X217426250Y-110445000D01*
X216913750Y-110445000D01*
X216892309Y-110443947D01*
X216871074Y-110440797D01*
X216850250Y-110435581D01*
X216830038Y-110428349D01*
X216810632Y-110419170D01*
X216792219Y-110408134D01*
X216774976Y-110395346D01*
X216759070Y-110380930D01*
X216744654Y-110365024D01*
X216731866Y-110347781D01*
X216720830Y-110329368D01*
X216711651Y-110309962D01*
X216704419Y-110289750D01*
X216699203Y-110268926D01*
X216696053Y-110247691D01*
X216695000Y-110226250D01*
X216695000Y-109788750D01*
X216696053Y-109767309D01*
X216699203Y-109746074D01*
X216704419Y-109725250D01*
X216711651Y-109705038D01*
X216720830Y-109685632D01*
X216731866Y-109667219D01*
X216744654Y-109649976D01*
X216759070Y-109634070D01*
X216774976Y-109619654D01*
X216792219Y-109606866D01*
X216810632Y-109595830D01*
X216830038Y-109586651D01*
X216850250Y-109579419D01*
X216871074Y-109574203D01*
X216892309Y-109571053D01*
X216913750Y-109570000D01*
X217426250Y-109570000D01*
X217447691Y-109571053D01*
G37*
G04 #@! TD.AperFunction*
G04 #@! TA.AperFunction,SMDPad,CuDef*
G36*
X217447691Y-107996053D02*
G01*
X217468926Y-107999203D01*
X217489750Y-108004419D01*
X217509962Y-108011651D01*
X217529368Y-108020830D01*
X217547781Y-108031866D01*
X217565024Y-108044654D01*
X217580930Y-108059070D01*
X217595346Y-108074976D01*
X217608134Y-108092219D01*
X217619170Y-108110632D01*
X217628349Y-108130038D01*
X217635581Y-108150250D01*
X217640797Y-108171074D01*
X217643947Y-108192309D01*
X217645000Y-108213750D01*
X217645000Y-108651250D01*
X217643947Y-108672691D01*
X217640797Y-108693926D01*
X217635581Y-108714750D01*
X217628349Y-108734962D01*
X217619170Y-108754368D01*
X217608134Y-108772781D01*
X217595346Y-108790024D01*
X217580930Y-108805930D01*
X217565024Y-108820346D01*
X217547781Y-108833134D01*
X217529368Y-108844170D01*
X217509962Y-108853349D01*
X217489750Y-108860581D01*
X217468926Y-108865797D01*
X217447691Y-108868947D01*
X217426250Y-108870000D01*
X216913750Y-108870000D01*
X216892309Y-108868947D01*
X216871074Y-108865797D01*
X216850250Y-108860581D01*
X216830038Y-108853349D01*
X216810632Y-108844170D01*
X216792219Y-108833134D01*
X216774976Y-108820346D01*
X216759070Y-108805930D01*
X216744654Y-108790024D01*
X216731866Y-108772781D01*
X216720830Y-108754368D01*
X216711651Y-108734962D01*
X216704419Y-108714750D01*
X216699203Y-108693926D01*
X216696053Y-108672691D01*
X216695000Y-108651250D01*
X216695000Y-108213750D01*
X216696053Y-108192309D01*
X216699203Y-108171074D01*
X216704419Y-108150250D01*
X216711651Y-108130038D01*
X216720830Y-108110632D01*
X216731866Y-108092219D01*
X216744654Y-108074976D01*
X216759070Y-108059070D01*
X216774976Y-108044654D01*
X216792219Y-108031866D01*
X216810632Y-108020830D01*
X216830038Y-108011651D01*
X216850250Y-108004419D01*
X216871074Y-107999203D01*
X216892309Y-107996053D01*
X216913750Y-107995000D01*
X217426250Y-107995000D01*
X217447691Y-107996053D01*
G37*
G04 #@! TD.AperFunction*
G04 #@! TA.AperFunction,SMDPad,CuDef*
G36*
X217447691Y-115616053D02*
G01*
X217468926Y-115619203D01*
X217489750Y-115624419D01*
X217509962Y-115631651D01*
X217529368Y-115640830D01*
X217547781Y-115651866D01*
X217565024Y-115664654D01*
X217580930Y-115679070D01*
X217595346Y-115694976D01*
X217608134Y-115712219D01*
X217619170Y-115730632D01*
X217628349Y-115750038D01*
X217635581Y-115770250D01*
X217640797Y-115791074D01*
X217643947Y-115812309D01*
X217645000Y-115833750D01*
X217645000Y-116271250D01*
X217643947Y-116292691D01*
X217640797Y-116313926D01*
X217635581Y-116334750D01*
X217628349Y-116354962D01*
X217619170Y-116374368D01*
X217608134Y-116392781D01*
X217595346Y-116410024D01*
X217580930Y-116425930D01*
X217565024Y-116440346D01*
X217547781Y-116453134D01*
X217529368Y-116464170D01*
X217509962Y-116473349D01*
X217489750Y-116480581D01*
X217468926Y-116485797D01*
X217447691Y-116488947D01*
X217426250Y-116490000D01*
X216913750Y-116490000D01*
X216892309Y-116488947D01*
X216871074Y-116485797D01*
X216850250Y-116480581D01*
X216830038Y-116473349D01*
X216810632Y-116464170D01*
X216792219Y-116453134D01*
X216774976Y-116440346D01*
X216759070Y-116425930D01*
X216744654Y-116410024D01*
X216731866Y-116392781D01*
X216720830Y-116374368D01*
X216711651Y-116354962D01*
X216704419Y-116334750D01*
X216699203Y-116313926D01*
X216696053Y-116292691D01*
X216695000Y-116271250D01*
X216695000Y-115833750D01*
X216696053Y-115812309D01*
X216699203Y-115791074D01*
X216704419Y-115770250D01*
X216711651Y-115750038D01*
X216720830Y-115730632D01*
X216731866Y-115712219D01*
X216744654Y-115694976D01*
X216759070Y-115679070D01*
X216774976Y-115664654D01*
X216792219Y-115651866D01*
X216810632Y-115640830D01*
X216830038Y-115631651D01*
X216850250Y-115624419D01*
X216871074Y-115619203D01*
X216892309Y-115616053D01*
X216913750Y-115615000D01*
X217426250Y-115615000D01*
X217447691Y-115616053D01*
G37*
G04 #@! TD.AperFunction*
G04 #@! TA.AperFunction,SMDPad,CuDef*
G36*
X217447691Y-117191053D02*
G01*
X217468926Y-117194203D01*
X217489750Y-117199419D01*
X217509962Y-117206651D01*
X217529368Y-117215830D01*
X217547781Y-117226866D01*
X217565024Y-117239654D01*
X217580930Y-117254070D01*
X217595346Y-117269976D01*
X217608134Y-117287219D01*
X217619170Y-117305632D01*
X217628349Y-117325038D01*
X217635581Y-117345250D01*
X217640797Y-117366074D01*
X217643947Y-117387309D01*
X217645000Y-117408750D01*
X217645000Y-117846250D01*
X217643947Y-117867691D01*
X217640797Y-117888926D01*
X217635581Y-117909750D01*
X217628349Y-117929962D01*
X217619170Y-117949368D01*
X217608134Y-117967781D01*
X217595346Y-117985024D01*
X217580930Y-118000930D01*
X217565024Y-118015346D01*
X217547781Y-118028134D01*
X217529368Y-118039170D01*
X217509962Y-118048349D01*
X217489750Y-118055581D01*
X217468926Y-118060797D01*
X217447691Y-118063947D01*
X217426250Y-118065000D01*
X216913750Y-118065000D01*
X216892309Y-118063947D01*
X216871074Y-118060797D01*
X216850250Y-118055581D01*
X216830038Y-118048349D01*
X216810632Y-118039170D01*
X216792219Y-118028134D01*
X216774976Y-118015346D01*
X216759070Y-118000930D01*
X216744654Y-117985024D01*
X216731866Y-117967781D01*
X216720830Y-117949368D01*
X216711651Y-117929962D01*
X216704419Y-117909750D01*
X216699203Y-117888926D01*
X216696053Y-117867691D01*
X216695000Y-117846250D01*
X216695000Y-117408750D01*
X216696053Y-117387309D01*
X216699203Y-117366074D01*
X216704419Y-117345250D01*
X216711651Y-117325038D01*
X216720830Y-117305632D01*
X216731866Y-117287219D01*
X216744654Y-117269976D01*
X216759070Y-117254070D01*
X216774976Y-117239654D01*
X216792219Y-117226866D01*
X216810632Y-117215830D01*
X216830038Y-117206651D01*
X216850250Y-117199419D01*
X216871074Y-117194203D01*
X216892309Y-117191053D01*
X216913750Y-117190000D01*
X217426250Y-117190000D01*
X217447691Y-117191053D01*
G37*
G04 #@! TD.AperFunction*
G04 #@! TA.AperFunction,SMDPad,CuDef*
G36*
X190777691Y-127351053D02*
G01*
X190798926Y-127354203D01*
X190819750Y-127359419D01*
X190839962Y-127366651D01*
X190859368Y-127375830D01*
X190877781Y-127386866D01*
X190895024Y-127399654D01*
X190910930Y-127414070D01*
X190925346Y-127429976D01*
X190938134Y-127447219D01*
X190949170Y-127465632D01*
X190958349Y-127485038D01*
X190965581Y-127505250D01*
X190970797Y-127526074D01*
X190973947Y-127547309D01*
X190975000Y-127568750D01*
X190975000Y-128006250D01*
X190973947Y-128027691D01*
X190970797Y-128048926D01*
X190965581Y-128069750D01*
X190958349Y-128089962D01*
X190949170Y-128109368D01*
X190938134Y-128127781D01*
X190925346Y-128145024D01*
X190910930Y-128160930D01*
X190895024Y-128175346D01*
X190877781Y-128188134D01*
X190859368Y-128199170D01*
X190839962Y-128208349D01*
X190819750Y-128215581D01*
X190798926Y-128220797D01*
X190777691Y-128223947D01*
X190756250Y-128225000D01*
X190243750Y-128225000D01*
X190222309Y-128223947D01*
X190201074Y-128220797D01*
X190180250Y-128215581D01*
X190160038Y-128208349D01*
X190140632Y-128199170D01*
X190122219Y-128188134D01*
X190104976Y-128175346D01*
X190089070Y-128160930D01*
X190074654Y-128145024D01*
X190061866Y-128127781D01*
X190050830Y-128109368D01*
X190041651Y-128089962D01*
X190034419Y-128069750D01*
X190029203Y-128048926D01*
X190026053Y-128027691D01*
X190025000Y-128006250D01*
X190025000Y-127568750D01*
X190026053Y-127547309D01*
X190029203Y-127526074D01*
X190034419Y-127505250D01*
X190041651Y-127485038D01*
X190050830Y-127465632D01*
X190061866Y-127447219D01*
X190074654Y-127429976D01*
X190089070Y-127414070D01*
X190104976Y-127399654D01*
X190122219Y-127386866D01*
X190140632Y-127375830D01*
X190160038Y-127366651D01*
X190180250Y-127359419D01*
X190201074Y-127354203D01*
X190222309Y-127351053D01*
X190243750Y-127350000D01*
X190756250Y-127350000D01*
X190777691Y-127351053D01*
G37*
G04 #@! TD.AperFunction*
G04 #@! TA.AperFunction,SMDPad,CuDef*
G36*
X190777691Y-125776053D02*
G01*
X190798926Y-125779203D01*
X190819750Y-125784419D01*
X190839962Y-125791651D01*
X190859368Y-125800830D01*
X190877781Y-125811866D01*
X190895024Y-125824654D01*
X190910930Y-125839070D01*
X190925346Y-125854976D01*
X190938134Y-125872219D01*
X190949170Y-125890632D01*
X190958349Y-125910038D01*
X190965581Y-125930250D01*
X190970797Y-125951074D01*
X190973947Y-125972309D01*
X190975000Y-125993750D01*
X190975000Y-126431250D01*
X190973947Y-126452691D01*
X190970797Y-126473926D01*
X190965581Y-126494750D01*
X190958349Y-126514962D01*
X190949170Y-126534368D01*
X190938134Y-126552781D01*
X190925346Y-126570024D01*
X190910930Y-126585930D01*
X190895024Y-126600346D01*
X190877781Y-126613134D01*
X190859368Y-126624170D01*
X190839962Y-126633349D01*
X190819750Y-126640581D01*
X190798926Y-126645797D01*
X190777691Y-126648947D01*
X190756250Y-126650000D01*
X190243750Y-126650000D01*
X190222309Y-126648947D01*
X190201074Y-126645797D01*
X190180250Y-126640581D01*
X190160038Y-126633349D01*
X190140632Y-126624170D01*
X190122219Y-126613134D01*
X190104976Y-126600346D01*
X190089070Y-126585930D01*
X190074654Y-126570024D01*
X190061866Y-126552781D01*
X190050830Y-126534368D01*
X190041651Y-126514962D01*
X190034419Y-126494750D01*
X190029203Y-126473926D01*
X190026053Y-126452691D01*
X190025000Y-126431250D01*
X190025000Y-125993750D01*
X190026053Y-125972309D01*
X190029203Y-125951074D01*
X190034419Y-125930250D01*
X190041651Y-125910038D01*
X190050830Y-125890632D01*
X190061866Y-125872219D01*
X190074654Y-125854976D01*
X190089070Y-125839070D01*
X190104976Y-125824654D01*
X190122219Y-125811866D01*
X190140632Y-125800830D01*
X190160038Y-125791651D01*
X190180250Y-125784419D01*
X190201074Y-125779203D01*
X190222309Y-125776053D01*
X190243750Y-125775000D01*
X190756250Y-125775000D01*
X190777691Y-125776053D01*
G37*
G04 #@! TD.AperFunction*
D11*
X168910000Y-101600000D03*
D10*
X171450000Y-101600000D03*
X173990000Y-101600000D03*
X176530000Y-101600000D03*
X179070000Y-101600000D03*
X181610000Y-101600000D03*
X184150000Y-101600000D03*
X186690000Y-101600000D03*
X189230000Y-101600000D03*
D11*
X194310000Y-109220000D03*
D10*
X194310000Y-111760000D03*
X194310000Y-114300000D03*
X194310000Y-116840000D03*
X194310000Y-119380000D03*
X194310000Y-121920000D03*
X194310000Y-124460000D03*
X163830000Y-109220000D03*
X163830000Y-111760000D03*
X163830000Y-114300000D03*
X163830000Y-116840000D03*
X163830000Y-119380000D03*
X163830000Y-121920000D03*
D11*
X163830000Y-124460000D03*
X201930000Y-124460000D03*
D10*
X199390000Y-124460000D03*
X201930000Y-121920000D03*
X199390000Y-121920000D03*
X201930000Y-119380000D03*
X199390000Y-119380000D03*
X201930000Y-116840000D03*
X199390000Y-116840000D03*
X201930000Y-114300000D03*
X199390000Y-114300000D03*
X201930000Y-111760000D03*
X199390000Y-111760000D03*
X201930000Y-109220000D03*
X199390000Y-109220000D03*
X201930000Y-106680000D03*
X199390000Y-106680000D03*
X201930000Y-104140000D03*
X199390000Y-104140000D03*
X201930000Y-101600000D03*
X199390000Y-101600000D03*
D11*
X158750000Y-101600000D03*
D10*
X158750000Y-104140000D03*
X158750000Y-106680000D03*
X158750000Y-109220000D03*
X158750000Y-111760000D03*
X158750000Y-114300000D03*
X158750000Y-116840000D03*
X158750000Y-119380000D03*
G04 #@! TA.AperFunction,SMDPad,CuDef*
D12*
G36*
X186509703Y-116540722D02*
G01*
X186524264Y-116542882D01*
X186538543Y-116546459D01*
X186552403Y-116551418D01*
X186565710Y-116557712D01*
X186578336Y-116565280D01*
X186590159Y-116574048D01*
X186601066Y-116583934D01*
X186610952Y-116594841D01*
X186619720Y-116606664D01*
X186627288Y-116619290D01*
X186633582Y-116632597D01*
X186638541Y-116646457D01*
X186642118Y-116660736D01*
X186644278Y-116675297D01*
X186645000Y-116690000D01*
X186645000Y-116990000D01*
X186644278Y-117004703D01*
X186642118Y-117019264D01*
X186638541Y-117033543D01*
X186633582Y-117047403D01*
X186627288Y-117060710D01*
X186619720Y-117073336D01*
X186610952Y-117085159D01*
X186601066Y-117096066D01*
X186590159Y-117105952D01*
X186578336Y-117114720D01*
X186565710Y-117122288D01*
X186552403Y-117128582D01*
X186538543Y-117133541D01*
X186524264Y-117137118D01*
X186509703Y-117139278D01*
X186495000Y-117140000D01*
X185320000Y-117140000D01*
X185305297Y-117139278D01*
X185290736Y-117137118D01*
X185276457Y-117133541D01*
X185262597Y-117128582D01*
X185249290Y-117122288D01*
X185236664Y-117114720D01*
X185224841Y-117105952D01*
X185213934Y-117096066D01*
X185204048Y-117085159D01*
X185195280Y-117073336D01*
X185187712Y-117060710D01*
X185181418Y-117047403D01*
X185176459Y-117033543D01*
X185172882Y-117019264D01*
X185170722Y-117004703D01*
X185170000Y-116990000D01*
X185170000Y-116690000D01*
X185170722Y-116675297D01*
X185172882Y-116660736D01*
X185176459Y-116646457D01*
X185181418Y-116632597D01*
X185187712Y-116619290D01*
X185195280Y-116606664D01*
X185204048Y-116594841D01*
X185213934Y-116583934D01*
X185224841Y-116574048D01*
X185236664Y-116565280D01*
X185249290Y-116557712D01*
X185262597Y-116551418D01*
X185276457Y-116546459D01*
X185290736Y-116542882D01*
X185305297Y-116540722D01*
X185320000Y-116540000D01*
X186495000Y-116540000D01*
X186509703Y-116540722D01*
G37*
G04 #@! TD.AperFunction*
G04 #@! TA.AperFunction,SMDPad,CuDef*
G36*
X186509703Y-115270722D02*
G01*
X186524264Y-115272882D01*
X186538543Y-115276459D01*
X186552403Y-115281418D01*
X186565710Y-115287712D01*
X186578336Y-115295280D01*
X186590159Y-115304048D01*
X186601066Y-115313934D01*
X186610952Y-115324841D01*
X186619720Y-115336664D01*
X186627288Y-115349290D01*
X186633582Y-115362597D01*
X186638541Y-115376457D01*
X186642118Y-115390736D01*
X186644278Y-115405297D01*
X186645000Y-115420000D01*
X186645000Y-115720000D01*
X186644278Y-115734703D01*
X186642118Y-115749264D01*
X186638541Y-115763543D01*
X186633582Y-115777403D01*
X186627288Y-115790710D01*
X186619720Y-115803336D01*
X186610952Y-115815159D01*
X186601066Y-115826066D01*
X186590159Y-115835952D01*
X186578336Y-115844720D01*
X186565710Y-115852288D01*
X186552403Y-115858582D01*
X186538543Y-115863541D01*
X186524264Y-115867118D01*
X186509703Y-115869278D01*
X186495000Y-115870000D01*
X185320000Y-115870000D01*
X185305297Y-115869278D01*
X185290736Y-115867118D01*
X185276457Y-115863541D01*
X185262597Y-115858582D01*
X185249290Y-115852288D01*
X185236664Y-115844720D01*
X185224841Y-115835952D01*
X185213934Y-115826066D01*
X185204048Y-115815159D01*
X185195280Y-115803336D01*
X185187712Y-115790710D01*
X185181418Y-115777403D01*
X185176459Y-115763543D01*
X185172882Y-115749264D01*
X185170722Y-115734703D01*
X185170000Y-115720000D01*
X185170000Y-115420000D01*
X185170722Y-115405297D01*
X185172882Y-115390736D01*
X185176459Y-115376457D01*
X185181418Y-115362597D01*
X185187712Y-115349290D01*
X185195280Y-115336664D01*
X185204048Y-115324841D01*
X185213934Y-115313934D01*
X185224841Y-115304048D01*
X185236664Y-115295280D01*
X185249290Y-115287712D01*
X185262597Y-115281418D01*
X185276457Y-115276459D01*
X185290736Y-115272882D01*
X185305297Y-115270722D01*
X185320000Y-115270000D01*
X186495000Y-115270000D01*
X186509703Y-115270722D01*
G37*
G04 #@! TD.AperFunction*
G04 #@! TA.AperFunction,SMDPad,CuDef*
G36*
X186509703Y-114000722D02*
G01*
X186524264Y-114002882D01*
X186538543Y-114006459D01*
X186552403Y-114011418D01*
X186565710Y-114017712D01*
X186578336Y-114025280D01*
X186590159Y-114034048D01*
X186601066Y-114043934D01*
X186610952Y-114054841D01*
X186619720Y-114066664D01*
X186627288Y-114079290D01*
X186633582Y-114092597D01*
X186638541Y-114106457D01*
X186642118Y-114120736D01*
X186644278Y-114135297D01*
X186645000Y-114150000D01*
X186645000Y-114450000D01*
X186644278Y-114464703D01*
X186642118Y-114479264D01*
X186638541Y-114493543D01*
X186633582Y-114507403D01*
X186627288Y-114520710D01*
X186619720Y-114533336D01*
X186610952Y-114545159D01*
X186601066Y-114556066D01*
X186590159Y-114565952D01*
X186578336Y-114574720D01*
X186565710Y-114582288D01*
X186552403Y-114588582D01*
X186538543Y-114593541D01*
X186524264Y-114597118D01*
X186509703Y-114599278D01*
X186495000Y-114600000D01*
X185320000Y-114600000D01*
X185305297Y-114599278D01*
X185290736Y-114597118D01*
X185276457Y-114593541D01*
X185262597Y-114588582D01*
X185249290Y-114582288D01*
X185236664Y-114574720D01*
X185224841Y-114565952D01*
X185213934Y-114556066D01*
X185204048Y-114545159D01*
X185195280Y-114533336D01*
X185187712Y-114520710D01*
X185181418Y-114507403D01*
X185176459Y-114493543D01*
X185172882Y-114479264D01*
X185170722Y-114464703D01*
X185170000Y-114450000D01*
X185170000Y-114150000D01*
X185170722Y-114135297D01*
X185172882Y-114120736D01*
X185176459Y-114106457D01*
X185181418Y-114092597D01*
X185187712Y-114079290D01*
X185195280Y-114066664D01*
X185204048Y-114054841D01*
X185213934Y-114043934D01*
X185224841Y-114034048D01*
X185236664Y-114025280D01*
X185249290Y-114017712D01*
X185262597Y-114011418D01*
X185276457Y-114006459D01*
X185290736Y-114002882D01*
X185305297Y-114000722D01*
X185320000Y-114000000D01*
X186495000Y-114000000D01*
X186509703Y-114000722D01*
G37*
G04 #@! TD.AperFunction*
G04 #@! TA.AperFunction,SMDPad,CuDef*
G36*
X186509703Y-112730722D02*
G01*
X186524264Y-112732882D01*
X186538543Y-112736459D01*
X186552403Y-112741418D01*
X186565710Y-112747712D01*
X186578336Y-112755280D01*
X186590159Y-112764048D01*
X186601066Y-112773934D01*
X186610952Y-112784841D01*
X186619720Y-112796664D01*
X186627288Y-112809290D01*
X186633582Y-112822597D01*
X186638541Y-112836457D01*
X186642118Y-112850736D01*
X186644278Y-112865297D01*
X186645000Y-112880000D01*
X186645000Y-113180000D01*
X186644278Y-113194703D01*
X186642118Y-113209264D01*
X186638541Y-113223543D01*
X186633582Y-113237403D01*
X186627288Y-113250710D01*
X186619720Y-113263336D01*
X186610952Y-113275159D01*
X186601066Y-113286066D01*
X186590159Y-113295952D01*
X186578336Y-113304720D01*
X186565710Y-113312288D01*
X186552403Y-113318582D01*
X186538543Y-113323541D01*
X186524264Y-113327118D01*
X186509703Y-113329278D01*
X186495000Y-113330000D01*
X185320000Y-113330000D01*
X185305297Y-113329278D01*
X185290736Y-113327118D01*
X185276457Y-113323541D01*
X185262597Y-113318582D01*
X185249290Y-113312288D01*
X185236664Y-113304720D01*
X185224841Y-113295952D01*
X185213934Y-113286066D01*
X185204048Y-113275159D01*
X185195280Y-113263336D01*
X185187712Y-113250710D01*
X185181418Y-113237403D01*
X185176459Y-113223543D01*
X185172882Y-113209264D01*
X185170722Y-113194703D01*
X185170000Y-113180000D01*
X185170000Y-112880000D01*
X185170722Y-112865297D01*
X185172882Y-112850736D01*
X185176459Y-112836457D01*
X185181418Y-112822597D01*
X185187712Y-112809290D01*
X185195280Y-112796664D01*
X185204048Y-112784841D01*
X185213934Y-112773934D01*
X185224841Y-112764048D01*
X185236664Y-112755280D01*
X185249290Y-112747712D01*
X185262597Y-112741418D01*
X185276457Y-112736459D01*
X185290736Y-112732882D01*
X185305297Y-112730722D01*
X185320000Y-112730000D01*
X186495000Y-112730000D01*
X186509703Y-112730722D01*
G37*
G04 #@! TD.AperFunction*
G04 #@! TA.AperFunction,SMDPad,CuDef*
G36*
X184314703Y-110540722D02*
G01*
X184329264Y-110542882D01*
X184343543Y-110546459D01*
X184357403Y-110551418D01*
X184370710Y-110557712D01*
X184383336Y-110565280D01*
X184395159Y-110574048D01*
X184406066Y-110583934D01*
X184415952Y-110594841D01*
X184424720Y-110606664D01*
X184432288Y-110619290D01*
X184438582Y-110632597D01*
X184443541Y-110646457D01*
X184447118Y-110660736D01*
X184449278Y-110675297D01*
X184450000Y-110690000D01*
X184450000Y-111865000D01*
X184449278Y-111879703D01*
X184447118Y-111894264D01*
X184443541Y-111908543D01*
X184438582Y-111922403D01*
X184432288Y-111935710D01*
X184424720Y-111948336D01*
X184415952Y-111960159D01*
X184406066Y-111971066D01*
X184395159Y-111980952D01*
X184383336Y-111989720D01*
X184370710Y-111997288D01*
X184357403Y-112003582D01*
X184343543Y-112008541D01*
X184329264Y-112012118D01*
X184314703Y-112014278D01*
X184300000Y-112015000D01*
X184000000Y-112015000D01*
X183985297Y-112014278D01*
X183970736Y-112012118D01*
X183956457Y-112008541D01*
X183942597Y-112003582D01*
X183929290Y-111997288D01*
X183916664Y-111989720D01*
X183904841Y-111980952D01*
X183893934Y-111971066D01*
X183884048Y-111960159D01*
X183875280Y-111948336D01*
X183867712Y-111935710D01*
X183861418Y-111922403D01*
X183856459Y-111908543D01*
X183852882Y-111894264D01*
X183850722Y-111879703D01*
X183850000Y-111865000D01*
X183850000Y-110690000D01*
X183850722Y-110675297D01*
X183852882Y-110660736D01*
X183856459Y-110646457D01*
X183861418Y-110632597D01*
X183867712Y-110619290D01*
X183875280Y-110606664D01*
X183884048Y-110594841D01*
X183893934Y-110583934D01*
X183904841Y-110574048D01*
X183916664Y-110565280D01*
X183929290Y-110557712D01*
X183942597Y-110551418D01*
X183956457Y-110546459D01*
X183970736Y-110542882D01*
X183985297Y-110540722D01*
X184000000Y-110540000D01*
X184300000Y-110540000D01*
X184314703Y-110540722D01*
G37*
G04 #@! TD.AperFunction*
G04 #@! TA.AperFunction,SMDPad,CuDef*
G36*
X183044703Y-110540722D02*
G01*
X183059264Y-110542882D01*
X183073543Y-110546459D01*
X183087403Y-110551418D01*
X183100710Y-110557712D01*
X183113336Y-110565280D01*
X183125159Y-110574048D01*
X183136066Y-110583934D01*
X183145952Y-110594841D01*
X183154720Y-110606664D01*
X183162288Y-110619290D01*
X183168582Y-110632597D01*
X183173541Y-110646457D01*
X183177118Y-110660736D01*
X183179278Y-110675297D01*
X183180000Y-110690000D01*
X183180000Y-111865000D01*
X183179278Y-111879703D01*
X183177118Y-111894264D01*
X183173541Y-111908543D01*
X183168582Y-111922403D01*
X183162288Y-111935710D01*
X183154720Y-111948336D01*
X183145952Y-111960159D01*
X183136066Y-111971066D01*
X183125159Y-111980952D01*
X183113336Y-111989720D01*
X183100710Y-111997288D01*
X183087403Y-112003582D01*
X183073543Y-112008541D01*
X183059264Y-112012118D01*
X183044703Y-112014278D01*
X183030000Y-112015000D01*
X182730000Y-112015000D01*
X182715297Y-112014278D01*
X182700736Y-112012118D01*
X182686457Y-112008541D01*
X182672597Y-112003582D01*
X182659290Y-111997288D01*
X182646664Y-111989720D01*
X182634841Y-111980952D01*
X182623934Y-111971066D01*
X182614048Y-111960159D01*
X182605280Y-111948336D01*
X182597712Y-111935710D01*
X182591418Y-111922403D01*
X182586459Y-111908543D01*
X182582882Y-111894264D01*
X182580722Y-111879703D01*
X182580000Y-111865000D01*
X182580000Y-110690000D01*
X182580722Y-110675297D01*
X182582882Y-110660736D01*
X182586459Y-110646457D01*
X182591418Y-110632597D01*
X182597712Y-110619290D01*
X182605280Y-110606664D01*
X182614048Y-110594841D01*
X182623934Y-110583934D01*
X182634841Y-110574048D01*
X182646664Y-110565280D01*
X182659290Y-110557712D01*
X182672597Y-110551418D01*
X182686457Y-110546459D01*
X182700736Y-110542882D01*
X182715297Y-110540722D01*
X182730000Y-110540000D01*
X183030000Y-110540000D01*
X183044703Y-110540722D01*
G37*
G04 #@! TD.AperFunction*
G04 #@! TA.AperFunction,SMDPad,CuDef*
G36*
X181774703Y-110540722D02*
G01*
X181789264Y-110542882D01*
X181803543Y-110546459D01*
X181817403Y-110551418D01*
X181830710Y-110557712D01*
X181843336Y-110565280D01*
X181855159Y-110574048D01*
X181866066Y-110583934D01*
X181875952Y-110594841D01*
X181884720Y-110606664D01*
X181892288Y-110619290D01*
X181898582Y-110632597D01*
X181903541Y-110646457D01*
X181907118Y-110660736D01*
X181909278Y-110675297D01*
X181910000Y-110690000D01*
X181910000Y-111865000D01*
X181909278Y-111879703D01*
X181907118Y-111894264D01*
X181903541Y-111908543D01*
X181898582Y-111922403D01*
X181892288Y-111935710D01*
X181884720Y-111948336D01*
X181875952Y-111960159D01*
X181866066Y-111971066D01*
X181855159Y-111980952D01*
X181843336Y-111989720D01*
X181830710Y-111997288D01*
X181817403Y-112003582D01*
X181803543Y-112008541D01*
X181789264Y-112012118D01*
X181774703Y-112014278D01*
X181760000Y-112015000D01*
X181460000Y-112015000D01*
X181445297Y-112014278D01*
X181430736Y-112012118D01*
X181416457Y-112008541D01*
X181402597Y-112003582D01*
X181389290Y-111997288D01*
X181376664Y-111989720D01*
X181364841Y-111980952D01*
X181353934Y-111971066D01*
X181344048Y-111960159D01*
X181335280Y-111948336D01*
X181327712Y-111935710D01*
X181321418Y-111922403D01*
X181316459Y-111908543D01*
X181312882Y-111894264D01*
X181310722Y-111879703D01*
X181310000Y-111865000D01*
X181310000Y-110690000D01*
X181310722Y-110675297D01*
X181312882Y-110660736D01*
X181316459Y-110646457D01*
X181321418Y-110632597D01*
X181327712Y-110619290D01*
X181335280Y-110606664D01*
X181344048Y-110594841D01*
X181353934Y-110583934D01*
X181364841Y-110574048D01*
X181376664Y-110565280D01*
X181389290Y-110557712D01*
X181402597Y-110551418D01*
X181416457Y-110546459D01*
X181430736Y-110542882D01*
X181445297Y-110540722D01*
X181460000Y-110540000D01*
X181760000Y-110540000D01*
X181774703Y-110540722D01*
G37*
G04 #@! TD.AperFunction*
G04 #@! TA.AperFunction,SMDPad,CuDef*
G36*
X180504703Y-110540722D02*
G01*
X180519264Y-110542882D01*
X180533543Y-110546459D01*
X180547403Y-110551418D01*
X180560710Y-110557712D01*
X180573336Y-110565280D01*
X180585159Y-110574048D01*
X180596066Y-110583934D01*
X180605952Y-110594841D01*
X180614720Y-110606664D01*
X180622288Y-110619290D01*
X180628582Y-110632597D01*
X180633541Y-110646457D01*
X180637118Y-110660736D01*
X180639278Y-110675297D01*
X180640000Y-110690000D01*
X180640000Y-111865000D01*
X180639278Y-111879703D01*
X180637118Y-111894264D01*
X180633541Y-111908543D01*
X180628582Y-111922403D01*
X180622288Y-111935710D01*
X180614720Y-111948336D01*
X180605952Y-111960159D01*
X180596066Y-111971066D01*
X180585159Y-111980952D01*
X180573336Y-111989720D01*
X180560710Y-111997288D01*
X180547403Y-112003582D01*
X180533543Y-112008541D01*
X180519264Y-112012118D01*
X180504703Y-112014278D01*
X180490000Y-112015000D01*
X180190000Y-112015000D01*
X180175297Y-112014278D01*
X180160736Y-112012118D01*
X180146457Y-112008541D01*
X180132597Y-112003582D01*
X180119290Y-111997288D01*
X180106664Y-111989720D01*
X180094841Y-111980952D01*
X180083934Y-111971066D01*
X180074048Y-111960159D01*
X180065280Y-111948336D01*
X180057712Y-111935710D01*
X180051418Y-111922403D01*
X180046459Y-111908543D01*
X180042882Y-111894264D01*
X180040722Y-111879703D01*
X180040000Y-111865000D01*
X180040000Y-110690000D01*
X180040722Y-110675297D01*
X180042882Y-110660736D01*
X180046459Y-110646457D01*
X180051418Y-110632597D01*
X180057712Y-110619290D01*
X180065280Y-110606664D01*
X180074048Y-110594841D01*
X180083934Y-110583934D01*
X180094841Y-110574048D01*
X180106664Y-110565280D01*
X180119290Y-110557712D01*
X180132597Y-110551418D01*
X180146457Y-110546459D01*
X180160736Y-110542882D01*
X180175297Y-110540722D01*
X180190000Y-110540000D01*
X180490000Y-110540000D01*
X180504703Y-110540722D01*
G37*
G04 #@! TD.AperFunction*
G04 #@! TA.AperFunction,SMDPad,CuDef*
G36*
X179234703Y-110540722D02*
G01*
X179249264Y-110542882D01*
X179263543Y-110546459D01*
X179277403Y-110551418D01*
X179290710Y-110557712D01*
X179303336Y-110565280D01*
X179315159Y-110574048D01*
X179326066Y-110583934D01*
X179335952Y-110594841D01*
X179344720Y-110606664D01*
X179352288Y-110619290D01*
X179358582Y-110632597D01*
X179363541Y-110646457D01*
X179367118Y-110660736D01*
X179369278Y-110675297D01*
X179370000Y-110690000D01*
X179370000Y-111865000D01*
X179369278Y-111879703D01*
X179367118Y-111894264D01*
X179363541Y-111908543D01*
X179358582Y-111922403D01*
X179352288Y-111935710D01*
X179344720Y-111948336D01*
X179335952Y-111960159D01*
X179326066Y-111971066D01*
X179315159Y-111980952D01*
X179303336Y-111989720D01*
X179290710Y-111997288D01*
X179277403Y-112003582D01*
X179263543Y-112008541D01*
X179249264Y-112012118D01*
X179234703Y-112014278D01*
X179220000Y-112015000D01*
X178920000Y-112015000D01*
X178905297Y-112014278D01*
X178890736Y-112012118D01*
X178876457Y-112008541D01*
X178862597Y-112003582D01*
X178849290Y-111997288D01*
X178836664Y-111989720D01*
X178824841Y-111980952D01*
X178813934Y-111971066D01*
X178804048Y-111960159D01*
X178795280Y-111948336D01*
X178787712Y-111935710D01*
X178781418Y-111922403D01*
X178776459Y-111908543D01*
X178772882Y-111894264D01*
X178770722Y-111879703D01*
X178770000Y-111865000D01*
X178770000Y-110690000D01*
X178770722Y-110675297D01*
X178772882Y-110660736D01*
X178776459Y-110646457D01*
X178781418Y-110632597D01*
X178787712Y-110619290D01*
X178795280Y-110606664D01*
X178804048Y-110594841D01*
X178813934Y-110583934D01*
X178824841Y-110574048D01*
X178836664Y-110565280D01*
X178849290Y-110557712D01*
X178862597Y-110551418D01*
X178876457Y-110546459D01*
X178890736Y-110542882D01*
X178905297Y-110540722D01*
X178920000Y-110540000D01*
X179220000Y-110540000D01*
X179234703Y-110540722D01*
G37*
G04 #@! TD.AperFunction*
G04 #@! TA.AperFunction,SMDPad,CuDef*
G36*
X177964703Y-110540722D02*
G01*
X177979264Y-110542882D01*
X177993543Y-110546459D01*
X178007403Y-110551418D01*
X178020710Y-110557712D01*
X178033336Y-110565280D01*
X178045159Y-110574048D01*
X178056066Y-110583934D01*
X178065952Y-110594841D01*
X178074720Y-110606664D01*
X178082288Y-110619290D01*
X178088582Y-110632597D01*
X178093541Y-110646457D01*
X178097118Y-110660736D01*
X178099278Y-110675297D01*
X178100000Y-110690000D01*
X178100000Y-111865000D01*
X178099278Y-111879703D01*
X178097118Y-111894264D01*
X178093541Y-111908543D01*
X178088582Y-111922403D01*
X178082288Y-111935710D01*
X178074720Y-111948336D01*
X178065952Y-111960159D01*
X178056066Y-111971066D01*
X178045159Y-111980952D01*
X178033336Y-111989720D01*
X178020710Y-111997288D01*
X178007403Y-112003582D01*
X177993543Y-112008541D01*
X177979264Y-112012118D01*
X177964703Y-112014278D01*
X177950000Y-112015000D01*
X177650000Y-112015000D01*
X177635297Y-112014278D01*
X177620736Y-112012118D01*
X177606457Y-112008541D01*
X177592597Y-112003582D01*
X177579290Y-111997288D01*
X177566664Y-111989720D01*
X177554841Y-111980952D01*
X177543934Y-111971066D01*
X177534048Y-111960159D01*
X177525280Y-111948336D01*
X177517712Y-111935710D01*
X177511418Y-111922403D01*
X177506459Y-111908543D01*
X177502882Y-111894264D01*
X177500722Y-111879703D01*
X177500000Y-111865000D01*
X177500000Y-110690000D01*
X177500722Y-110675297D01*
X177502882Y-110660736D01*
X177506459Y-110646457D01*
X177511418Y-110632597D01*
X177517712Y-110619290D01*
X177525280Y-110606664D01*
X177534048Y-110594841D01*
X177543934Y-110583934D01*
X177554841Y-110574048D01*
X177566664Y-110565280D01*
X177579290Y-110557712D01*
X177592597Y-110551418D01*
X177606457Y-110546459D01*
X177620736Y-110542882D01*
X177635297Y-110540722D01*
X177650000Y-110540000D01*
X177950000Y-110540000D01*
X177964703Y-110540722D01*
G37*
G04 #@! TD.AperFunction*
G04 #@! TA.AperFunction,SMDPad,CuDef*
G36*
X176694703Y-110540722D02*
G01*
X176709264Y-110542882D01*
X176723543Y-110546459D01*
X176737403Y-110551418D01*
X176750710Y-110557712D01*
X176763336Y-110565280D01*
X176775159Y-110574048D01*
X176786066Y-110583934D01*
X176795952Y-110594841D01*
X176804720Y-110606664D01*
X176812288Y-110619290D01*
X176818582Y-110632597D01*
X176823541Y-110646457D01*
X176827118Y-110660736D01*
X176829278Y-110675297D01*
X176830000Y-110690000D01*
X176830000Y-111865000D01*
X176829278Y-111879703D01*
X176827118Y-111894264D01*
X176823541Y-111908543D01*
X176818582Y-111922403D01*
X176812288Y-111935710D01*
X176804720Y-111948336D01*
X176795952Y-111960159D01*
X176786066Y-111971066D01*
X176775159Y-111980952D01*
X176763336Y-111989720D01*
X176750710Y-111997288D01*
X176737403Y-112003582D01*
X176723543Y-112008541D01*
X176709264Y-112012118D01*
X176694703Y-112014278D01*
X176680000Y-112015000D01*
X176380000Y-112015000D01*
X176365297Y-112014278D01*
X176350736Y-112012118D01*
X176336457Y-112008541D01*
X176322597Y-112003582D01*
X176309290Y-111997288D01*
X176296664Y-111989720D01*
X176284841Y-111980952D01*
X176273934Y-111971066D01*
X176264048Y-111960159D01*
X176255280Y-111948336D01*
X176247712Y-111935710D01*
X176241418Y-111922403D01*
X176236459Y-111908543D01*
X176232882Y-111894264D01*
X176230722Y-111879703D01*
X176230000Y-111865000D01*
X176230000Y-110690000D01*
X176230722Y-110675297D01*
X176232882Y-110660736D01*
X176236459Y-110646457D01*
X176241418Y-110632597D01*
X176247712Y-110619290D01*
X176255280Y-110606664D01*
X176264048Y-110594841D01*
X176273934Y-110583934D01*
X176284841Y-110574048D01*
X176296664Y-110565280D01*
X176309290Y-110557712D01*
X176322597Y-110551418D01*
X176336457Y-110546459D01*
X176350736Y-110542882D01*
X176365297Y-110540722D01*
X176380000Y-110540000D01*
X176680000Y-110540000D01*
X176694703Y-110540722D01*
G37*
G04 #@! TD.AperFunction*
G04 #@! TA.AperFunction,SMDPad,CuDef*
G36*
X175424703Y-110540722D02*
G01*
X175439264Y-110542882D01*
X175453543Y-110546459D01*
X175467403Y-110551418D01*
X175480710Y-110557712D01*
X175493336Y-110565280D01*
X175505159Y-110574048D01*
X175516066Y-110583934D01*
X175525952Y-110594841D01*
X175534720Y-110606664D01*
X175542288Y-110619290D01*
X175548582Y-110632597D01*
X175553541Y-110646457D01*
X175557118Y-110660736D01*
X175559278Y-110675297D01*
X175560000Y-110690000D01*
X175560000Y-111865000D01*
X175559278Y-111879703D01*
X175557118Y-111894264D01*
X175553541Y-111908543D01*
X175548582Y-111922403D01*
X175542288Y-111935710D01*
X175534720Y-111948336D01*
X175525952Y-111960159D01*
X175516066Y-111971066D01*
X175505159Y-111980952D01*
X175493336Y-111989720D01*
X175480710Y-111997288D01*
X175467403Y-112003582D01*
X175453543Y-112008541D01*
X175439264Y-112012118D01*
X175424703Y-112014278D01*
X175410000Y-112015000D01*
X175110000Y-112015000D01*
X175095297Y-112014278D01*
X175080736Y-112012118D01*
X175066457Y-112008541D01*
X175052597Y-112003582D01*
X175039290Y-111997288D01*
X175026664Y-111989720D01*
X175014841Y-111980952D01*
X175003934Y-111971066D01*
X174994048Y-111960159D01*
X174985280Y-111948336D01*
X174977712Y-111935710D01*
X174971418Y-111922403D01*
X174966459Y-111908543D01*
X174962882Y-111894264D01*
X174960722Y-111879703D01*
X174960000Y-111865000D01*
X174960000Y-110690000D01*
X174960722Y-110675297D01*
X174962882Y-110660736D01*
X174966459Y-110646457D01*
X174971418Y-110632597D01*
X174977712Y-110619290D01*
X174985280Y-110606664D01*
X174994048Y-110594841D01*
X175003934Y-110583934D01*
X175014841Y-110574048D01*
X175026664Y-110565280D01*
X175039290Y-110557712D01*
X175052597Y-110551418D01*
X175066457Y-110546459D01*
X175080736Y-110542882D01*
X175095297Y-110540722D01*
X175110000Y-110540000D01*
X175410000Y-110540000D01*
X175424703Y-110540722D01*
G37*
G04 #@! TD.AperFunction*
G04 #@! TA.AperFunction,SMDPad,CuDef*
G36*
X174154703Y-110540722D02*
G01*
X174169264Y-110542882D01*
X174183543Y-110546459D01*
X174197403Y-110551418D01*
X174210710Y-110557712D01*
X174223336Y-110565280D01*
X174235159Y-110574048D01*
X174246066Y-110583934D01*
X174255952Y-110594841D01*
X174264720Y-110606664D01*
X174272288Y-110619290D01*
X174278582Y-110632597D01*
X174283541Y-110646457D01*
X174287118Y-110660736D01*
X174289278Y-110675297D01*
X174290000Y-110690000D01*
X174290000Y-111865000D01*
X174289278Y-111879703D01*
X174287118Y-111894264D01*
X174283541Y-111908543D01*
X174278582Y-111922403D01*
X174272288Y-111935710D01*
X174264720Y-111948336D01*
X174255952Y-111960159D01*
X174246066Y-111971066D01*
X174235159Y-111980952D01*
X174223336Y-111989720D01*
X174210710Y-111997288D01*
X174197403Y-112003582D01*
X174183543Y-112008541D01*
X174169264Y-112012118D01*
X174154703Y-112014278D01*
X174140000Y-112015000D01*
X173840000Y-112015000D01*
X173825297Y-112014278D01*
X173810736Y-112012118D01*
X173796457Y-112008541D01*
X173782597Y-112003582D01*
X173769290Y-111997288D01*
X173756664Y-111989720D01*
X173744841Y-111980952D01*
X173733934Y-111971066D01*
X173724048Y-111960159D01*
X173715280Y-111948336D01*
X173707712Y-111935710D01*
X173701418Y-111922403D01*
X173696459Y-111908543D01*
X173692882Y-111894264D01*
X173690722Y-111879703D01*
X173690000Y-111865000D01*
X173690000Y-110690000D01*
X173690722Y-110675297D01*
X173692882Y-110660736D01*
X173696459Y-110646457D01*
X173701418Y-110632597D01*
X173707712Y-110619290D01*
X173715280Y-110606664D01*
X173724048Y-110594841D01*
X173733934Y-110583934D01*
X173744841Y-110574048D01*
X173756664Y-110565280D01*
X173769290Y-110557712D01*
X173782597Y-110551418D01*
X173796457Y-110546459D01*
X173810736Y-110542882D01*
X173825297Y-110540722D01*
X173840000Y-110540000D01*
X174140000Y-110540000D01*
X174154703Y-110540722D01*
G37*
G04 #@! TD.AperFunction*
G04 #@! TA.AperFunction,SMDPad,CuDef*
G36*
X172834703Y-112730722D02*
G01*
X172849264Y-112732882D01*
X172863543Y-112736459D01*
X172877403Y-112741418D01*
X172890710Y-112747712D01*
X172903336Y-112755280D01*
X172915159Y-112764048D01*
X172926066Y-112773934D01*
X172935952Y-112784841D01*
X172944720Y-112796664D01*
X172952288Y-112809290D01*
X172958582Y-112822597D01*
X172963541Y-112836457D01*
X172967118Y-112850736D01*
X172969278Y-112865297D01*
X172970000Y-112880000D01*
X172970000Y-113180000D01*
X172969278Y-113194703D01*
X172967118Y-113209264D01*
X172963541Y-113223543D01*
X172958582Y-113237403D01*
X172952288Y-113250710D01*
X172944720Y-113263336D01*
X172935952Y-113275159D01*
X172926066Y-113286066D01*
X172915159Y-113295952D01*
X172903336Y-113304720D01*
X172890710Y-113312288D01*
X172877403Y-113318582D01*
X172863543Y-113323541D01*
X172849264Y-113327118D01*
X172834703Y-113329278D01*
X172820000Y-113330000D01*
X171645000Y-113330000D01*
X171630297Y-113329278D01*
X171615736Y-113327118D01*
X171601457Y-113323541D01*
X171587597Y-113318582D01*
X171574290Y-113312288D01*
X171561664Y-113304720D01*
X171549841Y-113295952D01*
X171538934Y-113286066D01*
X171529048Y-113275159D01*
X171520280Y-113263336D01*
X171512712Y-113250710D01*
X171506418Y-113237403D01*
X171501459Y-113223543D01*
X171497882Y-113209264D01*
X171495722Y-113194703D01*
X171495000Y-113180000D01*
X171495000Y-112880000D01*
X171495722Y-112865297D01*
X171497882Y-112850736D01*
X171501459Y-112836457D01*
X171506418Y-112822597D01*
X171512712Y-112809290D01*
X171520280Y-112796664D01*
X171529048Y-112784841D01*
X171538934Y-112773934D01*
X171549841Y-112764048D01*
X171561664Y-112755280D01*
X171574290Y-112747712D01*
X171587597Y-112741418D01*
X171601457Y-112736459D01*
X171615736Y-112732882D01*
X171630297Y-112730722D01*
X171645000Y-112730000D01*
X172820000Y-112730000D01*
X172834703Y-112730722D01*
G37*
G04 #@! TD.AperFunction*
G04 #@! TA.AperFunction,SMDPad,CuDef*
G36*
X172834703Y-114000722D02*
G01*
X172849264Y-114002882D01*
X172863543Y-114006459D01*
X172877403Y-114011418D01*
X172890710Y-114017712D01*
X172903336Y-114025280D01*
X172915159Y-114034048D01*
X172926066Y-114043934D01*
X172935952Y-114054841D01*
X172944720Y-114066664D01*
X172952288Y-114079290D01*
X172958582Y-114092597D01*
X172963541Y-114106457D01*
X172967118Y-114120736D01*
X172969278Y-114135297D01*
X172970000Y-114150000D01*
X172970000Y-114450000D01*
X172969278Y-114464703D01*
X172967118Y-114479264D01*
X172963541Y-114493543D01*
X172958582Y-114507403D01*
X172952288Y-114520710D01*
X172944720Y-114533336D01*
X172935952Y-114545159D01*
X172926066Y-114556066D01*
X172915159Y-114565952D01*
X172903336Y-114574720D01*
X172890710Y-114582288D01*
X172877403Y-114588582D01*
X172863543Y-114593541D01*
X172849264Y-114597118D01*
X172834703Y-114599278D01*
X172820000Y-114600000D01*
X171645000Y-114600000D01*
X171630297Y-114599278D01*
X171615736Y-114597118D01*
X171601457Y-114593541D01*
X171587597Y-114588582D01*
X171574290Y-114582288D01*
X171561664Y-114574720D01*
X171549841Y-114565952D01*
X171538934Y-114556066D01*
X171529048Y-114545159D01*
X171520280Y-114533336D01*
X171512712Y-114520710D01*
X171506418Y-114507403D01*
X171501459Y-114493543D01*
X171497882Y-114479264D01*
X171495722Y-114464703D01*
X171495000Y-114450000D01*
X171495000Y-114150000D01*
X171495722Y-114135297D01*
X171497882Y-114120736D01*
X171501459Y-114106457D01*
X171506418Y-114092597D01*
X171512712Y-114079290D01*
X171520280Y-114066664D01*
X171529048Y-114054841D01*
X171538934Y-114043934D01*
X171549841Y-114034048D01*
X171561664Y-114025280D01*
X171574290Y-114017712D01*
X171587597Y-114011418D01*
X171601457Y-114006459D01*
X171615736Y-114002882D01*
X171630297Y-114000722D01*
X171645000Y-114000000D01*
X172820000Y-114000000D01*
X172834703Y-114000722D01*
G37*
G04 #@! TD.AperFunction*
G04 #@! TA.AperFunction,SMDPad,CuDef*
G36*
X172834703Y-115270722D02*
G01*
X172849264Y-115272882D01*
X172863543Y-115276459D01*
X172877403Y-115281418D01*
X172890710Y-115287712D01*
X172903336Y-115295280D01*
X172915159Y-115304048D01*
X172926066Y-115313934D01*
X172935952Y-115324841D01*
X172944720Y-115336664D01*
X172952288Y-115349290D01*
X172958582Y-115362597D01*
X172963541Y-115376457D01*
X172967118Y-115390736D01*
X172969278Y-115405297D01*
X172970000Y-115420000D01*
X172970000Y-115720000D01*
X172969278Y-115734703D01*
X172967118Y-115749264D01*
X172963541Y-115763543D01*
X172958582Y-115777403D01*
X172952288Y-115790710D01*
X172944720Y-115803336D01*
X172935952Y-115815159D01*
X172926066Y-115826066D01*
X172915159Y-115835952D01*
X172903336Y-115844720D01*
X172890710Y-115852288D01*
X172877403Y-115858582D01*
X172863543Y-115863541D01*
X172849264Y-115867118D01*
X172834703Y-115869278D01*
X172820000Y-115870000D01*
X171645000Y-115870000D01*
X171630297Y-115869278D01*
X171615736Y-115867118D01*
X171601457Y-115863541D01*
X171587597Y-115858582D01*
X171574290Y-115852288D01*
X171561664Y-115844720D01*
X171549841Y-115835952D01*
X171538934Y-115826066D01*
X171529048Y-115815159D01*
X171520280Y-115803336D01*
X171512712Y-115790710D01*
X171506418Y-115777403D01*
X171501459Y-115763543D01*
X171497882Y-115749264D01*
X171495722Y-115734703D01*
X171495000Y-115720000D01*
X171495000Y-115420000D01*
X171495722Y-115405297D01*
X171497882Y-115390736D01*
X171501459Y-115376457D01*
X171506418Y-115362597D01*
X171512712Y-115349290D01*
X171520280Y-115336664D01*
X171529048Y-115324841D01*
X171538934Y-115313934D01*
X171549841Y-115304048D01*
X171561664Y-115295280D01*
X171574290Y-115287712D01*
X171587597Y-115281418D01*
X171601457Y-115276459D01*
X171615736Y-115272882D01*
X171630297Y-115270722D01*
X171645000Y-115270000D01*
X172820000Y-115270000D01*
X172834703Y-115270722D01*
G37*
G04 #@! TD.AperFunction*
G04 #@! TA.AperFunction,SMDPad,CuDef*
G36*
X172834703Y-116540722D02*
G01*
X172849264Y-116542882D01*
X172863543Y-116546459D01*
X172877403Y-116551418D01*
X172890710Y-116557712D01*
X172903336Y-116565280D01*
X172915159Y-116574048D01*
X172926066Y-116583934D01*
X172935952Y-116594841D01*
X172944720Y-116606664D01*
X172952288Y-116619290D01*
X172958582Y-116632597D01*
X172963541Y-116646457D01*
X172967118Y-116660736D01*
X172969278Y-116675297D01*
X172970000Y-116690000D01*
X172970000Y-116990000D01*
X172969278Y-117004703D01*
X172967118Y-117019264D01*
X172963541Y-117033543D01*
X172958582Y-117047403D01*
X172952288Y-117060710D01*
X172944720Y-117073336D01*
X172935952Y-117085159D01*
X172926066Y-117096066D01*
X172915159Y-117105952D01*
X172903336Y-117114720D01*
X172890710Y-117122288D01*
X172877403Y-117128582D01*
X172863543Y-117133541D01*
X172849264Y-117137118D01*
X172834703Y-117139278D01*
X172820000Y-117140000D01*
X171645000Y-117140000D01*
X171630297Y-117139278D01*
X171615736Y-117137118D01*
X171601457Y-117133541D01*
X171587597Y-117128582D01*
X171574290Y-117122288D01*
X171561664Y-117114720D01*
X171549841Y-117105952D01*
X171538934Y-117096066D01*
X171529048Y-117085159D01*
X171520280Y-117073336D01*
X171512712Y-117060710D01*
X171506418Y-117047403D01*
X171501459Y-117033543D01*
X171497882Y-117019264D01*
X171495722Y-117004703D01*
X171495000Y-116990000D01*
X171495000Y-116690000D01*
X171495722Y-116675297D01*
X171497882Y-116660736D01*
X171501459Y-116646457D01*
X171506418Y-116632597D01*
X171512712Y-116619290D01*
X171520280Y-116606664D01*
X171529048Y-116594841D01*
X171538934Y-116583934D01*
X171549841Y-116574048D01*
X171561664Y-116565280D01*
X171574290Y-116557712D01*
X171587597Y-116551418D01*
X171601457Y-116546459D01*
X171615736Y-116542882D01*
X171630297Y-116540722D01*
X171645000Y-116540000D01*
X172820000Y-116540000D01*
X172834703Y-116540722D01*
G37*
G04 #@! TD.AperFunction*
G04 #@! TA.AperFunction,SMDPad,CuDef*
G36*
X172834703Y-117810722D02*
G01*
X172849264Y-117812882D01*
X172863543Y-117816459D01*
X172877403Y-117821418D01*
X172890710Y-117827712D01*
X172903336Y-117835280D01*
X172915159Y-117844048D01*
X172926066Y-117853934D01*
X172935952Y-117864841D01*
X172944720Y-117876664D01*
X172952288Y-117889290D01*
X172958582Y-117902597D01*
X172963541Y-117916457D01*
X172967118Y-117930736D01*
X172969278Y-117945297D01*
X172970000Y-117960000D01*
X172970000Y-118260000D01*
X172969278Y-118274703D01*
X172967118Y-118289264D01*
X172963541Y-118303543D01*
X172958582Y-118317403D01*
X172952288Y-118330710D01*
X172944720Y-118343336D01*
X172935952Y-118355159D01*
X172926066Y-118366066D01*
X172915159Y-118375952D01*
X172903336Y-118384720D01*
X172890710Y-118392288D01*
X172877403Y-118398582D01*
X172863543Y-118403541D01*
X172849264Y-118407118D01*
X172834703Y-118409278D01*
X172820000Y-118410000D01*
X171645000Y-118410000D01*
X171630297Y-118409278D01*
X171615736Y-118407118D01*
X171601457Y-118403541D01*
X171587597Y-118398582D01*
X171574290Y-118392288D01*
X171561664Y-118384720D01*
X171549841Y-118375952D01*
X171538934Y-118366066D01*
X171529048Y-118355159D01*
X171520280Y-118343336D01*
X171512712Y-118330710D01*
X171506418Y-118317403D01*
X171501459Y-118303543D01*
X171497882Y-118289264D01*
X171495722Y-118274703D01*
X171495000Y-118260000D01*
X171495000Y-117960000D01*
X171495722Y-117945297D01*
X171497882Y-117930736D01*
X171501459Y-117916457D01*
X171506418Y-117902597D01*
X171512712Y-117889290D01*
X171520280Y-117876664D01*
X171529048Y-117864841D01*
X171538934Y-117853934D01*
X171549841Y-117844048D01*
X171561664Y-117835280D01*
X171574290Y-117827712D01*
X171587597Y-117821418D01*
X171601457Y-117816459D01*
X171615736Y-117812882D01*
X171630297Y-117810722D01*
X171645000Y-117810000D01*
X172820000Y-117810000D01*
X172834703Y-117810722D01*
G37*
G04 #@! TD.AperFunction*
G04 #@! TA.AperFunction,SMDPad,CuDef*
G36*
X172834703Y-119080722D02*
G01*
X172849264Y-119082882D01*
X172863543Y-119086459D01*
X172877403Y-119091418D01*
X172890710Y-119097712D01*
X172903336Y-119105280D01*
X172915159Y-119114048D01*
X172926066Y-119123934D01*
X172935952Y-119134841D01*
X172944720Y-119146664D01*
X172952288Y-119159290D01*
X172958582Y-119172597D01*
X172963541Y-119186457D01*
X172967118Y-119200736D01*
X172969278Y-119215297D01*
X172970000Y-119230000D01*
X172970000Y-119530000D01*
X172969278Y-119544703D01*
X172967118Y-119559264D01*
X172963541Y-119573543D01*
X172958582Y-119587403D01*
X172952288Y-119600710D01*
X172944720Y-119613336D01*
X172935952Y-119625159D01*
X172926066Y-119636066D01*
X172915159Y-119645952D01*
X172903336Y-119654720D01*
X172890710Y-119662288D01*
X172877403Y-119668582D01*
X172863543Y-119673541D01*
X172849264Y-119677118D01*
X172834703Y-119679278D01*
X172820000Y-119680000D01*
X171645000Y-119680000D01*
X171630297Y-119679278D01*
X171615736Y-119677118D01*
X171601457Y-119673541D01*
X171587597Y-119668582D01*
X171574290Y-119662288D01*
X171561664Y-119654720D01*
X171549841Y-119645952D01*
X171538934Y-119636066D01*
X171529048Y-119625159D01*
X171520280Y-119613336D01*
X171512712Y-119600710D01*
X171506418Y-119587403D01*
X171501459Y-119573543D01*
X171497882Y-119559264D01*
X171495722Y-119544703D01*
X171495000Y-119530000D01*
X171495000Y-119230000D01*
X171495722Y-119215297D01*
X171497882Y-119200736D01*
X171501459Y-119186457D01*
X171506418Y-119172597D01*
X171512712Y-119159290D01*
X171520280Y-119146664D01*
X171529048Y-119134841D01*
X171538934Y-119123934D01*
X171549841Y-119114048D01*
X171561664Y-119105280D01*
X171574290Y-119097712D01*
X171587597Y-119091418D01*
X171601457Y-119086459D01*
X171615736Y-119082882D01*
X171630297Y-119080722D01*
X171645000Y-119080000D01*
X172820000Y-119080000D01*
X172834703Y-119080722D01*
G37*
G04 #@! TD.AperFunction*
G04 #@! TA.AperFunction,SMDPad,CuDef*
G36*
X172834703Y-120350722D02*
G01*
X172849264Y-120352882D01*
X172863543Y-120356459D01*
X172877403Y-120361418D01*
X172890710Y-120367712D01*
X172903336Y-120375280D01*
X172915159Y-120384048D01*
X172926066Y-120393934D01*
X172935952Y-120404841D01*
X172944720Y-120416664D01*
X172952288Y-120429290D01*
X172958582Y-120442597D01*
X172963541Y-120456457D01*
X172967118Y-120470736D01*
X172969278Y-120485297D01*
X172970000Y-120500000D01*
X172970000Y-120800000D01*
X172969278Y-120814703D01*
X172967118Y-120829264D01*
X172963541Y-120843543D01*
X172958582Y-120857403D01*
X172952288Y-120870710D01*
X172944720Y-120883336D01*
X172935952Y-120895159D01*
X172926066Y-120906066D01*
X172915159Y-120915952D01*
X172903336Y-120924720D01*
X172890710Y-120932288D01*
X172877403Y-120938582D01*
X172863543Y-120943541D01*
X172849264Y-120947118D01*
X172834703Y-120949278D01*
X172820000Y-120950000D01*
X171645000Y-120950000D01*
X171630297Y-120949278D01*
X171615736Y-120947118D01*
X171601457Y-120943541D01*
X171587597Y-120938582D01*
X171574290Y-120932288D01*
X171561664Y-120924720D01*
X171549841Y-120915952D01*
X171538934Y-120906066D01*
X171529048Y-120895159D01*
X171520280Y-120883336D01*
X171512712Y-120870710D01*
X171506418Y-120857403D01*
X171501459Y-120843543D01*
X171497882Y-120829264D01*
X171495722Y-120814703D01*
X171495000Y-120800000D01*
X171495000Y-120500000D01*
X171495722Y-120485297D01*
X171497882Y-120470736D01*
X171501459Y-120456457D01*
X171506418Y-120442597D01*
X171512712Y-120429290D01*
X171520280Y-120416664D01*
X171529048Y-120404841D01*
X171538934Y-120393934D01*
X171549841Y-120384048D01*
X171561664Y-120375280D01*
X171574290Y-120367712D01*
X171587597Y-120361418D01*
X171601457Y-120356459D01*
X171615736Y-120352882D01*
X171630297Y-120350722D01*
X171645000Y-120350000D01*
X172820000Y-120350000D01*
X172834703Y-120350722D01*
G37*
G04 #@! TD.AperFunction*
G04 #@! TA.AperFunction,SMDPad,CuDef*
G36*
X174154703Y-121665722D02*
G01*
X174169264Y-121667882D01*
X174183543Y-121671459D01*
X174197403Y-121676418D01*
X174210710Y-121682712D01*
X174223336Y-121690280D01*
X174235159Y-121699048D01*
X174246066Y-121708934D01*
X174255952Y-121719841D01*
X174264720Y-121731664D01*
X174272288Y-121744290D01*
X174278582Y-121757597D01*
X174283541Y-121771457D01*
X174287118Y-121785736D01*
X174289278Y-121800297D01*
X174290000Y-121815000D01*
X174290000Y-122990000D01*
X174289278Y-123004703D01*
X174287118Y-123019264D01*
X174283541Y-123033543D01*
X174278582Y-123047403D01*
X174272288Y-123060710D01*
X174264720Y-123073336D01*
X174255952Y-123085159D01*
X174246066Y-123096066D01*
X174235159Y-123105952D01*
X174223336Y-123114720D01*
X174210710Y-123122288D01*
X174197403Y-123128582D01*
X174183543Y-123133541D01*
X174169264Y-123137118D01*
X174154703Y-123139278D01*
X174140000Y-123140000D01*
X173840000Y-123140000D01*
X173825297Y-123139278D01*
X173810736Y-123137118D01*
X173796457Y-123133541D01*
X173782597Y-123128582D01*
X173769290Y-123122288D01*
X173756664Y-123114720D01*
X173744841Y-123105952D01*
X173733934Y-123096066D01*
X173724048Y-123085159D01*
X173715280Y-123073336D01*
X173707712Y-123060710D01*
X173701418Y-123047403D01*
X173696459Y-123033543D01*
X173692882Y-123019264D01*
X173690722Y-123004703D01*
X173690000Y-122990000D01*
X173690000Y-121815000D01*
X173690722Y-121800297D01*
X173692882Y-121785736D01*
X173696459Y-121771457D01*
X173701418Y-121757597D01*
X173707712Y-121744290D01*
X173715280Y-121731664D01*
X173724048Y-121719841D01*
X173733934Y-121708934D01*
X173744841Y-121699048D01*
X173756664Y-121690280D01*
X173769290Y-121682712D01*
X173782597Y-121676418D01*
X173796457Y-121671459D01*
X173810736Y-121667882D01*
X173825297Y-121665722D01*
X173840000Y-121665000D01*
X174140000Y-121665000D01*
X174154703Y-121665722D01*
G37*
G04 #@! TD.AperFunction*
G04 #@! TA.AperFunction,SMDPad,CuDef*
G36*
X175424703Y-121665722D02*
G01*
X175439264Y-121667882D01*
X175453543Y-121671459D01*
X175467403Y-121676418D01*
X175480710Y-121682712D01*
X175493336Y-121690280D01*
X175505159Y-121699048D01*
X175516066Y-121708934D01*
X175525952Y-121719841D01*
X175534720Y-121731664D01*
X175542288Y-121744290D01*
X175548582Y-121757597D01*
X175553541Y-121771457D01*
X175557118Y-121785736D01*
X175559278Y-121800297D01*
X175560000Y-121815000D01*
X175560000Y-122990000D01*
X175559278Y-123004703D01*
X175557118Y-123019264D01*
X175553541Y-123033543D01*
X175548582Y-123047403D01*
X175542288Y-123060710D01*
X175534720Y-123073336D01*
X175525952Y-123085159D01*
X175516066Y-123096066D01*
X175505159Y-123105952D01*
X175493336Y-123114720D01*
X175480710Y-123122288D01*
X175467403Y-123128582D01*
X175453543Y-123133541D01*
X175439264Y-123137118D01*
X175424703Y-123139278D01*
X175410000Y-123140000D01*
X175110000Y-123140000D01*
X175095297Y-123139278D01*
X175080736Y-123137118D01*
X175066457Y-123133541D01*
X175052597Y-123128582D01*
X175039290Y-123122288D01*
X175026664Y-123114720D01*
X175014841Y-123105952D01*
X175003934Y-123096066D01*
X174994048Y-123085159D01*
X174985280Y-123073336D01*
X174977712Y-123060710D01*
X174971418Y-123047403D01*
X174966459Y-123033543D01*
X174962882Y-123019264D01*
X174960722Y-123004703D01*
X174960000Y-122990000D01*
X174960000Y-121815000D01*
X174960722Y-121800297D01*
X174962882Y-121785736D01*
X174966459Y-121771457D01*
X174971418Y-121757597D01*
X174977712Y-121744290D01*
X174985280Y-121731664D01*
X174994048Y-121719841D01*
X175003934Y-121708934D01*
X175014841Y-121699048D01*
X175026664Y-121690280D01*
X175039290Y-121682712D01*
X175052597Y-121676418D01*
X175066457Y-121671459D01*
X175080736Y-121667882D01*
X175095297Y-121665722D01*
X175110000Y-121665000D01*
X175410000Y-121665000D01*
X175424703Y-121665722D01*
G37*
G04 #@! TD.AperFunction*
G04 #@! TA.AperFunction,SMDPad,CuDef*
G36*
X176694703Y-121665722D02*
G01*
X176709264Y-121667882D01*
X176723543Y-121671459D01*
X176737403Y-121676418D01*
X176750710Y-121682712D01*
X176763336Y-121690280D01*
X176775159Y-121699048D01*
X176786066Y-121708934D01*
X176795952Y-121719841D01*
X176804720Y-121731664D01*
X176812288Y-121744290D01*
X176818582Y-121757597D01*
X176823541Y-121771457D01*
X176827118Y-121785736D01*
X176829278Y-121800297D01*
X176830000Y-121815000D01*
X176830000Y-122990000D01*
X176829278Y-123004703D01*
X176827118Y-123019264D01*
X176823541Y-123033543D01*
X176818582Y-123047403D01*
X176812288Y-123060710D01*
X176804720Y-123073336D01*
X176795952Y-123085159D01*
X176786066Y-123096066D01*
X176775159Y-123105952D01*
X176763336Y-123114720D01*
X176750710Y-123122288D01*
X176737403Y-123128582D01*
X176723543Y-123133541D01*
X176709264Y-123137118D01*
X176694703Y-123139278D01*
X176680000Y-123140000D01*
X176380000Y-123140000D01*
X176365297Y-123139278D01*
X176350736Y-123137118D01*
X176336457Y-123133541D01*
X176322597Y-123128582D01*
X176309290Y-123122288D01*
X176296664Y-123114720D01*
X176284841Y-123105952D01*
X176273934Y-123096066D01*
X176264048Y-123085159D01*
X176255280Y-123073336D01*
X176247712Y-123060710D01*
X176241418Y-123047403D01*
X176236459Y-123033543D01*
X176232882Y-123019264D01*
X176230722Y-123004703D01*
X176230000Y-122990000D01*
X176230000Y-121815000D01*
X176230722Y-121800297D01*
X176232882Y-121785736D01*
X176236459Y-121771457D01*
X176241418Y-121757597D01*
X176247712Y-121744290D01*
X176255280Y-121731664D01*
X176264048Y-121719841D01*
X176273934Y-121708934D01*
X176284841Y-121699048D01*
X176296664Y-121690280D01*
X176309290Y-121682712D01*
X176322597Y-121676418D01*
X176336457Y-121671459D01*
X176350736Y-121667882D01*
X176365297Y-121665722D01*
X176380000Y-121665000D01*
X176680000Y-121665000D01*
X176694703Y-121665722D01*
G37*
G04 #@! TD.AperFunction*
G04 #@! TA.AperFunction,SMDPad,CuDef*
G36*
X177964703Y-121665722D02*
G01*
X177979264Y-121667882D01*
X177993543Y-121671459D01*
X178007403Y-121676418D01*
X178020710Y-121682712D01*
X178033336Y-121690280D01*
X178045159Y-121699048D01*
X178056066Y-121708934D01*
X178065952Y-121719841D01*
X178074720Y-121731664D01*
X178082288Y-121744290D01*
X178088582Y-121757597D01*
X178093541Y-121771457D01*
X178097118Y-121785736D01*
X178099278Y-121800297D01*
X178100000Y-121815000D01*
X178100000Y-122990000D01*
X178099278Y-123004703D01*
X178097118Y-123019264D01*
X178093541Y-123033543D01*
X178088582Y-123047403D01*
X178082288Y-123060710D01*
X178074720Y-123073336D01*
X178065952Y-123085159D01*
X178056066Y-123096066D01*
X178045159Y-123105952D01*
X178033336Y-123114720D01*
X178020710Y-123122288D01*
X178007403Y-123128582D01*
X177993543Y-123133541D01*
X177979264Y-123137118D01*
X177964703Y-123139278D01*
X177950000Y-123140000D01*
X177650000Y-123140000D01*
X177635297Y-123139278D01*
X177620736Y-123137118D01*
X177606457Y-123133541D01*
X177592597Y-123128582D01*
X177579290Y-123122288D01*
X177566664Y-123114720D01*
X177554841Y-123105952D01*
X177543934Y-123096066D01*
X177534048Y-123085159D01*
X177525280Y-123073336D01*
X177517712Y-123060710D01*
X177511418Y-123047403D01*
X177506459Y-123033543D01*
X177502882Y-123019264D01*
X177500722Y-123004703D01*
X177500000Y-122990000D01*
X177500000Y-121815000D01*
X177500722Y-121800297D01*
X177502882Y-121785736D01*
X177506459Y-121771457D01*
X177511418Y-121757597D01*
X177517712Y-121744290D01*
X177525280Y-121731664D01*
X177534048Y-121719841D01*
X177543934Y-121708934D01*
X177554841Y-121699048D01*
X177566664Y-121690280D01*
X177579290Y-121682712D01*
X177592597Y-121676418D01*
X177606457Y-121671459D01*
X177620736Y-121667882D01*
X177635297Y-121665722D01*
X177650000Y-121665000D01*
X177950000Y-121665000D01*
X177964703Y-121665722D01*
G37*
G04 #@! TD.AperFunction*
G04 #@! TA.AperFunction,SMDPad,CuDef*
G36*
X179234703Y-121665722D02*
G01*
X179249264Y-121667882D01*
X179263543Y-121671459D01*
X179277403Y-121676418D01*
X179290710Y-121682712D01*
X179303336Y-121690280D01*
X179315159Y-121699048D01*
X179326066Y-121708934D01*
X179335952Y-121719841D01*
X179344720Y-121731664D01*
X179352288Y-121744290D01*
X179358582Y-121757597D01*
X179363541Y-121771457D01*
X179367118Y-121785736D01*
X179369278Y-121800297D01*
X179370000Y-121815000D01*
X179370000Y-122990000D01*
X179369278Y-123004703D01*
X179367118Y-123019264D01*
X179363541Y-123033543D01*
X179358582Y-123047403D01*
X179352288Y-123060710D01*
X179344720Y-123073336D01*
X179335952Y-123085159D01*
X179326066Y-123096066D01*
X179315159Y-123105952D01*
X179303336Y-123114720D01*
X179290710Y-123122288D01*
X179277403Y-123128582D01*
X179263543Y-123133541D01*
X179249264Y-123137118D01*
X179234703Y-123139278D01*
X179220000Y-123140000D01*
X178920000Y-123140000D01*
X178905297Y-123139278D01*
X178890736Y-123137118D01*
X178876457Y-123133541D01*
X178862597Y-123128582D01*
X178849290Y-123122288D01*
X178836664Y-123114720D01*
X178824841Y-123105952D01*
X178813934Y-123096066D01*
X178804048Y-123085159D01*
X178795280Y-123073336D01*
X178787712Y-123060710D01*
X178781418Y-123047403D01*
X178776459Y-123033543D01*
X178772882Y-123019264D01*
X178770722Y-123004703D01*
X178770000Y-122990000D01*
X178770000Y-121815000D01*
X178770722Y-121800297D01*
X178772882Y-121785736D01*
X178776459Y-121771457D01*
X178781418Y-121757597D01*
X178787712Y-121744290D01*
X178795280Y-121731664D01*
X178804048Y-121719841D01*
X178813934Y-121708934D01*
X178824841Y-121699048D01*
X178836664Y-121690280D01*
X178849290Y-121682712D01*
X178862597Y-121676418D01*
X178876457Y-121671459D01*
X178890736Y-121667882D01*
X178905297Y-121665722D01*
X178920000Y-121665000D01*
X179220000Y-121665000D01*
X179234703Y-121665722D01*
G37*
G04 #@! TD.AperFunction*
G04 #@! TA.AperFunction,SMDPad,CuDef*
G36*
X180504703Y-121665722D02*
G01*
X180519264Y-121667882D01*
X180533543Y-121671459D01*
X180547403Y-121676418D01*
X180560710Y-121682712D01*
X180573336Y-121690280D01*
X180585159Y-121699048D01*
X180596066Y-121708934D01*
X180605952Y-121719841D01*
X180614720Y-121731664D01*
X180622288Y-121744290D01*
X180628582Y-121757597D01*
X180633541Y-121771457D01*
X180637118Y-121785736D01*
X180639278Y-121800297D01*
X180640000Y-121815000D01*
X180640000Y-122990000D01*
X180639278Y-123004703D01*
X180637118Y-123019264D01*
X180633541Y-123033543D01*
X180628582Y-123047403D01*
X180622288Y-123060710D01*
X180614720Y-123073336D01*
X180605952Y-123085159D01*
X180596066Y-123096066D01*
X180585159Y-123105952D01*
X180573336Y-123114720D01*
X180560710Y-123122288D01*
X180547403Y-123128582D01*
X180533543Y-123133541D01*
X180519264Y-123137118D01*
X180504703Y-123139278D01*
X180490000Y-123140000D01*
X180190000Y-123140000D01*
X180175297Y-123139278D01*
X180160736Y-123137118D01*
X180146457Y-123133541D01*
X180132597Y-123128582D01*
X180119290Y-123122288D01*
X180106664Y-123114720D01*
X180094841Y-123105952D01*
X180083934Y-123096066D01*
X180074048Y-123085159D01*
X180065280Y-123073336D01*
X180057712Y-123060710D01*
X180051418Y-123047403D01*
X180046459Y-123033543D01*
X180042882Y-123019264D01*
X180040722Y-123004703D01*
X180040000Y-122990000D01*
X180040000Y-121815000D01*
X180040722Y-121800297D01*
X180042882Y-121785736D01*
X180046459Y-121771457D01*
X180051418Y-121757597D01*
X180057712Y-121744290D01*
X180065280Y-121731664D01*
X180074048Y-121719841D01*
X180083934Y-121708934D01*
X180094841Y-121699048D01*
X180106664Y-121690280D01*
X180119290Y-121682712D01*
X180132597Y-121676418D01*
X180146457Y-121671459D01*
X180160736Y-121667882D01*
X180175297Y-121665722D01*
X180190000Y-121665000D01*
X180490000Y-121665000D01*
X180504703Y-121665722D01*
G37*
G04 #@! TD.AperFunction*
G04 #@! TA.AperFunction,SMDPad,CuDef*
G36*
X181774703Y-121665722D02*
G01*
X181789264Y-121667882D01*
X181803543Y-121671459D01*
X181817403Y-121676418D01*
X181830710Y-121682712D01*
X181843336Y-121690280D01*
X181855159Y-121699048D01*
X181866066Y-121708934D01*
X181875952Y-121719841D01*
X181884720Y-121731664D01*
X181892288Y-121744290D01*
X181898582Y-121757597D01*
X181903541Y-121771457D01*
X181907118Y-121785736D01*
X181909278Y-121800297D01*
X181910000Y-121815000D01*
X181910000Y-122990000D01*
X181909278Y-123004703D01*
X181907118Y-123019264D01*
X181903541Y-123033543D01*
X181898582Y-123047403D01*
X181892288Y-123060710D01*
X181884720Y-123073336D01*
X181875952Y-123085159D01*
X181866066Y-123096066D01*
X181855159Y-123105952D01*
X181843336Y-123114720D01*
X181830710Y-123122288D01*
X181817403Y-123128582D01*
X181803543Y-123133541D01*
X181789264Y-123137118D01*
X181774703Y-123139278D01*
X181760000Y-123140000D01*
X181460000Y-123140000D01*
X181445297Y-123139278D01*
X181430736Y-123137118D01*
X181416457Y-123133541D01*
X181402597Y-123128582D01*
X181389290Y-123122288D01*
X181376664Y-123114720D01*
X181364841Y-123105952D01*
X181353934Y-123096066D01*
X181344048Y-123085159D01*
X181335280Y-123073336D01*
X181327712Y-123060710D01*
X181321418Y-123047403D01*
X181316459Y-123033543D01*
X181312882Y-123019264D01*
X181310722Y-123004703D01*
X181310000Y-122990000D01*
X181310000Y-121815000D01*
X181310722Y-121800297D01*
X181312882Y-121785736D01*
X181316459Y-121771457D01*
X181321418Y-121757597D01*
X181327712Y-121744290D01*
X181335280Y-121731664D01*
X181344048Y-121719841D01*
X181353934Y-121708934D01*
X181364841Y-121699048D01*
X181376664Y-121690280D01*
X181389290Y-121682712D01*
X181402597Y-121676418D01*
X181416457Y-121671459D01*
X181430736Y-121667882D01*
X181445297Y-121665722D01*
X181460000Y-121665000D01*
X181760000Y-121665000D01*
X181774703Y-121665722D01*
G37*
G04 #@! TD.AperFunction*
G04 #@! TA.AperFunction,SMDPad,CuDef*
G36*
X183044703Y-121665722D02*
G01*
X183059264Y-121667882D01*
X183073543Y-121671459D01*
X183087403Y-121676418D01*
X183100710Y-121682712D01*
X183113336Y-121690280D01*
X183125159Y-121699048D01*
X183136066Y-121708934D01*
X183145952Y-121719841D01*
X183154720Y-121731664D01*
X183162288Y-121744290D01*
X183168582Y-121757597D01*
X183173541Y-121771457D01*
X183177118Y-121785736D01*
X183179278Y-121800297D01*
X183180000Y-121815000D01*
X183180000Y-122990000D01*
X183179278Y-123004703D01*
X183177118Y-123019264D01*
X183173541Y-123033543D01*
X183168582Y-123047403D01*
X183162288Y-123060710D01*
X183154720Y-123073336D01*
X183145952Y-123085159D01*
X183136066Y-123096066D01*
X183125159Y-123105952D01*
X183113336Y-123114720D01*
X183100710Y-123122288D01*
X183087403Y-123128582D01*
X183073543Y-123133541D01*
X183059264Y-123137118D01*
X183044703Y-123139278D01*
X183030000Y-123140000D01*
X182730000Y-123140000D01*
X182715297Y-123139278D01*
X182700736Y-123137118D01*
X182686457Y-123133541D01*
X182672597Y-123128582D01*
X182659290Y-123122288D01*
X182646664Y-123114720D01*
X182634841Y-123105952D01*
X182623934Y-123096066D01*
X182614048Y-123085159D01*
X182605280Y-123073336D01*
X182597712Y-123060710D01*
X182591418Y-123047403D01*
X182586459Y-123033543D01*
X182582882Y-123019264D01*
X182580722Y-123004703D01*
X182580000Y-122990000D01*
X182580000Y-121815000D01*
X182580722Y-121800297D01*
X182582882Y-121785736D01*
X182586459Y-121771457D01*
X182591418Y-121757597D01*
X182597712Y-121744290D01*
X182605280Y-121731664D01*
X182614048Y-121719841D01*
X182623934Y-121708934D01*
X182634841Y-121699048D01*
X182646664Y-121690280D01*
X182659290Y-121682712D01*
X182672597Y-121676418D01*
X182686457Y-121671459D01*
X182700736Y-121667882D01*
X182715297Y-121665722D01*
X182730000Y-121665000D01*
X183030000Y-121665000D01*
X183044703Y-121665722D01*
G37*
G04 #@! TD.AperFunction*
G04 #@! TA.AperFunction,SMDPad,CuDef*
G36*
X184314703Y-121665722D02*
G01*
X184329264Y-121667882D01*
X184343543Y-121671459D01*
X184357403Y-121676418D01*
X184370710Y-121682712D01*
X184383336Y-121690280D01*
X184395159Y-121699048D01*
X184406066Y-121708934D01*
X184415952Y-121719841D01*
X184424720Y-121731664D01*
X184432288Y-121744290D01*
X184438582Y-121757597D01*
X184443541Y-121771457D01*
X184447118Y-121785736D01*
X184449278Y-121800297D01*
X184450000Y-121815000D01*
X184450000Y-122990000D01*
X184449278Y-123004703D01*
X184447118Y-123019264D01*
X184443541Y-123033543D01*
X184438582Y-123047403D01*
X184432288Y-123060710D01*
X184424720Y-123073336D01*
X184415952Y-123085159D01*
X184406066Y-123096066D01*
X184395159Y-123105952D01*
X184383336Y-123114720D01*
X184370710Y-123122288D01*
X184357403Y-123128582D01*
X184343543Y-123133541D01*
X184329264Y-123137118D01*
X184314703Y-123139278D01*
X184300000Y-123140000D01*
X184000000Y-123140000D01*
X183985297Y-123139278D01*
X183970736Y-123137118D01*
X183956457Y-123133541D01*
X183942597Y-123128582D01*
X183929290Y-123122288D01*
X183916664Y-123114720D01*
X183904841Y-123105952D01*
X183893934Y-123096066D01*
X183884048Y-123085159D01*
X183875280Y-123073336D01*
X183867712Y-123060710D01*
X183861418Y-123047403D01*
X183856459Y-123033543D01*
X183852882Y-123019264D01*
X183850722Y-123004703D01*
X183850000Y-122990000D01*
X183850000Y-121815000D01*
X183850722Y-121800297D01*
X183852882Y-121785736D01*
X183856459Y-121771457D01*
X183861418Y-121757597D01*
X183867712Y-121744290D01*
X183875280Y-121731664D01*
X183884048Y-121719841D01*
X183893934Y-121708934D01*
X183904841Y-121699048D01*
X183916664Y-121690280D01*
X183929290Y-121682712D01*
X183942597Y-121676418D01*
X183956457Y-121671459D01*
X183970736Y-121667882D01*
X183985297Y-121665722D01*
X184000000Y-121665000D01*
X184300000Y-121665000D01*
X184314703Y-121665722D01*
G37*
G04 #@! TD.AperFunction*
G04 #@! TA.AperFunction,SMDPad,CuDef*
G36*
X186509703Y-120350722D02*
G01*
X186524264Y-120352882D01*
X186538543Y-120356459D01*
X186552403Y-120361418D01*
X186565710Y-120367712D01*
X186578336Y-120375280D01*
X186590159Y-120384048D01*
X186601066Y-120393934D01*
X186610952Y-120404841D01*
X186619720Y-120416664D01*
X186627288Y-120429290D01*
X186633582Y-120442597D01*
X186638541Y-120456457D01*
X186642118Y-120470736D01*
X186644278Y-120485297D01*
X186645000Y-120500000D01*
X186645000Y-120800000D01*
X186644278Y-120814703D01*
X186642118Y-120829264D01*
X186638541Y-120843543D01*
X186633582Y-120857403D01*
X186627288Y-120870710D01*
X186619720Y-120883336D01*
X186610952Y-120895159D01*
X186601066Y-120906066D01*
X186590159Y-120915952D01*
X186578336Y-120924720D01*
X186565710Y-120932288D01*
X186552403Y-120938582D01*
X186538543Y-120943541D01*
X186524264Y-120947118D01*
X186509703Y-120949278D01*
X186495000Y-120950000D01*
X185320000Y-120950000D01*
X185305297Y-120949278D01*
X185290736Y-120947118D01*
X185276457Y-120943541D01*
X185262597Y-120938582D01*
X185249290Y-120932288D01*
X185236664Y-120924720D01*
X185224841Y-120915952D01*
X185213934Y-120906066D01*
X185204048Y-120895159D01*
X185195280Y-120883336D01*
X185187712Y-120870710D01*
X185181418Y-120857403D01*
X185176459Y-120843543D01*
X185172882Y-120829264D01*
X185170722Y-120814703D01*
X185170000Y-120800000D01*
X185170000Y-120500000D01*
X185170722Y-120485297D01*
X185172882Y-120470736D01*
X185176459Y-120456457D01*
X185181418Y-120442597D01*
X185187712Y-120429290D01*
X185195280Y-120416664D01*
X185204048Y-120404841D01*
X185213934Y-120393934D01*
X185224841Y-120384048D01*
X185236664Y-120375280D01*
X185249290Y-120367712D01*
X185262597Y-120361418D01*
X185276457Y-120356459D01*
X185290736Y-120352882D01*
X185305297Y-120350722D01*
X185320000Y-120350000D01*
X186495000Y-120350000D01*
X186509703Y-120350722D01*
G37*
G04 #@! TD.AperFunction*
G04 #@! TA.AperFunction,SMDPad,CuDef*
G36*
X186509703Y-119080722D02*
G01*
X186524264Y-119082882D01*
X186538543Y-119086459D01*
X186552403Y-119091418D01*
X186565710Y-119097712D01*
X186578336Y-119105280D01*
X186590159Y-119114048D01*
X186601066Y-119123934D01*
X186610952Y-119134841D01*
X186619720Y-119146664D01*
X186627288Y-119159290D01*
X186633582Y-119172597D01*
X186638541Y-119186457D01*
X186642118Y-119200736D01*
X186644278Y-119215297D01*
X186645000Y-119230000D01*
X186645000Y-119530000D01*
X186644278Y-119544703D01*
X186642118Y-119559264D01*
X186638541Y-119573543D01*
X186633582Y-119587403D01*
X186627288Y-119600710D01*
X186619720Y-119613336D01*
X186610952Y-119625159D01*
X186601066Y-119636066D01*
X186590159Y-119645952D01*
X186578336Y-119654720D01*
X186565710Y-119662288D01*
X186552403Y-119668582D01*
X186538543Y-119673541D01*
X186524264Y-119677118D01*
X186509703Y-119679278D01*
X186495000Y-119680000D01*
X185320000Y-119680000D01*
X185305297Y-119679278D01*
X185290736Y-119677118D01*
X185276457Y-119673541D01*
X185262597Y-119668582D01*
X185249290Y-119662288D01*
X185236664Y-119654720D01*
X185224841Y-119645952D01*
X185213934Y-119636066D01*
X185204048Y-119625159D01*
X185195280Y-119613336D01*
X185187712Y-119600710D01*
X185181418Y-119587403D01*
X185176459Y-119573543D01*
X185172882Y-119559264D01*
X185170722Y-119544703D01*
X185170000Y-119530000D01*
X185170000Y-119230000D01*
X185170722Y-119215297D01*
X185172882Y-119200736D01*
X185176459Y-119186457D01*
X185181418Y-119172597D01*
X185187712Y-119159290D01*
X185195280Y-119146664D01*
X185204048Y-119134841D01*
X185213934Y-119123934D01*
X185224841Y-119114048D01*
X185236664Y-119105280D01*
X185249290Y-119097712D01*
X185262597Y-119091418D01*
X185276457Y-119086459D01*
X185290736Y-119082882D01*
X185305297Y-119080722D01*
X185320000Y-119080000D01*
X186495000Y-119080000D01*
X186509703Y-119080722D01*
G37*
G04 #@! TD.AperFunction*
G04 #@! TA.AperFunction,SMDPad,CuDef*
G36*
X186509703Y-117810722D02*
G01*
X186524264Y-117812882D01*
X186538543Y-117816459D01*
X186552403Y-117821418D01*
X186565710Y-117827712D01*
X186578336Y-117835280D01*
X186590159Y-117844048D01*
X186601066Y-117853934D01*
X186610952Y-117864841D01*
X186619720Y-117876664D01*
X186627288Y-117889290D01*
X186633582Y-117902597D01*
X186638541Y-117916457D01*
X186642118Y-117930736D01*
X186644278Y-117945297D01*
X186645000Y-117960000D01*
X186645000Y-118260000D01*
X186644278Y-118274703D01*
X186642118Y-118289264D01*
X186638541Y-118303543D01*
X186633582Y-118317403D01*
X186627288Y-118330710D01*
X186619720Y-118343336D01*
X186610952Y-118355159D01*
X186601066Y-118366066D01*
X186590159Y-118375952D01*
X186578336Y-118384720D01*
X186565710Y-118392288D01*
X186552403Y-118398582D01*
X186538543Y-118403541D01*
X186524264Y-118407118D01*
X186509703Y-118409278D01*
X186495000Y-118410000D01*
X185320000Y-118410000D01*
X185305297Y-118409278D01*
X185290736Y-118407118D01*
X185276457Y-118403541D01*
X185262597Y-118398582D01*
X185249290Y-118392288D01*
X185236664Y-118384720D01*
X185224841Y-118375952D01*
X185213934Y-118366066D01*
X185204048Y-118355159D01*
X185195280Y-118343336D01*
X185187712Y-118330710D01*
X185181418Y-118317403D01*
X185176459Y-118303543D01*
X185172882Y-118289264D01*
X185170722Y-118274703D01*
X185170000Y-118260000D01*
X185170000Y-117960000D01*
X185170722Y-117945297D01*
X185172882Y-117930736D01*
X185176459Y-117916457D01*
X185181418Y-117902597D01*
X185187712Y-117889290D01*
X185195280Y-117876664D01*
X185204048Y-117864841D01*
X185213934Y-117853934D01*
X185224841Y-117844048D01*
X185236664Y-117835280D01*
X185249290Y-117827712D01*
X185262597Y-117821418D01*
X185276457Y-117816459D01*
X185290736Y-117812882D01*
X185305297Y-117810722D01*
X185320000Y-117810000D01*
X186495000Y-117810000D01*
X186509703Y-117810722D01*
G37*
G04 #@! TD.AperFunction*
D13*
X215040000Y-100595000D03*
X215040000Y-101245000D03*
X215040000Y-101895000D03*
X215040000Y-102545000D03*
X215040000Y-103195000D03*
X215040000Y-103845000D03*
X215040000Y-104495000D03*
X215040000Y-105145000D03*
X209140000Y-105145000D03*
X209140000Y-104495000D03*
X209140000Y-103845000D03*
X209140000Y-103195000D03*
X209140000Y-102545000D03*
X209140000Y-101895000D03*
X209140000Y-101245000D03*
X209140000Y-100595000D03*
X209140000Y-108215000D03*
X209140000Y-108865000D03*
X209140000Y-109515000D03*
X209140000Y-110165000D03*
X209140000Y-110815000D03*
X209140000Y-111465000D03*
X209140000Y-112115000D03*
X209140000Y-112765000D03*
X215040000Y-112765000D03*
X215040000Y-112115000D03*
X215040000Y-111465000D03*
X215040000Y-110815000D03*
X215040000Y-110165000D03*
X215040000Y-109515000D03*
X215040000Y-108865000D03*
X215040000Y-108215000D03*
X209140000Y-115835000D03*
X209140000Y-116485000D03*
X209140000Y-117135000D03*
X209140000Y-117785000D03*
X209140000Y-118435000D03*
X209140000Y-119085000D03*
X209140000Y-119735000D03*
X209140000Y-120385000D03*
X215040000Y-120385000D03*
X215040000Y-119735000D03*
X215040000Y-119085000D03*
X215040000Y-118435000D03*
X215040000Y-117785000D03*
X215040000Y-117135000D03*
X215040000Y-116485000D03*
X215040000Y-115835000D03*
D11*
X163830000Y-101600000D03*
D10*
X163830000Y-104140000D03*
D14*
X188190011Y-124526914D03*
X186690000Y-124460000D03*
X207010000Y-127000000D03*
X166370000Y-129540000D03*
X210820000Y-118110000D03*
X210820000Y-110490000D03*
X210820000Y-102870000D03*
X209550000Y-128270000D03*
X190500000Y-129540000D03*
X175260000Y-115570000D03*
X213535338Y-101995010D03*
X213360000Y-114300000D03*
X213360000Y-120650000D03*
X213238662Y-106772790D03*
X212090000Y-104140000D03*
X212090000Y-119380000D03*
X212090000Y-111760000D03*
X212090000Y-121920000D03*
X212090000Y-100330000D03*
X176530000Y-105410000D03*
X179070000Y-106680000D03*
X180340000Y-107950000D03*
X181610000Y-109220000D03*
X182880000Y-113030000D03*
X184150000Y-114300000D03*
X204470000Y-121920000D03*
X209550000Y-114300000D03*
X201582745Y-128119458D03*
X186690000Y-125730000D03*
X199390000Y-127000000D03*
X196850000Y-120650000D03*
X196850000Y-127000000D03*
X179070000Y-116840000D03*
X196850000Y-119380000D03*
X197995119Y-118281839D03*
X207010000Y-119380000D03*
X194310000Y-132080000D03*
X180340000Y-116840000D03*
X191770000Y-115570000D03*
X196850000Y-115570000D03*
X195760003Y-114300000D03*
X189230000Y-114300000D03*
X181610000Y-115570000D03*
X160020000Y-123190000D03*
X176530000Y-127000000D03*
X170180000Y-123190000D03*
X166370000Y-130810000D03*
X211084536Y-108712334D03*
X214014979Y-106142429D03*
X213360000Y-113030000D03*
X212090000Y-116840000D03*
D15*
X194310000Y-119380000D02*
X190500000Y-119380000D01*
X186645000Y-118110000D02*
X185907500Y-118110000D01*
X189230000Y-118110000D02*
X186645000Y-118110000D01*
X190500000Y-119380000D02*
X189230000Y-118110000D01*
X216952500Y-115835000D02*
X217170000Y-116052500D01*
X215040000Y-115835000D02*
X216952500Y-115835000D01*
X217170000Y-108432500D02*
X216952500Y-108215000D01*
X216952500Y-100595000D02*
X217170000Y-100812500D01*
X215040000Y-100595000D02*
X216952500Y-100595000D01*
X215040000Y-104495000D02*
X216815000Y-104495000D01*
X217995010Y-101162510D02*
X217645000Y-100812500D01*
X217995010Y-103314990D02*
X217995010Y-101162510D01*
X217645000Y-100812500D02*
X217170000Y-100812500D01*
X216815000Y-104495000D02*
X217995010Y-103314990D01*
X217170000Y-104850000D02*
X217170000Y-108432500D01*
X216815000Y-104495000D02*
X217170000Y-104850000D01*
X215040000Y-112115000D02*
X216815000Y-112115000D01*
X217645000Y-108432500D02*
X217170000Y-108432500D01*
X217995010Y-108782510D02*
X217645000Y-108432500D01*
X217995010Y-110934990D02*
X217995010Y-108782510D01*
X216815000Y-112115000D02*
X217995010Y-110934990D01*
X217170000Y-112470000D02*
X216815000Y-112115000D01*
X217170000Y-116052500D02*
X217170000Y-112470000D01*
X217645000Y-116052500D02*
X217170000Y-116052500D01*
X217995010Y-116402510D02*
X217645000Y-116052500D01*
X217995010Y-118081840D02*
X217995010Y-116402510D01*
X216341850Y-119735000D02*
X217995010Y-118081840D01*
X215040000Y-119735000D02*
X216341850Y-119735000D01*
X216341850Y-122218150D02*
X216341850Y-119735000D01*
X213340000Y-125220000D02*
X216341850Y-122218150D01*
X212090000Y-125220000D02*
X213340000Y-125220000D01*
X189875597Y-126212500D02*
X188190011Y-124526914D01*
X190500000Y-126212500D02*
X189875597Y-126212500D01*
X186756914Y-124526914D02*
X186690000Y-124460000D01*
X188190011Y-124526914D02*
X186756914Y-124526914D01*
X210840000Y-125220000D02*
X209060000Y-127000000D01*
X212090000Y-125220000D02*
X210840000Y-125220000D01*
X209060000Y-127000000D02*
X207010000Y-127000000D01*
X216952500Y-108215000D02*
X216165000Y-108215000D01*
X216165000Y-108215000D02*
X215040000Y-108215000D01*
X163830000Y-129540000D02*
X166370000Y-129540000D01*
X172232500Y-115570000D02*
X168910000Y-115570000D01*
X167640000Y-114300000D02*
X163830000Y-114300000D01*
X168910000Y-115570000D02*
X167640000Y-114300000D01*
X217012500Y-117785000D02*
X215040000Y-117785000D01*
X217170000Y-117627500D02*
X217012500Y-117785000D01*
X217012500Y-110165000D02*
X217170000Y-110007500D01*
X215040000Y-110165000D02*
X217012500Y-110165000D01*
X217012500Y-102545000D02*
X217170000Y-102387500D01*
X215040000Y-102545000D02*
X217012500Y-102545000D01*
X209140000Y-105145000D02*
X209974996Y-105145000D01*
X209974998Y-120385000D02*
X209140000Y-120385000D01*
X215040000Y-117785000D02*
X212574998Y-117785000D01*
X213990000Y-110165000D02*
X215040000Y-110165000D01*
X212574996Y-110165000D02*
X213990000Y-110165000D01*
X209140000Y-112765000D02*
X209974996Y-112765000D01*
X210899999Y-118189999D02*
X210820000Y-118110000D01*
X210899999Y-119459999D02*
X210899999Y-118189999D01*
X212574998Y-117785000D02*
X210899999Y-119459999D01*
X210899999Y-119459999D02*
X209974998Y-120385000D01*
X210820000Y-110490000D02*
X210820000Y-111760000D01*
X209974996Y-112765000D02*
X210820000Y-111760000D01*
X210820000Y-111760000D02*
X212574996Y-110165000D01*
X210820000Y-102870000D02*
X210820000Y-104140000D01*
X209974996Y-105145000D02*
X210820000Y-104140000D01*
X212090000Y-131320000D02*
X209550000Y-128780000D01*
X209550000Y-128780000D02*
X209550000Y-128270000D01*
X190500000Y-129540000D02*
X190500000Y-127787500D01*
X172232500Y-115570000D02*
X173990000Y-115570000D01*
X173990000Y-115570000D02*
X175260000Y-115570000D01*
X213895339Y-102745011D02*
X214095350Y-102545000D01*
X210820000Y-104140000D02*
X212214989Y-102745011D01*
X214095350Y-102545000D02*
X215040000Y-102545000D01*
X212214989Y-102745011D02*
X213895339Y-102745011D01*
X215040000Y-101895000D02*
X213635348Y-101895000D01*
X213635348Y-101895000D02*
X213535338Y-101995010D01*
X215040000Y-103845000D02*
X214925000Y-103845000D01*
X213360000Y-119715000D02*
X213360000Y-120084315D01*
X213360000Y-120084315D02*
X213360000Y-120650000D01*
X213990000Y-119085000D02*
X213360000Y-119715000D01*
X215040000Y-119085000D02*
X213990000Y-119085000D01*
X213360000Y-120650000D02*
X211527122Y-120650000D01*
X213814996Y-111465000D02*
X213990000Y-111465000D01*
X213360000Y-114300000D02*
X212609998Y-113549998D01*
X213990000Y-111465000D02*
X215040000Y-111465000D01*
X212609998Y-113549998D02*
X212609998Y-112669998D01*
X212609998Y-112669998D02*
X213814996Y-111465000D01*
X213238662Y-104596338D02*
X213238662Y-106207105D01*
X213238662Y-106207105D02*
X213238662Y-106772790D01*
X213990000Y-103845000D02*
X213238662Y-104596338D01*
X215040000Y-103845000D02*
X213990000Y-103845000D01*
X199390000Y-132080000D02*
X210820000Y-120650000D01*
X210820000Y-120650000D02*
X211527122Y-120650000D01*
X213035000Y-118435000D02*
X215040000Y-118435000D01*
X212090000Y-119380000D02*
X213035000Y-118435000D01*
X213035000Y-110815000D02*
X212090000Y-111760000D01*
X215040000Y-110815000D02*
X213035000Y-110815000D01*
X211524315Y-121920000D02*
X212090000Y-121920000D01*
X210964244Y-121920000D02*
X211524315Y-121920000D01*
X214989978Y-103245022D02*
X212984978Y-103245022D01*
X212489999Y-103740001D02*
X212090000Y-104140000D01*
X212984978Y-103245022D02*
X212489999Y-103740001D01*
X215040000Y-103195000D02*
X214989978Y-103245022D01*
X201930000Y-132080000D02*
X201930000Y-130930000D01*
X203835000Y-129025000D02*
X203835000Y-128905000D01*
X201930000Y-130930000D02*
X203835000Y-129025000D01*
X203835000Y-128905000D02*
X210964244Y-121920000D01*
X203200000Y-129684244D02*
X203835000Y-129049244D01*
X203835000Y-129049244D02*
X203835000Y-128905000D01*
D16*
X173990000Y-111277500D02*
X173990000Y-110490000D01*
D15*
X168910000Y-101600000D02*
X168910000Y-104140000D01*
X173990000Y-109220000D02*
X173990000Y-111277500D01*
X168910000Y-104140000D02*
X173990000Y-109220000D01*
X159900000Y-101600000D02*
X161170000Y-100330000D01*
X158750000Y-101600000D02*
X159900000Y-101600000D01*
X161170000Y-100330000D02*
X166370000Y-100330000D01*
X167640000Y-101600000D02*
X168910000Y-101600000D01*
X166370000Y-100330000D02*
X167640000Y-101600000D01*
X175260000Y-111277500D02*
X175260000Y-109220000D01*
X171450000Y-105410000D02*
X171450000Y-101600000D01*
X175260000Y-109220000D02*
X171450000Y-105410000D01*
X213005000Y-101245000D02*
X215040000Y-101245000D01*
X212090000Y-100330000D02*
X213005000Y-101245000D01*
X173990000Y-101600000D02*
X173990000Y-106680000D01*
X173990000Y-106680000D02*
X176530000Y-109220000D01*
X176530000Y-109220000D02*
X176530000Y-111760000D01*
X200239999Y-103290001D02*
X199390000Y-104140000D01*
X200590001Y-102939999D02*
X200239999Y-103290001D01*
X202366003Y-102939999D02*
X200590001Y-102939999D01*
X204711002Y-100595000D02*
X202366003Y-102939999D01*
X209140000Y-100595000D02*
X204711002Y-100595000D01*
X177800000Y-111277500D02*
X177800000Y-107950000D01*
X176530000Y-106680000D02*
X176530000Y-101600000D01*
X177800000Y-107950000D02*
X176530000Y-106680000D01*
X204825000Y-101245000D02*
X201930000Y-104140000D01*
X209140000Y-101245000D02*
X204825000Y-101245000D01*
X179070000Y-101600000D02*
X179070000Y-111760000D01*
X205951002Y-101895000D02*
X202436002Y-105410000D01*
X209140000Y-101895000D02*
X205951002Y-101895000D01*
X200660000Y-105410000D02*
X199390000Y-106680000D01*
X202436002Y-105410000D02*
X200660000Y-105410000D01*
X180340000Y-111277500D02*
X180340000Y-107950000D01*
X181610000Y-106680000D02*
X180340000Y-107950000D01*
X181610000Y-101600000D02*
X181610000Y-106680000D01*
X206065000Y-102545000D02*
X209140000Y-102545000D01*
X201930000Y-106680000D02*
X206065000Y-102545000D01*
X181610000Y-111277500D02*
X181610000Y-109220000D01*
X184150000Y-106680000D02*
X184150000Y-101600000D01*
X181610000Y-109220000D02*
X184150000Y-106680000D01*
X202422879Y-108019999D02*
X200590001Y-108019999D01*
X200239999Y-108370001D02*
X199390000Y-109220000D01*
X200590001Y-108019999D02*
X200239999Y-108370001D01*
X207247878Y-103195000D02*
X202422879Y-108019999D01*
X209140000Y-103195000D02*
X207247878Y-103195000D01*
X186690000Y-101600000D02*
X186690000Y-105410000D01*
X182880000Y-109220000D02*
X182880000Y-111277500D01*
X186690000Y-105410000D02*
X182880000Y-109220000D01*
X207305000Y-103845000D02*
X209140000Y-103845000D01*
X201930000Y-109220000D02*
X207305000Y-103845000D01*
X182880000Y-113030000D02*
X182880000Y-111277500D01*
X184150000Y-111277500D02*
X184150000Y-110490000D01*
X184150000Y-109220000D02*
X184150000Y-111277500D01*
X189230000Y-101600000D02*
X189230000Y-104140000D01*
X189230000Y-104140000D02*
X184150000Y-109220000D01*
X208090000Y-104495000D02*
X203365000Y-109220000D01*
X209140000Y-104495000D02*
X208090000Y-104495000D01*
X200239999Y-110910001D02*
X199390000Y-111760000D01*
X202366003Y-110559999D02*
X200590001Y-110559999D01*
X203365000Y-109561002D02*
X202366003Y-110559999D01*
X200590001Y-110559999D02*
X200239999Y-110910001D01*
X203365000Y-109220000D02*
X203365000Y-109561002D01*
X184150000Y-114300000D02*
X184150000Y-111277500D01*
X185907500Y-113030000D02*
X186690000Y-113030000D01*
X186690000Y-113030000D02*
X190500000Y-109220000D01*
X190500000Y-109220000D02*
X194310000Y-109220000D01*
X203630011Y-114432867D02*
X203630011Y-115139989D01*
X209140000Y-110165000D02*
X207897878Y-110165000D01*
X203630011Y-115139989D02*
X202779999Y-115990001D01*
X202779999Y-115990001D02*
X201930000Y-116840000D01*
X207897878Y-110165000D02*
X203630011Y-114432867D01*
X198189999Y-111949999D02*
X198189999Y-117416001D01*
X198189999Y-117416001D02*
X198813999Y-118040001D01*
X200729999Y-118040001D02*
X201080001Y-117689999D01*
X198813999Y-118040001D02*
X200729999Y-118040001D01*
X201080001Y-117689999D02*
X201930000Y-116840000D01*
X194310000Y-109220000D02*
X195460000Y-109220000D01*
X195460000Y-109220000D02*
X198189999Y-111949999D01*
X194310000Y-111760000D02*
X190500000Y-111760000D01*
X187960000Y-114300000D02*
X185907500Y-114300000D01*
X190500000Y-111760000D02*
X187960000Y-114300000D01*
X205740000Y-117477878D02*
X204470000Y-118747878D01*
X204470000Y-118747878D02*
X204470000Y-121354315D01*
X204470000Y-121354315D02*
X204470000Y-121920000D01*
X205740000Y-114559998D02*
X205740000Y-117477878D01*
X208184998Y-112115000D02*
X205740000Y-114559998D01*
X209140000Y-112115000D02*
X208184998Y-112115000D01*
X197600002Y-115050002D02*
X195159999Y-112609999D01*
X199390000Y-121920000D02*
X197009996Y-121920000D01*
X197009996Y-121920000D02*
X196099998Y-121010002D01*
X197600002Y-115930002D02*
X197600002Y-115050002D01*
X196099998Y-121010002D02*
X196099998Y-117430006D01*
X195159999Y-112609999D02*
X194310000Y-111760000D01*
X196099998Y-117430006D02*
X197600002Y-115930002D01*
X185907500Y-115570000D02*
X189230000Y-115570000D01*
X190500000Y-114300000D02*
X194310000Y-114300000D01*
X189230000Y-115570000D02*
X190500000Y-114300000D01*
X209550000Y-114300000D02*
X211805000Y-114300000D01*
X211805000Y-114300000D02*
X213990000Y-116485000D01*
X213990000Y-116485000D02*
X215040000Y-116485000D01*
X185907500Y-116840000D02*
X194310000Y-116840000D01*
X195599987Y-121217113D02*
X197642873Y-123259999D01*
X195599987Y-118129987D02*
X195599987Y-121217113D01*
X197642873Y-123259999D02*
X201879999Y-123259999D01*
X201879999Y-123259999D02*
X201930000Y-123310000D01*
X194310000Y-116840000D02*
X195599987Y-118129987D01*
X201930000Y-123310000D02*
X201930000Y-124460000D01*
X205740000Y-124315756D02*
X202336297Y-127719459D01*
X201982744Y-127719459D02*
X201582745Y-128119458D01*
X205740000Y-118929998D02*
X205740000Y-124315756D01*
X202336297Y-127719459D02*
X201982744Y-127719459D01*
X208184998Y-116485000D02*
X205740000Y-118929998D01*
X209140000Y-116485000D02*
X208184998Y-116485000D01*
X185907500Y-119380000D02*
X187960000Y-119380000D01*
X190500000Y-121920000D02*
X194310000Y-121920000D01*
X187960000Y-119380000D02*
X190500000Y-121920000D01*
X185170000Y-119380000D02*
X185907500Y-119380000D01*
X184819990Y-119730010D02*
X185170000Y-119380000D01*
X184819990Y-123859990D02*
X184819990Y-119730010D01*
X186690000Y-125730000D02*
X184819990Y-123859990D01*
X194310000Y-124460000D02*
X190500000Y-124460000D01*
X186690000Y-120650000D02*
X185907500Y-120650000D01*
X190500000Y-124460000D02*
X186690000Y-120650000D01*
X194310000Y-124460000D02*
X199390000Y-124460000D01*
X209140000Y-115835000D02*
X208090000Y-115835000D01*
X208090000Y-115835000D02*
X205239989Y-118685011D01*
X205239989Y-124108645D02*
X202348634Y-127000000D01*
X202348634Y-127000000D02*
X199955685Y-127000000D01*
X205239989Y-118685011D02*
X205239989Y-124108645D01*
X199955685Y-127000000D02*
X199390000Y-127000000D01*
X172232500Y-113030000D02*
X171450000Y-113030000D01*
X171450000Y-113030000D02*
X167640000Y-109220000D01*
X167640000Y-109220000D02*
X163830000Y-109220000D01*
X158750000Y-104140000D02*
X163830000Y-109220000D01*
X163830000Y-111760000D02*
X167640000Y-111760000D01*
X170180000Y-114300000D02*
X172232500Y-114300000D01*
X167640000Y-111760000D02*
X170180000Y-114300000D01*
X163830000Y-111760000D02*
X158750000Y-106680000D01*
X163830000Y-116840000D02*
X172232500Y-116840000D01*
X162560000Y-115570000D02*
X163830000Y-116840000D01*
X158750000Y-109220000D02*
X162560000Y-113030000D01*
X162560000Y-113030000D02*
X162560000Y-115570000D01*
X172232500Y-118110000D02*
X168910000Y-118110000D01*
X168910000Y-118110000D02*
X167640000Y-119380000D01*
X167640000Y-119380000D02*
X163830000Y-119380000D01*
X158750000Y-111760000D02*
X161290000Y-114300000D01*
X161290000Y-116840000D02*
X163830000Y-119380000D01*
X161290000Y-114300000D02*
X161290000Y-116840000D01*
X163830000Y-121920000D02*
X167640000Y-121920000D01*
X170180000Y-119380000D02*
X172232500Y-119380000D01*
X167640000Y-121920000D02*
X170180000Y-119380000D01*
X162980001Y-120362879D02*
X162980001Y-121070001D01*
X160789990Y-116339990D02*
X160789990Y-118172868D01*
X158750000Y-114300000D02*
X160789990Y-116339990D01*
X162980001Y-121070001D02*
X163830000Y-121920000D01*
X160789990Y-118172868D02*
X162980001Y-120362879D01*
X172232500Y-120650000D02*
X171450000Y-120650000D01*
X167640000Y-124460000D02*
X163830000Y-124460000D01*
X171450000Y-120650000D02*
X167640000Y-124460000D01*
X162680000Y-124460000D02*
X161290000Y-123070000D01*
X163830000Y-124460000D02*
X162680000Y-124460000D01*
X161290000Y-119380000D02*
X158750000Y-116840000D01*
X161290000Y-123070000D02*
X161290000Y-119380000D01*
X184150000Y-122402500D02*
X184150000Y-124460000D01*
X189230000Y-129540000D02*
X189230000Y-132080000D01*
X184150000Y-124460000D02*
X189230000Y-129540000D01*
X205239989Y-114315011D02*
X205239989Y-116070011D01*
X202779999Y-118530001D02*
X201930000Y-119380000D01*
X205239989Y-116070011D02*
X202779999Y-118530001D01*
X209140000Y-111465000D02*
X208090000Y-111465000D01*
X208090000Y-111465000D02*
X205239989Y-114315011D01*
X189230000Y-132080000D02*
X190500000Y-132080000D01*
X202911512Y-125730000D02*
X203130001Y-125511511D01*
X203130001Y-125511511D02*
X203130001Y-120580001D01*
X196850000Y-125730000D02*
X202911512Y-125730000D01*
X202779999Y-120229999D02*
X201930000Y-119380000D01*
X190500000Y-132080000D02*
X196850000Y-125730000D01*
X203130001Y-120580001D02*
X202779999Y-120229999D01*
X182880000Y-122402500D02*
X182880000Y-124460000D01*
X186690000Y-128270000D02*
X186690000Y-132080000D01*
X182880000Y-124460000D02*
X186690000Y-128270000D01*
X198120000Y-119380000D02*
X196850000Y-120650000D01*
X199390000Y-119380000D02*
X198120000Y-119380000D01*
X187890001Y-133280001D02*
X187539999Y-132929999D01*
X190569999Y-133280001D02*
X187890001Y-133280001D01*
X187539999Y-132929999D02*
X186690000Y-132080000D01*
X196850000Y-127000000D02*
X190569999Y-133280001D01*
X209140000Y-110815000D02*
X207955000Y-110815000D01*
X201353999Y-118179999D02*
X200153998Y-119380000D01*
X202366003Y-118179999D02*
X201353999Y-118179999D01*
X204130022Y-116415980D02*
X202366003Y-118179999D01*
X204130022Y-114639978D02*
X204130022Y-116415980D01*
X200153998Y-119380000D02*
X199390000Y-119380000D01*
X207955000Y-110815000D02*
X204130022Y-114639978D01*
X179070000Y-122402500D02*
X179070000Y-132080000D01*
X202436002Y-115570000D02*
X200660000Y-115570000D01*
X207840756Y-109515000D02*
X203130001Y-114225755D01*
X203130001Y-114225755D02*
X203130001Y-114876001D01*
X200660000Y-115570000D02*
X200239999Y-115990001D01*
X209140000Y-109515000D02*
X207840756Y-109515000D01*
X203130001Y-114876001D02*
X202436002Y-115570000D01*
X200239999Y-115990001D02*
X199390000Y-116840000D01*
X179070000Y-122402500D02*
X179070000Y-121665000D01*
X179070000Y-121665000D02*
X179070000Y-116840000D01*
X196896958Y-119380000D02*
X197995119Y-118281839D01*
X196850000Y-119380000D02*
X196896958Y-119380000D01*
X176530000Y-122402500D02*
X176530000Y-124460000D01*
X173990000Y-127000000D02*
X173990000Y-132080000D01*
X176530000Y-124460000D02*
X173990000Y-127000000D01*
X202348634Y-114300000D02*
X201930000Y-114300000D01*
X207783634Y-108865000D02*
X202348634Y-114300000D01*
X209140000Y-108865000D02*
X207783634Y-108865000D01*
X197369999Y-129020001D02*
X194709999Y-131680001D01*
X194709999Y-131680001D02*
X194310000Y-132080000D01*
X201742877Y-129020001D02*
X197369999Y-129020001D01*
X207010000Y-123752878D02*
X201742877Y-129020001D01*
X207010000Y-119380000D02*
X207010000Y-123752878D01*
X180340000Y-122402500D02*
X180340000Y-125730000D01*
X181610000Y-127000000D02*
X181610000Y-132080000D01*
X180340000Y-125730000D02*
X181610000Y-127000000D01*
X200660000Y-113030000D02*
X200239999Y-113450001D01*
X200239999Y-113450001D02*
X199390000Y-114300000D01*
X202911512Y-113030000D02*
X200660000Y-113030000D01*
X207726512Y-108215000D02*
X202911512Y-113030000D01*
X209140000Y-108215000D02*
X207726512Y-108215000D01*
X180340000Y-122402500D02*
X180340000Y-116840000D01*
X191770000Y-115570000D02*
X196850000Y-115570000D01*
X181610000Y-122402500D02*
X181610000Y-124460000D01*
X184150000Y-127000000D02*
X184150000Y-132080000D01*
X181610000Y-124460000D02*
X184150000Y-127000000D01*
X195760003Y-113974001D02*
X194816002Y-113030000D01*
X195760003Y-114300000D02*
X195760003Y-113974001D01*
X194816002Y-113030000D02*
X190500000Y-113030000D01*
X190500000Y-113030000D02*
X189230000Y-114300000D01*
X181610000Y-115570000D02*
X181610000Y-122402500D01*
X213990000Y-108865000D02*
X215040000Y-108865000D01*
X210112878Y-106680000D02*
X212297878Y-108865000D01*
X201930000Y-111760000D02*
X207010000Y-106680000D01*
X212297878Y-108865000D02*
X213990000Y-108865000D01*
X207010000Y-106680000D02*
X210112878Y-106680000D01*
X177800000Y-122402500D02*
X177800000Y-125730000D01*
X176530000Y-127000000D02*
X176530000Y-132080000D01*
X177800000Y-125730000D02*
X176530000Y-127000000D01*
X162560000Y-125730000D02*
X160020000Y-123190000D01*
X162560000Y-125730000D02*
X167640000Y-125730000D01*
X167640000Y-125730000D02*
X170180000Y-123190000D01*
X175260000Y-122402500D02*
X175260000Y-124460000D01*
X171450000Y-128270000D02*
X171450000Y-132080000D01*
X175260000Y-124460000D02*
X171450000Y-128270000D01*
X158750000Y-129540000D02*
X160020000Y-130810000D01*
X160020000Y-130810000D02*
X166370000Y-130810000D01*
X168910000Y-132080000D02*
X168910000Y-129540000D01*
X168910000Y-129540000D02*
X173990000Y-124460000D01*
X173990000Y-124460000D02*
X173990000Y-122402500D01*
X162719998Y-127000000D02*
X166370000Y-127000000D01*
X166370000Y-127000000D02*
X168910000Y-129540000D01*
X158750000Y-119380000D02*
X158750000Y-123030002D01*
X158750000Y-123030002D02*
X162719998Y-127000000D01*
X215040000Y-109515000D02*
X211887202Y-109515000D01*
X211887202Y-109515000D02*
X211084536Y-108712334D01*
X214580664Y-106142429D02*
X214014979Y-106142429D01*
X215040000Y-105683093D02*
X214580664Y-106142429D01*
X215040000Y-105145000D02*
X215040000Y-105683093D01*
X213625000Y-112765000D02*
X213360000Y-113030000D01*
X215040000Y-112765000D02*
X213625000Y-112765000D01*
X213990000Y-117135000D02*
X215040000Y-117135000D01*
X212950685Y-117135000D02*
X213990000Y-117135000D01*
X212655685Y-116840000D02*
X212950685Y-117135000D01*
X212090000Y-116840000D02*
X212655685Y-116840000D01*
M02*
