G04 #@! TF.GenerationSoftware,KiCad,Pcbnew,(5.1.5)-3*
G04 #@! TF.CreationDate,2020-01-29T10:29:02+01:00*
G04 #@! TF.ProjectId,ProgrammingBoard,50726f67-7261-46d6-9d69-6e67426f6172,rev?*
G04 #@! TF.SameCoordinates,Original*
G04 #@! TF.FileFunction,Copper,L2,Bot*
G04 #@! TF.FilePolarity,Positive*
%FSLAX46Y46*%
G04 Gerber Fmt 4.6, Leading zero omitted, Abs format (unit mm)*
G04 Created by KiCad (PCBNEW (5.1.5)-3) date 2020-01-29 10:29:02*
%MOMM*%
%LPD*%
G04 APERTURE LIST*
%ADD10O,1.700000X1.700000*%
%ADD11R,1.700000X1.700000*%
%ADD12C,0.800000*%
%ADD13C,0.300000*%
G04 APERTURE END LIST*
D10*
X168910000Y-132080000D03*
X171450000Y-132080000D03*
X173990000Y-132080000D03*
X176530000Y-132080000D03*
X179070000Y-132080000D03*
X181610000Y-132080000D03*
X184150000Y-132080000D03*
X186690000Y-132080000D03*
D11*
X189230000Y-132080000D03*
D10*
X196850000Y-132080000D03*
X199390000Y-132080000D03*
D11*
X201930000Y-132080000D03*
X158750000Y-127000000D03*
D10*
X158750000Y-129540000D03*
X158750000Y-132080000D03*
D11*
X163830000Y-132080000D03*
D10*
X163830000Y-129540000D03*
D11*
X168910000Y-101600000D03*
D10*
X171450000Y-101600000D03*
X173990000Y-101600000D03*
X176530000Y-101600000D03*
X179070000Y-101600000D03*
X181610000Y-101600000D03*
X184150000Y-101600000D03*
X186690000Y-101600000D03*
X189230000Y-101600000D03*
D11*
X194310000Y-109220000D03*
D10*
X194310000Y-111760000D03*
X194310000Y-114300000D03*
X194310000Y-116840000D03*
X194310000Y-119380000D03*
X194310000Y-121920000D03*
X194310000Y-124460000D03*
X163830000Y-109220000D03*
X163830000Y-111760000D03*
X163830000Y-114300000D03*
X163830000Y-116840000D03*
X163830000Y-119380000D03*
X163830000Y-121920000D03*
D11*
X163830000Y-124460000D03*
X201930000Y-124460000D03*
D10*
X199390000Y-124460000D03*
X201930000Y-121920000D03*
X199390000Y-121920000D03*
X201930000Y-119380000D03*
X199390000Y-119380000D03*
X201930000Y-116840000D03*
X199390000Y-116840000D03*
X201930000Y-114300000D03*
X199390000Y-114300000D03*
X201930000Y-111760000D03*
X199390000Y-111760000D03*
X201930000Y-109220000D03*
X199390000Y-109220000D03*
X201930000Y-106680000D03*
X199390000Y-106680000D03*
X201930000Y-104140000D03*
X199390000Y-104140000D03*
X201930000Y-101600000D03*
X199390000Y-101600000D03*
D11*
X158750000Y-101600000D03*
D10*
X158750000Y-104140000D03*
X158750000Y-106680000D03*
X158750000Y-109220000D03*
X158750000Y-111760000D03*
X158750000Y-114300000D03*
X158750000Y-116840000D03*
X158750000Y-119380000D03*
D11*
X163830000Y-101600000D03*
D10*
X163830000Y-104140000D03*
D12*
X166370000Y-129540000D03*
X188190011Y-124526914D03*
X186690000Y-124460000D03*
X207010000Y-127000000D03*
X210820000Y-118110000D03*
X210820000Y-110490000D03*
X210820000Y-102870000D03*
X209550000Y-128270000D03*
X190500000Y-129540000D03*
X175260000Y-115570000D03*
X213535338Y-101995010D03*
X213360000Y-114300000D03*
X213360000Y-120650000D03*
X213238662Y-106772790D03*
X212090000Y-104140000D03*
X212090000Y-119380000D03*
X212090000Y-111760000D03*
X212090000Y-121920000D03*
X212090000Y-100330000D03*
X176530000Y-105410000D03*
X179070000Y-106680000D03*
X180340000Y-107950000D03*
X181610000Y-109220000D03*
X182880000Y-113030000D03*
X184150000Y-114300000D03*
X204470000Y-121920000D03*
X209550000Y-114300000D03*
X201582745Y-128119458D03*
X186690000Y-125730000D03*
X199390000Y-127000000D03*
X196850000Y-120650000D03*
X196850000Y-127000000D03*
X179070000Y-116840000D03*
X196850000Y-119380000D03*
X197995119Y-118281839D03*
X207010000Y-119380000D03*
X194310000Y-132080000D03*
X180340000Y-116840000D03*
X191770000Y-115570000D03*
X196850000Y-115570000D03*
X195760003Y-114300000D03*
X189230000Y-114300000D03*
X181610000Y-115570000D03*
X160020000Y-123190000D03*
X176530000Y-127000000D03*
X170180000Y-123190000D03*
X166370000Y-130810000D03*
X211084536Y-108712334D03*
X214014979Y-106142429D03*
X213360000Y-113030000D03*
X212090000Y-116840000D03*
D13*
X163830000Y-129540000D02*
X161290000Y-127000000D01*
X162680000Y-101600000D02*
X163830000Y-101600000D01*
X161290000Y-102990000D02*
X162680000Y-101600000D01*
X161290000Y-127000000D02*
X161290000Y-102990000D01*
X194310000Y-119380000D02*
X189163086Y-124526914D01*
X189163086Y-124526914D02*
X188755696Y-124526914D01*
X188755696Y-124526914D02*
X188190011Y-124526914D01*
X166370000Y-129540000D02*
X166870011Y-129039989D01*
X182110011Y-129039989D02*
X186290001Y-124859999D01*
X166870011Y-129039989D02*
X182110011Y-129039989D01*
X186290001Y-124859999D02*
X186690000Y-124460000D01*
X207010000Y-127000000D02*
X204470000Y-127000000D01*
X204470000Y-127000000D02*
X201930000Y-129540000D01*
X193203097Y-129540000D02*
X188190011Y-124526914D01*
X201930000Y-129540000D02*
X193203097Y-129540000D01*
X210820000Y-118110000D02*
X210820000Y-110490000D01*
X209550000Y-128270000D02*
X209550000Y-119380000D01*
X209550000Y-119380000D02*
X210820000Y-118110000D01*
X162980001Y-113450001D02*
X163830000Y-114300000D01*
X162629999Y-113099999D02*
X162980001Y-113450001D01*
X162629999Y-105340001D02*
X162629999Y-113099999D01*
X163830000Y-104140000D02*
X162629999Y-105340001D01*
X162629999Y-115500001D02*
X162629999Y-127069999D01*
X163830000Y-114300000D02*
X162629999Y-115500001D01*
X163136001Y-127069999D02*
X165100000Y-129033998D01*
X162629999Y-127069999D02*
X163136001Y-127069999D01*
X164980000Y-132080000D02*
X163830000Y-132080000D01*
X165100000Y-131960000D02*
X164980000Y-132080000D01*
X165100000Y-129033998D02*
X165100000Y-131960000D01*
X175260000Y-115570000D02*
X178300010Y-118610010D01*
X187440001Y-126480001D02*
X190100001Y-129140001D01*
X178300010Y-118610010D02*
X181950012Y-118610010D01*
X190100001Y-129140001D02*
X190500000Y-129540000D01*
X187440001Y-124099999D02*
X187440001Y-126480001D01*
X181950012Y-118610010D02*
X187440001Y-124099999D01*
X202137112Y-130040010D02*
X191000010Y-130040010D01*
X209550000Y-128270000D02*
X203907122Y-128270000D01*
X203907122Y-128270000D02*
X202137112Y-130040010D01*
X190899999Y-129939999D02*
X190500000Y-129540000D01*
X191000010Y-130040010D02*
X190899999Y-129939999D01*
X210319989Y-103370011D02*
X210420001Y-103269999D01*
X210420001Y-103269999D02*
X210820000Y-102870000D01*
X210319989Y-109989989D02*
X210319989Y-103370011D01*
X210820000Y-110490000D02*
X210319989Y-109989989D01*
X198389979Y-130540021D02*
X196850000Y-132080000D01*
X203907122Y-129540000D02*
X202907101Y-130540021D01*
X209550000Y-129540000D02*
X203907122Y-129540000D01*
X202907101Y-130540021D02*
X198389979Y-130540021D01*
X213535338Y-101995010D02*
X214764989Y-103224661D01*
X214764989Y-103224661D02*
X214764989Y-107107889D01*
X214764989Y-107107889D02*
X214630000Y-107242878D01*
X214630000Y-107242878D02*
X214630000Y-124460000D01*
X214630000Y-124460000D02*
X209550000Y-129540000D01*
X213360000Y-114300000D02*
X213360000Y-120650000D01*
X213360000Y-114300000D02*
X214110001Y-113549999D01*
X214110001Y-107644129D02*
X213638661Y-107172789D01*
X214110001Y-113549999D02*
X214110001Y-107644129D01*
X213638661Y-107172789D02*
X213238662Y-106772790D01*
X212090000Y-121920000D02*
X212090000Y-119380000D01*
X212090000Y-104140000D02*
X212090000Y-106839998D01*
X212489999Y-111360001D02*
X212090000Y-111760000D01*
X212840001Y-107589999D02*
X212840001Y-111009999D01*
X212840001Y-111009999D02*
X212489999Y-111360001D01*
X212090000Y-106839998D02*
X212840001Y-107589999D01*
X211339998Y-117200002D02*
X212090000Y-117950004D01*
X212090000Y-118814315D02*
X212090000Y-119380000D01*
X212090000Y-111760000D02*
X211339998Y-112510002D01*
X211339998Y-112510002D02*
X211339998Y-117200002D01*
X212090000Y-117950004D02*
X212090000Y-118814315D01*
X172299999Y-100750001D02*
X171450000Y-101600000D01*
X172650001Y-100399999D02*
X172299999Y-100750001D01*
X200729999Y-100399999D02*
X172650001Y-100399999D01*
X201930000Y-101600000D02*
X200729999Y-100399999D01*
X201930000Y-101600000D02*
X210820000Y-101600000D01*
X210820000Y-101600000D02*
X212090000Y-100330000D01*
X176530000Y-104140000D02*
X173990000Y-101600000D01*
X199390000Y-104140000D02*
X176530000Y-104140000D01*
X201930000Y-104140000D02*
X200660000Y-105410000D01*
X200660000Y-105410000D02*
X176530000Y-105410000D01*
X199390000Y-106680000D02*
X179070000Y-106680000D01*
X200729999Y-107880001D02*
X196007125Y-107880001D01*
X196007125Y-107880001D02*
X195647113Y-107519989D01*
X195647113Y-107519989D02*
X180770011Y-107519989D01*
X201930000Y-106680000D02*
X200729999Y-107880001D01*
X180770011Y-107519989D02*
X180739999Y-107550001D01*
X180739999Y-107550001D02*
X180340000Y-107950000D01*
X195440001Y-108019999D02*
X192970001Y-108019999D01*
X196640002Y-109220000D02*
X195440001Y-108019999D01*
X199390000Y-109220000D02*
X196640002Y-109220000D01*
X192970001Y-108019999D02*
X191770000Y-109220000D01*
X191770000Y-109220000D02*
X181610000Y-109220000D01*
X201930000Y-109220000D02*
X200590001Y-109220000D01*
X200590001Y-109796001D02*
X199896002Y-110490000D01*
X200590001Y-109220000D02*
X200590001Y-109796001D01*
X199896002Y-110490000D02*
X185420000Y-110490000D01*
X185420000Y-110490000D02*
X182880000Y-113030000D01*
X185420000Y-113030000D02*
X184549999Y-113900001D01*
X197592881Y-111760000D02*
X196322881Y-113030000D01*
X199390000Y-111760000D02*
X197592881Y-111760000D01*
X184549999Y-113900001D02*
X184150000Y-114300000D01*
X196322881Y-113030000D02*
X185420000Y-113030000D01*
X204470000Y-121920000D02*
X203200000Y-123190000D01*
X200660000Y-123190000D02*
X199390000Y-121920000D01*
X203200000Y-123190000D02*
X200660000Y-123190000D01*
X197245119Y-118641839D02*
X197245119Y-117235119D01*
X197245119Y-117235119D02*
X195159999Y-115149999D01*
X197600002Y-119366004D02*
X197600002Y-118996722D01*
X197600002Y-118996722D02*
X197245119Y-118641839D01*
X200590001Y-120580001D02*
X198813999Y-120580001D01*
X195159999Y-115149999D02*
X194310000Y-114300000D01*
X201930000Y-121920000D02*
X200590001Y-120580001D01*
X198813999Y-120580001D02*
X197600002Y-119366004D01*
X209550000Y-114865685D02*
X209550000Y-114300000D01*
X209550000Y-117950002D02*
X209550000Y-114865685D01*
X206430001Y-121070001D02*
X209550000Y-117950002D01*
X202779999Y-121070001D02*
X206430001Y-121070001D01*
X201930000Y-121920000D02*
X202779999Y-121070001D01*
X201930000Y-124460000D02*
X201930000Y-127772203D01*
X201930000Y-127772203D02*
X201582745Y-128119458D01*
X158750000Y-132080000D02*
X160020000Y-133350000D01*
X172789999Y-131503999D02*
X174753998Y-129540000D01*
X172789999Y-132516003D02*
X172789999Y-131503999D01*
X171956002Y-133350000D02*
X172789999Y-132516003D01*
X160020000Y-133350000D02*
X171956002Y-133350000D01*
X174753998Y-129540000D02*
X182880000Y-129540000D01*
X182880000Y-129540000D02*
X186690000Y-125730000D01*
X199390000Y-124460000D02*
X199390000Y-127000000D01*
X196850000Y-120650000D02*
X196850000Y-127000000D01*
X179070000Y-116840000D02*
X180340000Y-118110000D01*
X194816002Y-118110000D02*
X196086002Y-119380000D01*
X180340000Y-118110000D02*
X194816002Y-118110000D01*
X196086002Y-119380000D02*
X196850000Y-119380000D01*
X197995119Y-118234881D02*
X199390000Y-116840000D01*
X197995119Y-118281839D02*
X197995119Y-118234881D01*
X201930000Y-114300000D02*
X207010000Y-119380000D01*
X175190001Y-130879999D02*
X174839999Y-131230001D01*
X193109999Y-130879999D02*
X175190001Y-130879999D01*
X174839999Y-131230001D02*
X173990000Y-132080000D01*
X194310000Y-132080000D02*
X193109999Y-130879999D01*
X180340000Y-116840000D02*
X190500000Y-116840000D01*
X190500000Y-116840000D02*
X191770000Y-115570000D01*
X198120000Y-115570000D02*
X199390000Y-114300000D01*
X196850000Y-115570000D02*
X198120000Y-115570000D01*
X197100002Y-112960001D02*
X195760003Y-114300000D01*
X200729999Y-112960001D02*
X197100002Y-112960001D01*
X201930000Y-111760000D02*
X200729999Y-112960001D01*
X189230000Y-114300000D02*
X187960000Y-115570000D01*
X187960000Y-115570000D02*
X181610000Y-115570000D01*
X158750000Y-124460000D02*
X160020000Y-123190000D01*
X158750000Y-127000000D02*
X158750000Y-124460000D01*
X175260000Y-125730000D02*
X176530000Y-127000000D01*
X170180000Y-123190000D02*
X171450000Y-124460000D01*
X173990000Y-124460000D02*
X175260000Y-125730000D01*
X171450000Y-124460000D02*
X173990000Y-124460000D01*
X170180000Y-130810000D02*
X171450000Y-132080000D01*
X166370000Y-130810000D02*
X170180000Y-130810000D01*
X213519998Y-103029998D02*
X214014979Y-103524979D01*
X211084536Y-104035462D02*
X212090000Y-103029998D01*
X214014979Y-103524979D02*
X214014979Y-105576744D01*
X211084536Y-108712334D02*
X211084536Y-104035462D01*
X212090000Y-103029998D02*
X213519998Y-103029998D01*
X214014979Y-105576744D02*
X214014979Y-106142429D01*
X213360000Y-113030000D02*
X212090000Y-114300000D01*
X212090000Y-114300000D02*
X212090000Y-116840000D01*
M02*
