G04 #@! TF.GenerationSoftware,KiCad,Pcbnew,(5.1.5)-3*
G04 #@! TF.CreationDate,2020-03-19T17:15:20+01:00*
G04 #@! TF.ProjectId,ProgrammingBoard,50726f67-7261-46d6-9d69-6e67426f6172,v0.1*
G04 #@! TF.SameCoordinates,Original*
G04 #@! TF.FileFunction,Legend,Bot*
G04 #@! TF.FilePolarity,Positive*
%FSLAX46Y46*%
G04 Gerber Fmt 4.6, Leading zero omitted, Abs format (unit mm)*
G04 Created by KiCad (PCBNEW (5.1.5)-3) date 2020-03-19 17:15:20*
%MOMM*%
%LPD*%
G04 APERTURE LIST*
%ADD10C,0.250000*%
%ADD11C,0.150000*%
%ADD12C,0.500000*%
G04 APERTURE END LIST*
D10*
X215477380Y-100730595D02*
X214477380Y-100730595D01*
X214477380Y-101111547D01*
X214525000Y-101206785D01*
X214572619Y-101254404D01*
X214667857Y-101302023D01*
X214810714Y-101302023D01*
X214905952Y-101254404D01*
X214953571Y-101206785D01*
X215001190Y-101111547D01*
X215001190Y-100730595D01*
X215477380Y-101873452D02*
X215429761Y-101778214D01*
X215382142Y-101730595D01*
X215286904Y-101682976D01*
X215001190Y-101682976D01*
X214905952Y-101730595D01*
X214858333Y-101778214D01*
X214810714Y-101873452D01*
X214810714Y-102016309D01*
X214858333Y-102111547D01*
X214905952Y-102159166D01*
X215001190Y-102206785D01*
X215286904Y-102206785D01*
X215382142Y-102159166D01*
X215429761Y-102111547D01*
X215477380Y-102016309D01*
X215477380Y-101873452D01*
X214810714Y-102635357D02*
X215810714Y-102635357D01*
X214858333Y-102635357D02*
X214810714Y-102730595D01*
X214810714Y-102921071D01*
X214858333Y-103016309D01*
X214905952Y-103063928D01*
X215001190Y-103111547D01*
X215286904Y-103111547D01*
X215382142Y-103063928D01*
X215429761Y-103016309D01*
X215477380Y-102921071D01*
X215477380Y-102730595D01*
X215429761Y-102635357D01*
X214810714Y-103968690D02*
X215477380Y-103968690D01*
X214810714Y-103540119D02*
X215334523Y-103540119D01*
X215429761Y-103587738D01*
X215477380Y-103682976D01*
X215477380Y-103825833D01*
X215429761Y-103921071D01*
X215382142Y-103968690D01*
X215477380Y-104587738D02*
X215429761Y-104492500D01*
X215334523Y-104444880D01*
X214477380Y-104444880D01*
X215477380Y-105397261D02*
X214953571Y-105397261D01*
X214858333Y-105349642D01*
X214810714Y-105254404D01*
X214810714Y-105063928D01*
X214858333Y-104968690D01*
X215429761Y-105397261D02*
X215477380Y-105302023D01*
X215477380Y-105063928D01*
X215429761Y-104968690D01*
X215334523Y-104921071D01*
X215239285Y-104921071D01*
X215144047Y-104968690D01*
X215096428Y-105063928D01*
X215096428Y-105302023D01*
X215048809Y-105397261D01*
X214810714Y-105730595D02*
X214810714Y-106111547D01*
X214477380Y-105873452D02*
X215334523Y-105873452D01*
X215429761Y-105921071D01*
X215477380Y-106016309D01*
X215477380Y-106111547D01*
X215429761Y-106825833D02*
X215477380Y-106730595D01*
X215477380Y-106540119D01*
X215429761Y-106444880D01*
X215334523Y-106397261D01*
X214953571Y-106397261D01*
X214858333Y-106444880D01*
X214810714Y-106540119D01*
X214810714Y-106730595D01*
X214858333Y-106825833D01*
X214953571Y-106873452D01*
X215048809Y-106873452D01*
X215144047Y-106397261D01*
X215477380Y-108206785D02*
X215429761Y-108111547D01*
X215382142Y-108063928D01*
X215286904Y-108016309D01*
X215001190Y-108016309D01*
X214905952Y-108063928D01*
X214858333Y-108111547D01*
X214810714Y-108206785D01*
X214810714Y-108349642D01*
X214858333Y-108444880D01*
X214905952Y-108492500D01*
X215001190Y-108540119D01*
X215286904Y-108540119D01*
X215382142Y-108492500D01*
X215429761Y-108444880D01*
X215477380Y-108349642D01*
X215477380Y-108206785D01*
X214810714Y-108968690D02*
X215477380Y-108968690D01*
X214905952Y-108968690D02*
X214858333Y-109016309D01*
X214810714Y-109111547D01*
X214810714Y-109254404D01*
X214858333Y-109349642D01*
X214953571Y-109397261D01*
X215477380Y-109397261D01*
X215477380Y-110016309D02*
X215429761Y-109921071D01*
X215334523Y-109873452D01*
X214477380Y-109873452D01*
X214810714Y-110302023D02*
X215477380Y-110540119D01*
X214810714Y-110778214D02*
X215477380Y-110540119D01*
X215715476Y-110444880D01*
X215763095Y-110397261D01*
X215810714Y-110302023D01*
X215477380Y-111921071D02*
X214477380Y-111921071D01*
X214477380Y-112302023D01*
X214525000Y-112397261D01*
X214572619Y-112444880D01*
X214667857Y-112492500D01*
X214810714Y-112492500D01*
X214905952Y-112444880D01*
X214953571Y-112397261D01*
X215001190Y-112302023D01*
X215001190Y-111921071D01*
X215477380Y-113397261D02*
X215477380Y-112921071D01*
X214477380Y-112921071D01*
X215382142Y-114302023D02*
X215429761Y-114254404D01*
X215477380Y-114111547D01*
X215477380Y-114016309D01*
X215429761Y-113873452D01*
X215334523Y-113778214D01*
X215239285Y-113730595D01*
X215048809Y-113682976D01*
X214905952Y-113682976D01*
X214715476Y-113730595D01*
X214620238Y-113778214D01*
X214525000Y-113873452D01*
X214477380Y-114016309D01*
X214477380Y-114111547D01*
X214525000Y-114254404D01*
X214572619Y-114302023D01*
X215382142Y-115302023D02*
X215429761Y-115254404D01*
X215477380Y-115111547D01*
X215477380Y-115016309D01*
X215429761Y-114873452D01*
X215334523Y-114778214D01*
X215239285Y-114730595D01*
X215048809Y-114682976D01*
X214905952Y-114682976D01*
X214715476Y-114730595D01*
X214620238Y-114778214D01*
X214525000Y-114873452D01*
X214477380Y-115016309D01*
X214477380Y-115111547D01*
X214525000Y-115254404D01*
X214572619Y-115302023D01*
X215477380Y-116921071D02*
X214953571Y-116921071D01*
X214858333Y-116873452D01*
X214810714Y-116778214D01*
X214810714Y-116587738D01*
X214858333Y-116492500D01*
X215429761Y-116921071D02*
X215477380Y-116825833D01*
X215477380Y-116587738D01*
X215429761Y-116492500D01*
X215334523Y-116444880D01*
X215239285Y-116444880D01*
X215144047Y-116492500D01*
X215096428Y-116587738D01*
X215096428Y-116825833D01*
X215048809Y-116921071D01*
X214810714Y-117397261D02*
X215477380Y-117397261D01*
X214905952Y-117397261D02*
X214858333Y-117444880D01*
X214810714Y-117540119D01*
X214810714Y-117682976D01*
X214858333Y-117778214D01*
X214953571Y-117825833D01*
X215477380Y-117825833D01*
X215477380Y-118730595D02*
X214477380Y-118730595D01*
X215429761Y-118730595D02*
X215477380Y-118635357D01*
X215477380Y-118444880D01*
X215429761Y-118349642D01*
X215382142Y-118302023D01*
X215286904Y-118254404D01*
X215001190Y-118254404D01*
X214905952Y-118302023D01*
X214858333Y-118349642D01*
X214810714Y-118444880D01*
X214810714Y-118635357D01*
X214858333Y-118730595D01*
X214477380Y-120254404D02*
X215191666Y-120254404D01*
X215334523Y-120206785D01*
X215429761Y-120111547D01*
X215477380Y-119968690D01*
X215477380Y-119873452D01*
X214477380Y-120635357D02*
X214477380Y-121254404D01*
X214858333Y-120921071D01*
X214858333Y-121063928D01*
X214905952Y-121159166D01*
X214953571Y-121206785D01*
X215048809Y-121254404D01*
X215286904Y-121254404D01*
X215382142Y-121206785D01*
X215429761Y-121159166D01*
X215477380Y-121063928D01*
X215477380Y-120778214D01*
X215429761Y-120682976D01*
X215382142Y-120635357D01*
X214429761Y-122397261D02*
X215715476Y-121540119D01*
X214810714Y-123159166D02*
X215477380Y-123159166D01*
X214429761Y-122921071D02*
X215144047Y-122682976D01*
X215144047Y-123302023D01*
X214429761Y-124397261D02*
X215715476Y-123540119D01*
X214477380Y-125206785D02*
X214477380Y-124730595D01*
X214953571Y-124682976D01*
X214905952Y-124730595D01*
X214858333Y-124825833D01*
X214858333Y-125063928D01*
X214905952Y-125159166D01*
X214953571Y-125206785D01*
X215048809Y-125254404D01*
X215286904Y-125254404D01*
X215382142Y-125206785D01*
X215429761Y-125159166D01*
X215477380Y-125063928D01*
X215477380Y-124825833D01*
X215429761Y-124730595D01*
X215382142Y-124682976D01*
X214429761Y-126397261D02*
X215715476Y-125540119D01*
X214905952Y-126873452D02*
X214858333Y-126778214D01*
X214810714Y-126730595D01*
X214715476Y-126682976D01*
X214667857Y-126682976D01*
X214572619Y-126730595D01*
X214525000Y-126778214D01*
X214477380Y-126873452D01*
X214477380Y-127063928D01*
X214525000Y-127159166D01*
X214572619Y-127206785D01*
X214667857Y-127254404D01*
X214715476Y-127254404D01*
X214810714Y-127206785D01*
X214858333Y-127159166D01*
X214905952Y-127063928D01*
X214905952Y-126873452D01*
X214953571Y-126778214D01*
X215001190Y-126730595D01*
X215096428Y-126682976D01*
X215286904Y-126682976D01*
X215382142Y-126730595D01*
X215429761Y-126778214D01*
X215477380Y-126873452D01*
X215477380Y-127063928D01*
X215429761Y-127159166D01*
X215382142Y-127206785D01*
X215286904Y-127254404D01*
X215096428Y-127254404D01*
X215001190Y-127206785D01*
X214953571Y-127159166D01*
X214905952Y-127063928D01*
X216560714Y-100587738D02*
X216560714Y-100968690D01*
X216227380Y-100730595D02*
X217084523Y-100730595D01*
X217179761Y-100778214D01*
X217227380Y-100873452D01*
X217227380Y-100968690D01*
X217227380Y-101444880D02*
X217179761Y-101349642D01*
X217132142Y-101302023D01*
X217036904Y-101254404D01*
X216751190Y-101254404D01*
X216655952Y-101302023D01*
X216608333Y-101349642D01*
X216560714Y-101444880D01*
X216560714Y-101587738D01*
X216608333Y-101682976D01*
X216655952Y-101730595D01*
X216751190Y-101778214D01*
X217036904Y-101778214D01*
X217132142Y-101730595D01*
X217179761Y-101682976D01*
X217227380Y-101587738D01*
X217227380Y-101444880D01*
X216560714Y-103397261D02*
X217227380Y-103397261D01*
X216560714Y-102968690D02*
X217084523Y-102968690D01*
X217179761Y-103016309D01*
X217227380Y-103111547D01*
X217227380Y-103254404D01*
X217179761Y-103349642D01*
X217132142Y-103397261D01*
X217179761Y-103825833D02*
X217227380Y-103921071D01*
X217227380Y-104111547D01*
X217179761Y-104206785D01*
X217084523Y-104254404D01*
X217036904Y-104254404D01*
X216941666Y-104206785D01*
X216894047Y-104111547D01*
X216894047Y-103968690D01*
X216846428Y-103873452D01*
X216751190Y-103825833D01*
X216703571Y-103825833D01*
X216608333Y-103873452D01*
X216560714Y-103968690D01*
X216560714Y-104111547D01*
X216608333Y-104206785D01*
X217179761Y-105063928D02*
X217227380Y-104968690D01*
X217227380Y-104778214D01*
X217179761Y-104682976D01*
X217084523Y-104635357D01*
X216703571Y-104635357D01*
X216608333Y-104682976D01*
X216560714Y-104778214D01*
X216560714Y-104968690D01*
X216608333Y-105063928D01*
X216703571Y-105111547D01*
X216798809Y-105111547D01*
X216894047Y-104635357D01*
X217227380Y-106730595D02*
X216703571Y-106730595D01*
X216608333Y-106682976D01*
X216560714Y-106587738D01*
X216560714Y-106397261D01*
X216608333Y-106302023D01*
X217179761Y-106730595D02*
X217227380Y-106635357D01*
X217227380Y-106397261D01*
X217179761Y-106302023D01*
X217084523Y-106254404D01*
X216989285Y-106254404D01*
X216894047Y-106302023D01*
X216846428Y-106397261D01*
X216846428Y-106635357D01*
X216798809Y-106730595D01*
X217179761Y-107159166D02*
X217227380Y-107254404D01*
X217227380Y-107444880D01*
X217179761Y-107540119D01*
X217084523Y-107587738D01*
X217036904Y-107587738D01*
X216941666Y-107540119D01*
X216894047Y-107444880D01*
X216894047Y-107302023D01*
X216846428Y-107206785D01*
X216751190Y-107159166D01*
X216703571Y-107159166D01*
X216608333Y-107206785D01*
X216560714Y-107302023D01*
X216560714Y-107444880D01*
X216608333Y-107540119D01*
X216560714Y-108778214D02*
X217560714Y-108778214D01*
X216608333Y-108778214D02*
X216560714Y-108873452D01*
X216560714Y-109063928D01*
X216608333Y-109159166D01*
X216655952Y-109206785D01*
X216751190Y-109254404D01*
X217036904Y-109254404D01*
X217132142Y-109206785D01*
X217179761Y-109159166D01*
X217227380Y-109063928D01*
X217227380Y-108873452D01*
X217179761Y-108778214D01*
X216560714Y-110111547D02*
X217227380Y-110111547D01*
X216560714Y-109682976D02*
X217084523Y-109682976D01*
X217179761Y-109730595D01*
X217227380Y-109825833D01*
X217227380Y-109968690D01*
X217179761Y-110063928D01*
X217132142Y-110111547D01*
X217227380Y-110587738D02*
X216560714Y-110587738D01*
X216751190Y-110587738D02*
X216655952Y-110635357D01*
X216608333Y-110682976D01*
X216560714Y-110778214D01*
X216560714Y-110873452D01*
X217179761Y-111587738D02*
X217227380Y-111492500D01*
X217227380Y-111302023D01*
X217179761Y-111206785D01*
X217084523Y-111159166D01*
X216703571Y-111159166D01*
X216608333Y-111206785D01*
X216560714Y-111302023D01*
X216560714Y-111492500D01*
X216608333Y-111587738D01*
X216703571Y-111635357D01*
X216798809Y-111635357D01*
X216894047Y-111159166D01*
X217227380Y-112825833D02*
X216227380Y-112825833D01*
X216608333Y-112825833D02*
X216560714Y-112921071D01*
X216560714Y-113111547D01*
X216608333Y-113206785D01*
X216655952Y-113254404D01*
X216751190Y-113302023D01*
X217036904Y-113302023D01*
X217132142Y-113254404D01*
X217179761Y-113206785D01*
X217227380Y-113111547D01*
X217227380Y-112921071D01*
X217179761Y-112825833D01*
X217227380Y-113730595D02*
X216560714Y-113730595D01*
X216751190Y-113730595D02*
X216655952Y-113778214D01*
X216608333Y-113825833D01*
X216560714Y-113921071D01*
X216560714Y-114016309D01*
X217179761Y-114730595D02*
X217227380Y-114635357D01*
X217227380Y-114444880D01*
X217179761Y-114349642D01*
X217084523Y-114302023D01*
X216703571Y-114302023D01*
X216608333Y-114349642D01*
X216560714Y-114444880D01*
X216560714Y-114635357D01*
X216608333Y-114730595D01*
X216703571Y-114778214D01*
X216798809Y-114778214D01*
X216894047Y-114302023D01*
X217227380Y-115635357D02*
X216703571Y-115635357D01*
X216608333Y-115587738D01*
X216560714Y-115492500D01*
X216560714Y-115302023D01*
X216608333Y-115206785D01*
X217179761Y-115635357D02*
X217227380Y-115540119D01*
X217227380Y-115302023D01*
X217179761Y-115206785D01*
X217084523Y-115159166D01*
X216989285Y-115159166D01*
X216894047Y-115206785D01*
X216846428Y-115302023D01*
X216846428Y-115540119D01*
X216798809Y-115635357D01*
X217227380Y-116111547D02*
X216227380Y-116111547D01*
X216846428Y-116206785D02*
X217227380Y-116492500D01*
X216560714Y-116492500D02*
X216941666Y-116111547D01*
X217227380Y-117063928D02*
X217179761Y-116968690D01*
X217132142Y-116921071D01*
X217036904Y-116873452D01*
X216751190Y-116873452D01*
X216655952Y-116921071D01*
X216608333Y-116968690D01*
X216560714Y-117063928D01*
X216560714Y-117206785D01*
X216608333Y-117302023D01*
X216655952Y-117349642D01*
X216751190Y-117397261D01*
X217036904Y-117397261D01*
X217132142Y-117349642D01*
X217179761Y-117302023D01*
X217227380Y-117206785D01*
X217227380Y-117063928D01*
X216560714Y-118254404D02*
X217227380Y-118254404D01*
X216560714Y-117825833D02*
X217084523Y-117825833D01*
X217179761Y-117873452D01*
X217227380Y-117968690D01*
X217227380Y-118111547D01*
X217179761Y-118206785D01*
X217132142Y-118254404D01*
X216560714Y-118587738D02*
X216560714Y-118968690D01*
X216227380Y-118730595D02*
X217084523Y-118730595D01*
X217179761Y-118778214D01*
X217227380Y-118873452D01*
X217227380Y-118968690D01*
X217132142Y-119302023D02*
X217179761Y-119349642D01*
X217227380Y-119302023D01*
X217179761Y-119254404D01*
X217132142Y-119302023D01*
X217227380Y-119302023D01*
D11*
X216955714Y-130651428D02*
X217622380Y-130889523D01*
X216955714Y-131127619D01*
X216622380Y-131699047D02*
X216622380Y-131794285D01*
X216670000Y-131889523D01*
X216717619Y-131937142D01*
X216812857Y-131984761D01*
X217003333Y-132032380D01*
X217241428Y-132032380D01*
X217431904Y-131984761D01*
X217527142Y-131937142D01*
X217574761Y-131889523D01*
X217622380Y-131794285D01*
X217622380Y-131699047D01*
X217574761Y-131603809D01*
X217527142Y-131556190D01*
X217431904Y-131508571D01*
X217241428Y-131460952D01*
X217003333Y-131460952D01*
X216812857Y-131508571D01*
X216717619Y-131556190D01*
X216670000Y-131603809D01*
X216622380Y-131699047D01*
X217527142Y-132460952D02*
X217574761Y-132508571D01*
X217622380Y-132460952D01*
X217574761Y-132413333D01*
X217527142Y-132460952D01*
X217622380Y-132460952D01*
X216622380Y-133127619D02*
X216622380Y-133222857D01*
X216670000Y-133318095D01*
X216717619Y-133365714D01*
X216812857Y-133413333D01*
X217003333Y-133460952D01*
X217241428Y-133460952D01*
X217431904Y-133413333D01*
X217527142Y-133365714D01*
X217574761Y-133318095D01*
X217622380Y-133222857D01*
X217622380Y-133127619D01*
X217574761Y-133032380D01*
X217527142Y-132984761D01*
X217431904Y-132937142D01*
X217241428Y-132889523D01*
X217003333Y-132889523D01*
X216812857Y-132937142D01*
X216717619Y-132984761D01*
X216670000Y-133032380D01*
X216622380Y-133127619D01*
D10*
X205502857Y-100778214D02*
X204302857Y-100778214D01*
X204302857Y-101235357D01*
X204360000Y-101349642D01*
X204417142Y-101406785D01*
X204531428Y-101463928D01*
X204702857Y-101463928D01*
X204817142Y-101406785D01*
X204874285Y-101349642D01*
X204931428Y-101235357D01*
X204931428Y-100778214D01*
X205502857Y-102549642D02*
X205502857Y-101978214D01*
X204302857Y-101978214D01*
X205388571Y-103635357D02*
X205445714Y-103578214D01*
X205502857Y-103406785D01*
X205502857Y-103292500D01*
X205445714Y-103121071D01*
X205331428Y-103006785D01*
X205217142Y-102949642D01*
X204988571Y-102892500D01*
X204817142Y-102892500D01*
X204588571Y-102949642D01*
X204474285Y-103006785D01*
X204360000Y-103121071D01*
X204302857Y-103292500D01*
X204302857Y-103406785D01*
X204360000Y-103578214D01*
X204417142Y-103635357D01*
X205388571Y-104835357D02*
X205445714Y-104778214D01*
X205502857Y-104606785D01*
X205502857Y-104492500D01*
X205445714Y-104321071D01*
X205331428Y-104206785D01*
X205217142Y-104149642D01*
X204988571Y-104092500D01*
X204817142Y-104092500D01*
X204588571Y-104149642D01*
X204474285Y-104206785D01*
X204360000Y-104321071D01*
X204302857Y-104492500D01*
X204302857Y-104606785D01*
X204360000Y-104778214D01*
X204417142Y-104835357D01*
X204302857Y-106149642D02*
X204302857Y-106892500D01*
X204760000Y-106492500D01*
X204760000Y-106663928D01*
X204817142Y-106778214D01*
X204874285Y-106835357D01*
X204988571Y-106892500D01*
X205274285Y-106892500D01*
X205388571Y-106835357D01*
X205445714Y-106778214D01*
X205502857Y-106663928D01*
X205502857Y-106321071D01*
X205445714Y-106206785D01*
X205388571Y-106149642D01*
X204417142Y-107349642D02*
X204360000Y-107406785D01*
X204302857Y-107521071D01*
X204302857Y-107806785D01*
X204360000Y-107921071D01*
X204417142Y-107978214D01*
X204531428Y-108035357D01*
X204645714Y-108035357D01*
X204817142Y-107978214D01*
X205502857Y-107292500D01*
X205502857Y-108035357D01*
X204874285Y-109863928D02*
X204931428Y-110035357D01*
X204988571Y-110092500D01*
X205102857Y-110149642D01*
X205274285Y-110149642D01*
X205388571Y-110092500D01*
X205445714Y-110035357D01*
X205502857Y-109921071D01*
X205502857Y-109463928D01*
X204302857Y-109463928D01*
X204302857Y-109863928D01*
X204360000Y-109978214D01*
X204417142Y-110035357D01*
X204531428Y-110092500D01*
X204645714Y-110092500D01*
X204760000Y-110035357D01*
X204817142Y-109978214D01*
X204874285Y-109863928D01*
X204874285Y-109463928D01*
X205502857Y-110663928D02*
X204702857Y-110663928D01*
X204931428Y-110663928D02*
X204817142Y-110721071D01*
X204760000Y-110778214D01*
X204702857Y-110892500D01*
X204702857Y-111006785D01*
X205445714Y-111863928D02*
X205502857Y-111749642D01*
X205502857Y-111521071D01*
X205445714Y-111406785D01*
X205331428Y-111349642D01*
X204874285Y-111349642D01*
X204760000Y-111406785D01*
X204702857Y-111521071D01*
X204702857Y-111749642D01*
X204760000Y-111863928D01*
X204874285Y-111921071D01*
X204988571Y-111921071D01*
X205102857Y-111349642D01*
X205502857Y-112949642D02*
X204874285Y-112949642D01*
X204760000Y-112892500D01*
X204702857Y-112778214D01*
X204702857Y-112549642D01*
X204760000Y-112435357D01*
X205445714Y-112949642D02*
X205502857Y-112835357D01*
X205502857Y-112549642D01*
X205445714Y-112435357D01*
X205331428Y-112378214D01*
X205217142Y-112378214D01*
X205102857Y-112435357D01*
X205045714Y-112549642D01*
X205045714Y-112835357D01*
X204988571Y-112949642D01*
X205502857Y-113521071D02*
X204302857Y-113521071D01*
X205045714Y-113635357D02*
X205502857Y-113978214D01*
X204702857Y-113978214D02*
X205160000Y-113521071D01*
X205502857Y-114663928D02*
X205445714Y-114549642D01*
X205388571Y-114492500D01*
X205274285Y-114435357D01*
X204931428Y-114435357D01*
X204817142Y-114492500D01*
X204760000Y-114549642D01*
X204702857Y-114663928D01*
X204702857Y-114835357D01*
X204760000Y-114949642D01*
X204817142Y-115006785D01*
X204931428Y-115063928D01*
X205274285Y-115063928D01*
X205388571Y-115006785D01*
X205445714Y-114949642D01*
X205502857Y-114835357D01*
X205502857Y-114663928D01*
X204702857Y-116092500D02*
X205502857Y-116092500D01*
X204702857Y-115578214D02*
X205331428Y-115578214D01*
X205445714Y-115635357D01*
X205502857Y-115749642D01*
X205502857Y-115921071D01*
X205445714Y-116035357D01*
X205388571Y-116092500D01*
X204702857Y-116492500D02*
X204702857Y-116949642D01*
X204302857Y-116663928D02*
X205331428Y-116663928D01*
X205445714Y-116721071D01*
X205502857Y-116835357D01*
X205502857Y-116949642D01*
X205045714Y-118263928D02*
X205045714Y-119178214D01*
X205502857Y-118721071D02*
X204588571Y-118721071D01*
X207495714Y-100721071D02*
X207552857Y-100892500D01*
X207552857Y-101178214D01*
X207495714Y-101292500D01*
X207438571Y-101349642D01*
X207324285Y-101406785D01*
X207210000Y-101406785D01*
X207095714Y-101349642D01*
X207038571Y-101292500D01*
X206981428Y-101178214D01*
X206924285Y-100949642D01*
X206867142Y-100835357D01*
X206810000Y-100778214D01*
X206695714Y-100721071D01*
X206581428Y-100721071D01*
X206467142Y-100778214D01*
X206410000Y-100835357D01*
X206352857Y-100949642D01*
X206352857Y-101235357D01*
X206410000Y-101406785D01*
X207552857Y-101921071D02*
X206352857Y-101921071D01*
X207552857Y-102435357D02*
X206924285Y-102435357D01*
X206810000Y-102378214D01*
X206752857Y-102263928D01*
X206752857Y-102092500D01*
X206810000Y-101978214D01*
X206867142Y-101921071D01*
X207552857Y-103006785D02*
X206752857Y-103006785D01*
X206352857Y-103006785D02*
X206410000Y-102949642D01*
X206467142Y-103006785D01*
X206410000Y-103063928D01*
X206352857Y-103006785D01*
X206467142Y-103006785D01*
X206752857Y-103406785D02*
X206752857Y-103863928D01*
X207552857Y-103578214D02*
X206524285Y-103578214D01*
X206410000Y-103635357D01*
X206352857Y-103749642D01*
X206352857Y-103863928D01*
X206752857Y-104092500D02*
X206752857Y-104549642D01*
X206352857Y-104263928D02*
X207381428Y-104263928D01*
X207495714Y-104321071D01*
X207552857Y-104435357D01*
X207552857Y-104549642D01*
X207552857Y-106549642D02*
X206981428Y-106149642D01*
X207552857Y-105863928D02*
X206352857Y-105863928D01*
X206352857Y-106321071D01*
X206410000Y-106435357D01*
X206467142Y-106492500D01*
X206581428Y-106549642D01*
X206752857Y-106549642D01*
X206867142Y-106492500D01*
X206924285Y-106435357D01*
X206981428Y-106321071D01*
X206981428Y-105863928D01*
X207495714Y-107521071D02*
X207552857Y-107406785D01*
X207552857Y-107178214D01*
X207495714Y-107063928D01*
X207381428Y-107006785D01*
X206924285Y-107006785D01*
X206810000Y-107063928D01*
X206752857Y-107178214D01*
X206752857Y-107406785D01*
X206810000Y-107521071D01*
X206924285Y-107578214D01*
X207038571Y-107578214D01*
X207152857Y-107006785D01*
X206752857Y-108606785D02*
X207724285Y-108606785D01*
X207838571Y-108549642D01*
X207895714Y-108492500D01*
X207952857Y-108378214D01*
X207952857Y-108206785D01*
X207895714Y-108092500D01*
X207495714Y-108606785D02*
X207552857Y-108492500D01*
X207552857Y-108263928D01*
X207495714Y-108149642D01*
X207438571Y-108092500D01*
X207324285Y-108035357D01*
X206981428Y-108035357D01*
X206867142Y-108092500D01*
X206810000Y-108149642D01*
X206752857Y-108263928D01*
X206752857Y-108492500D01*
X206810000Y-108606785D01*
X207552857Y-109178214D02*
X206752857Y-109178214D01*
X206352857Y-109178214D02*
X206410000Y-109121071D01*
X206467142Y-109178214D01*
X206410000Y-109235357D01*
X206352857Y-109178214D01*
X206467142Y-109178214D01*
X207495714Y-109692500D02*
X207552857Y-109806785D01*
X207552857Y-110035357D01*
X207495714Y-110149642D01*
X207381428Y-110206785D01*
X207324285Y-110206785D01*
X207210000Y-110149642D01*
X207152857Y-110035357D01*
X207152857Y-109863928D01*
X207095714Y-109749642D01*
X206981428Y-109692500D01*
X206924285Y-109692500D01*
X206810000Y-109749642D01*
X206752857Y-109863928D01*
X206752857Y-110035357D01*
X206810000Y-110149642D01*
X206752857Y-110549642D02*
X206752857Y-111006785D01*
X206352857Y-110721071D02*
X207381428Y-110721071D01*
X207495714Y-110778214D01*
X207552857Y-110892500D01*
X207552857Y-111006785D01*
X207495714Y-111863928D02*
X207552857Y-111749642D01*
X207552857Y-111521071D01*
X207495714Y-111406785D01*
X207381428Y-111349642D01*
X206924285Y-111349642D01*
X206810000Y-111406785D01*
X206752857Y-111521071D01*
X206752857Y-111749642D01*
X206810000Y-111863928D01*
X206924285Y-111921071D01*
X207038571Y-111921071D01*
X207152857Y-111349642D01*
X207552857Y-112435357D02*
X206752857Y-112435357D01*
X206981428Y-112435357D02*
X206867142Y-112492500D01*
X206810000Y-112549642D01*
X206752857Y-112663928D01*
X206752857Y-112778214D01*
X207495714Y-113121071D02*
X207552857Y-113235357D01*
X207552857Y-113463928D01*
X207495714Y-113578214D01*
X207381428Y-113635357D01*
X207324285Y-113635357D01*
X207210000Y-113578214D01*
X207152857Y-113463928D01*
X207152857Y-113292500D01*
X207095714Y-113178214D01*
X206981428Y-113121071D01*
X206924285Y-113121071D01*
X206810000Y-113178214D01*
X206752857Y-113292500D01*
X206752857Y-113463928D01*
X206810000Y-113578214D01*
X206752857Y-114892500D02*
X206752857Y-115349642D01*
X207552857Y-115063928D02*
X206524285Y-115063928D01*
X206410000Y-115121071D01*
X206352857Y-115235357D01*
X206352857Y-115349642D01*
X207552857Y-115921071D02*
X207495714Y-115806785D01*
X207438571Y-115749642D01*
X207324285Y-115692500D01*
X206981428Y-115692500D01*
X206867142Y-115749642D01*
X206810000Y-115806785D01*
X206752857Y-115921071D01*
X206752857Y-116092500D01*
X206810000Y-116206785D01*
X206867142Y-116263928D01*
X206981428Y-116321071D01*
X207324285Y-116321071D01*
X207438571Y-116263928D01*
X207495714Y-116206785D01*
X207552857Y-116092500D01*
X207552857Y-115921071D01*
X207552857Y-116835357D02*
X206752857Y-116835357D01*
X206981428Y-116835357D02*
X206867142Y-116892500D01*
X206810000Y-116949642D01*
X206752857Y-117063928D01*
X206752857Y-117178214D01*
X207210000Y-118435357D02*
X207210000Y-119006785D01*
X207552857Y-118321071D02*
X206352857Y-118721071D01*
X207552857Y-119121071D01*
X207552857Y-120035357D02*
X206352857Y-120035357D01*
X207495714Y-120035357D02*
X207552857Y-119921071D01*
X207552857Y-119692500D01*
X207495714Y-119578214D01*
X207438571Y-119521071D01*
X207324285Y-119463928D01*
X206981428Y-119463928D01*
X206867142Y-119521071D01*
X206810000Y-119578214D01*
X206752857Y-119692500D01*
X206752857Y-119921071D01*
X206810000Y-120035357D01*
X207552857Y-121121071D02*
X206352857Y-121121071D01*
X207495714Y-121121071D02*
X207552857Y-121006785D01*
X207552857Y-120778214D01*
X207495714Y-120663928D01*
X207438571Y-120606785D01*
X207324285Y-120549642D01*
X206981428Y-120549642D01*
X206867142Y-120606785D01*
X206810000Y-120663928D01*
X206752857Y-120778214D01*
X206752857Y-121006785D01*
X206810000Y-121121071D01*
X207552857Y-121692500D02*
X206752857Y-121692500D01*
X206981428Y-121692500D02*
X206867142Y-121749642D01*
X206810000Y-121806785D01*
X206752857Y-121921071D01*
X206752857Y-122035357D01*
X207495714Y-122892500D02*
X207552857Y-122778214D01*
X207552857Y-122549642D01*
X207495714Y-122435357D01*
X207381428Y-122378214D01*
X206924285Y-122378214D01*
X206810000Y-122435357D01*
X206752857Y-122549642D01*
X206752857Y-122778214D01*
X206810000Y-122892500D01*
X206924285Y-122949642D01*
X207038571Y-122949642D01*
X207152857Y-122378214D01*
X207495714Y-123406785D02*
X207552857Y-123521071D01*
X207552857Y-123749642D01*
X207495714Y-123863928D01*
X207381428Y-123921071D01*
X207324285Y-123921071D01*
X207210000Y-123863928D01*
X207152857Y-123749642D01*
X207152857Y-123578214D01*
X207095714Y-123463928D01*
X206981428Y-123406785D01*
X206924285Y-123406785D01*
X206810000Y-123463928D01*
X206752857Y-123578214D01*
X206752857Y-123749642D01*
X206810000Y-123863928D01*
X207495714Y-124378214D02*
X207552857Y-124492500D01*
X207552857Y-124721071D01*
X207495714Y-124835357D01*
X207381428Y-124892500D01*
X207324285Y-124892500D01*
X207210000Y-124835357D01*
X207152857Y-124721071D01*
X207152857Y-124549642D01*
X207095714Y-124435357D01*
X206981428Y-124378214D01*
X206924285Y-124378214D01*
X206810000Y-124435357D01*
X206752857Y-124549642D01*
X206752857Y-124721071D01*
X206810000Y-124835357D01*
X207552857Y-125578214D02*
X207495714Y-125463928D01*
X207381428Y-125406785D01*
X206352857Y-125406785D01*
X207552857Y-126035357D02*
X206752857Y-126035357D01*
X206352857Y-126035357D02*
X206410000Y-125978214D01*
X206467142Y-126035357D01*
X206410000Y-126092500D01*
X206352857Y-126035357D01*
X206467142Y-126035357D01*
X206752857Y-126606785D02*
X207552857Y-126606785D01*
X206867142Y-126606785D02*
X206810000Y-126663928D01*
X206752857Y-126778214D01*
X206752857Y-126949642D01*
X206810000Y-127063928D01*
X206924285Y-127121071D01*
X207552857Y-127121071D01*
X207495714Y-128149642D02*
X207552857Y-128035357D01*
X207552857Y-127806785D01*
X207495714Y-127692500D01*
X207381428Y-127635357D01*
X206924285Y-127635357D01*
X206810000Y-127692500D01*
X206752857Y-127806785D01*
X206752857Y-128035357D01*
X206810000Y-128149642D01*
X206924285Y-128206785D01*
X207038571Y-128206785D01*
X207152857Y-127635357D01*
X207495714Y-128663928D02*
X207552857Y-128778214D01*
X207552857Y-129006785D01*
X207495714Y-129121071D01*
X207381428Y-129178214D01*
X207324285Y-129178214D01*
X207210000Y-129121071D01*
X207152857Y-129006785D01*
X207152857Y-128835357D01*
X207095714Y-128721071D01*
X206981428Y-128663928D01*
X206924285Y-128663928D01*
X206810000Y-128721071D01*
X206752857Y-128835357D01*
X206752857Y-129006785D01*
X206810000Y-129121071D01*
X207552857Y-130778214D02*
X207495714Y-130663928D01*
X207438571Y-130606785D01*
X207324285Y-130549642D01*
X206981428Y-130549642D01*
X206867142Y-130606785D01*
X206810000Y-130663928D01*
X206752857Y-130778214D01*
X206752857Y-130949642D01*
X206810000Y-131063928D01*
X206867142Y-131121071D01*
X206981428Y-131178214D01*
X207324285Y-131178214D01*
X207438571Y-131121071D01*
X207495714Y-131063928D01*
X207552857Y-130949642D01*
X207552857Y-130778214D01*
X206752857Y-131521071D02*
X206752857Y-131978214D01*
X207552857Y-131692500D02*
X206524285Y-131692500D01*
X206410000Y-131749642D01*
X206352857Y-131863928D01*
X206352857Y-131978214D01*
X209545714Y-100721071D02*
X209602857Y-100892500D01*
X209602857Y-101178214D01*
X209545714Y-101292500D01*
X209488571Y-101349642D01*
X209374285Y-101406785D01*
X209260000Y-101406785D01*
X209145714Y-101349642D01*
X209088571Y-101292500D01*
X209031428Y-101178214D01*
X208974285Y-100949642D01*
X208917142Y-100835357D01*
X208860000Y-100778214D01*
X208745714Y-100721071D01*
X208631428Y-100721071D01*
X208517142Y-100778214D01*
X208460000Y-100835357D01*
X208402857Y-100949642D01*
X208402857Y-101235357D01*
X208460000Y-101406785D01*
X209545714Y-101863928D02*
X209602857Y-102035357D01*
X209602857Y-102321071D01*
X209545714Y-102435357D01*
X209488571Y-102492500D01*
X209374285Y-102549642D01*
X209260000Y-102549642D01*
X209145714Y-102492500D01*
X209088571Y-102435357D01*
X209031428Y-102321071D01*
X208974285Y-102092500D01*
X208917142Y-101978214D01*
X208860000Y-101921071D01*
X208745714Y-101863928D01*
X208631428Y-101863928D01*
X208517142Y-101921071D01*
X208460000Y-101978214D01*
X208402857Y-102092500D01*
X208402857Y-102378214D01*
X208460000Y-102549642D01*
X208402857Y-102892500D02*
X208402857Y-103578214D01*
X209602857Y-103235357D02*
X208402857Y-103235357D01*
X208402857Y-103863928D02*
X208402857Y-104606785D01*
X208860000Y-104206785D01*
X208860000Y-104378214D01*
X208917142Y-104492500D01*
X208974285Y-104549642D01*
X209088571Y-104606785D01*
X209374285Y-104606785D01*
X209488571Y-104549642D01*
X209545714Y-104492500D01*
X209602857Y-104378214D01*
X209602857Y-104035357D01*
X209545714Y-103921071D01*
X209488571Y-103863928D01*
X209602857Y-105178214D02*
X209602857Y-105406785D01*
X209545714Y-105521071D01*
X209488571Y-105578214D01*
X209317142Y-105692500D01*
X209088571Y-105749642D01*
X208631428Y-105749642D01*
X208517142Y-105692500D01*
X208460000Y-105635357D01*
X208402857Y-105521071D01*
X208402857Y-105292500D01*
X208460000Y-105178214D01*
X208517142Y-105121071D01*
X208631428Y-105063928D01*
X208917142Y-105063928D01*
X209031428Y-105121071D01*
X209088571Y-105178214D01*
X209145714Y-105292500D01*
X209145714Y-105521071D01*
X209088571Y-105635357D01*
X209031428Y-105692500D01*
X208917142Y-105749642D01*
X209545714Y-106206785D02*
X209602857Y-106378214D01*
X209602857Y-106663928D01*
X209545714Y-106778214D01*
X209488571Y-106835357D01*
X209374285Y-106892500D01*
X209260000Y-106892500D01*
X209145714Y-106835357D01*
X209088571Y-106778214D01*
X209031428Y-106663928D01*
X208974285Y-106435357D01*
X208917142Y-106321071D01*
X208860000Y-106263928D01*
X208745714Y-106206785D01*
X208631428Y-106206785D01*
X208517142Y-106263928D01*
X208460000Y-106321071D01*
X208402857Y-106435357D01*
X208402857Y-106721071D01*
X208460000Y-106892500D01*
X208974285Y-107806785D02*
X208974285Y-107406785D01*
X209602857Y-107406785D02*
X208402857Y-107406785D01*
X208402857Y-107978214D01*
X208402857Y-108663928D02*
X208402857Y-108778214D01*
X208460000Y-108892500D01*
X208517142Y-108949642D01*
X208631428Y-109006785D01*
X208860000Y-109063928D01*
X209145714Y-109063928D01*
X209374285Y-109006785D01*
X209488571Y-108949642D01*
X209545714Y-108892500D01*
X209602857Y-108778214D01*
X209602857Y-108663928D01*
X209545714Y-108549642D01*
X209488571Y-108492500D01*
X209374285Y-108435357D01*
X209145714Y-108378214D01*
X208860000Y-108378214D01*
X208631428Y-108435357D01*
X208517142Y-108492500D01*
X208460000Y-108549642D01*
X208402857Y-108663928D01*
X208802857Y-110092500D02*
X209602857Y-110092500D01*
X208345714Y-109806785D02*
X209202857Y-109521071D01*
X209202857Y-110263928D01*
X208402857Y-110949642D02*
X208402857Y-111063928D01*
X208460000Y-111178214D01*
X208517142Y-111235357D01*
X208631428Y-111292500D01*
X208860000Y-111349642D01*
X209145714Y-111349642D01*
X209374285Y-111292500D01*
X209488571Y-111235357D01*
X209545714Y-111178214D01*
X209602857Y-111063928D01*
X209602857Y-110949642D01*
X209545714Y-110835357D01*
X209488571Y-110778214D01*
X209374285Y-110721071D01*
X209145714Y-110663928D01*
X208860000Y-110663928D01*
X208631428Y-110721071D01*
X208517142Y-110778214D01*
X208460000Y-110835357D01*
X208402857Y-110949642D01*
X208974285Y-113178214D02*
X208974285Y-112778214D01*
X209602857Y-112778214D02*
X208402857Y-112778214D01*
X208402857Y-113349642D01*
X209602857Y-113978214D02*
X209545714Y-113863928D01*
X209431428Y-113806785D01*
X208402857Y-113806785D01*
X209602857Y-114949642D02*
X208974285Y-114949642D01*
X208860000Y-114892500D01*
X208802857Y-114778214D01*
X208802857Y-114549642D01*
X208860000Y-114435357D01*
X209545714Y-114949642D02*
X209602857Y-114835357D01*
X209602857Y-114549642D01*
X209545714Y-114435357D01*
X209431428Y-114378214D01*
X209317142Y-114378214D01*
X209202857Y-114435357D01*
X209145714Y-114549642D01*
X209145714Y-114835357D01*
X209088571Y-114949642D01*
X209545714Y-115463928D02*
X209602857Y-115578214D01*
X209602857Y-115806785D01*
X209545714Y-115921071D01*
X209431428Y-115978214D01*
X209374285Y-115978214D01*
X209260000Y-115921071D01*
X209202857Y-115806785D01*
X209202857Y-115635357D01*
X209145714Y-115521071D01*
X209031428Y-115463928D01*
X208974285Y-115463928D01*
X208860000Y-115521071D01*
X208802857Y-115635357D01*
X208802857Y-115806785D01*
X208860000Y-115921071D01*
X209545714Y-117006785D02*
X209602857Y-116892500D01*
X209602857Y-116663928D01*
X209545714Y-116549642D01*
X209488571Y-116492500D01*
X209374285Y-116435357D01*
X209031428Y-116435357D01*
X208917142Y-116492500D01*
X208860000Y-116549642D01*
X208802857Y-116663928D01*
X208802857Y-116892500D01*
X208860000Y-117006785D01*
X209602857Y-117521071D02*
X208402857Y-117521071D01*
X209602857Y-118035357D02*
X208974285Y-118035357D01*
X208860000Y-117978214D01*
X208802857Y-117863928D01*
X208802857Y-117692500D01*
X208860000Y-117578214D01*
X208917142Y-117521071D01*
X209488571Y-120206785D02*
X209545714Y-120149642D01*
X209602857Y-119978214D01*
X209602857Y-119863928D01*
X209545714Y-119692500D01*
X209431428Y-119578214D01*
X209317142Y-119521071D01*
X209088571Y-119463928D01*
X208917142Y-119463928D01*
X208688571Y-119521071D01*
X208574285Y-119578214D01*
X208460000Y-119692500D01*
X208402857Y-119863928D01*
X208402857Y-119978214D01*
X208460000Y-120149642D01*
X208517142Y-120206785D01*
X209602857Y-120721071D02*
X208402857Y-120721071D01*
X209602857Y-121235357D02*
X208974285Y-121235357D01*
X208860000Y-121178214D01*
X208802857Y-121063928D01*
X208802857Y-120892500D01*
X208860000Y-120778214D01*
X208917142Y-120721071D01*
X209602857Y-121806785D02*
X208802857Y-121806785D01*
X208402857Y-121806785D02*
X208460000Y-121749642D01*
X208517142Y-121806785D01*
X208460000Y-121863928D01*
X208402857Y-121806785D01*
X208517142Y-121806785D01*
X208802857Y-122378214D02*
X210002857Y-122378214D01*
X208860000Y-122378214D02*
X208802857Y-122492500D01*
X208802857Y-122721071D01*
X208860000Y-122835357D01*
X208917142Y-122892500D01*
X209031428Y-122949642D01*
X209374285Y-122949642D01*
X209488571Y-122892500D01*
X209545714Y-122835357D01*
X209602857Y-122721071D01*
X209602857Y-122492500D01*
X209545714Y-122378214D01*
X209488571Y-123463928D02*
X209545714Y-123521071D01*
X209602857Y-123463928D01*
X209545714Y-123406785D01*
X209488571Y-123463928D01*
X209602857Y-123463928D01*
D12*
X187141428Y-123134285D02*
X186712857Y-123277142D01*
X185998571Y-123277142D01*
X185712857Y-123134285D01*
X185570000Y-122991428D01*
X185427142Y-122705714D01*
X185427142Y-122420000D01*
X185570000Y-122134285D01*
X185712857Y-121991428D01*
X185998571Y-121848571D01*
X186570000Y-121705714D01*
X186855714Y-121562857D01*
X186998571Y-121420000D01*
X187141428Y-121134285D01*
X187141428Y-120848571D01*
X186998571Y-120562857D01*
X186855714Y-120420000D01*
X186570000Y-120277142D01*
X185855714Y-120277142D01*
X185427142Y-120420000D01*
X182427142Y-122991428D02*
X182570000Y-123134285D01*
X182998571Y-123277142D01*
X183284285Y-123277142D01*
X183712857Y-123134285D01*
X183998571Y-122848571D01*
X184141428Y-122562857D01*
X184284285Y-121991428D01*
X184284285Y-121562857D01*
X184141428Y-120991428D01*
X183998571Y-120705714D01*
X183712857Y-120420000D01*
X183284285Y-120277142D01*
X182998571Y-120277142D01*
X182570000Y-120420000D01*
X182427142Y-120562857D01*
X181141428Y-123277142D02*
X181141428Y-120277142D01*
X181141428Y-121705714D02*
X179427142Y-121705714D01*
X179427142Y-123277142D02*
X179427142Y-120277142D01*
X177998571Y-123277142D02*
X177998571Y-120277142D01*
X175141428Y-123277142D02*
X176570000Y-123277142D01*
X176570000Y-120277142D01*
X174141428Y-123277142D02*
X174141428Y-120277142D01*
X172427142Y-123277142D02*
X173712857Y-121562857D01*
X172427142Y-120277142D02*
X174141428Y-121991428D01*
X171141428Y-122991428D02*
X170998571Y-123134285D01*
X171141428Y-123277142D01*
X171284285Y-123134285D01*
X171141428Y-122991428D01*
X171141428Y-123277142D01*
M02*
